SplineFontDB: 3.0
FontName: 3270Medium
FullName: 3270-Medium
FamilyName: IBM 3270
Weight: Medium
Copyright: Copyright (c) 2011-2012, Ricardo Banffy.\nCopyright (c) 1993-2011, Paul Mattes.\nCopyright (c) 2004-2005, Don Russell.\nCopyright (c) 2004, Dick Altenbern.\nCopyright (c) 1990, Jeff Sparkes.\nCopyright (c) 1989, Georgia Tech Research Corporation (GTRC), Atlanta, GA 30332.\nAll rights reserved.\nRedistribution and use in source and binary forms, with or without modification, are permitted provided that the following conditions are met:\n\nRedistributions of source code must retain the above copyright notice, this list of conditions and the following disclaimer.\nRedistributions in binary form must reproduce the above copyright notice, this list of conditions and the following disclaimer in the documentation and/or other materials provided with the distribution.\nNeither the names of Paul Mattes, Don Russell, Dick Altenbern, Jeff Sparkes, GTRC nor the names of their contributors may be used to endorse or promote products derived from this software without specific prior written permission.\nTHIS SOFTWARE IS PROVIDED BY PAUL MATTES, DON RUSSELL, DICK ALTENBERN, JEFF SPARKES AND GTRC "AS IS" AND ANY EXPRESS OR IMPLIED WARRANTIES, INCLUDING, BUT NOT LIMITED TO, THE IMPLIED WARRANTIES OF MERCHANTABILITY AND FITNESS FOR A PARTICULAR PURPOSE ARE DISCLAIMED. IN NO EVENT SHALL PAUL MATTES, DON RUSSELL, DICK ALTENBERN, JEFF SPARKES OR GTRC BE LIABLE FOR ANY DIRECT, INDIRECT, INCIDENTAL, SPECIAL, EXEMPLARY, OR CONSEQUENTIAL DAMAGES (INCLUDING, BUT NOT LIMITED TO, PROCUREMENT OF SUBSTITUTE GOODS OR SERVICES; LOSS OF USE, DATA, OR PROFITS; OR BUSINESS INTERRUPTION) HOWEVER CAUSED AND ON ANY THEORY OF LIABILITY, WHETHER IN CONTRACT, STRICT LIABILITY, OR TORT (INCLUDING NEGLIGENCE OR OTHERWISE) ARISING IN ANY WAY OUT OF THE USE OF THIS SOFTWARE, EVEN IF ADVISED OF THE POSSIBILITY OF SUCH DAMAGE.
UComments: "2011-5-25: Created." 
Version: 001.000
ItalicAngle: 0

StartChar: Euro
Encoding: 8364 8364 2
Width: 536
VWidth: 0
InSpiro: 1
Flags: W
HStem: 49 61<281 372> 262 61<54 115 176 416> 384 61<54 115 176 449> 598 61<283 375>
VStem: 115 61<219 262 323 384 445 494>
LayerCount: 2
Back
Fore
SplineSet
54 445 m 1
 115 445 l 1
 115 521 l 1
 255 659 l 1
 401 659 l 1
 466 598 l 1
 471 592 474 583 473 575 c 0
 472 567 469 559 463 554 c 0
 457 549 450 545 442 545 c 0
 434 545 426 548 420 553 c 2
 375 598 l 1
 283 598 l 1
 176 494 l 1
 176 445 l 1
 481 445 l 1
 449 384 l 1
 176 384 l 1
 176 323 l 1
 451 323 l 1
 416 262 l 1
 176 262 l 1
 176 219 l 1
 281 110 l 1
 372 110 l 1
 420 158 l 2
 426 164 435 167 443 167 c 0
 451 167 460 163 466 157 c 0
 472 151 476 143 476 134 c 0
 476 125 472 116 466 110 c 2
 402 49 l 1
 251 49 l 1
 115 189 l 1
 115 262 l 1
 54 262 l 1
 54 293 l 1
 54 323 l 1
 115 323 l 1
 115 384 l 1
 54 384 l 1
 54 445 l 1
  Spiro
    54 445 v
    114 445 v
    116 521 v
    255 659 v
    401 659 v
    466 597 v
    470.256 590.415 o
    472.742 582.918 o
    473 575 o
    471.299 567.119 o
    468.033 559.882 o
    463 554 o
    456.673 549.448 o
    449.659 546.22 o
    442 545 o
    434.082 545.961 o
    426.585 548.707 o
    420 553 [
    375 598 v
    283 598 v
    176 494 v
    176 445 v
    481 445 v
    449 385 v
    176 384 v
    176 323 v
    451 323 v
    416 261 v
    176 262 v
    176 219 v
    281 110 v
    372 110 v
    420 158 ]
    426.844 162.996 o
    434.823 166.002 o
    443 167 o
    451.177 165.743 o
    459.156 162.255 o
    466 157 o
    471.255 150.378 o
    474.743 142.621 o
    476 134 o
    474.743 125.12 o
    471.255 116.881 o
    466 110 [
    402 49 v
    251 49 v
    115 189 v
    115 262 v
    54 262 v
    54 293 v
    54 323 v
    115 323 v
    114 384 v
    54 385 v
    0 0 z
  EndSpiro
EndSplineSet
Validated: 1
EndChar

StartChar: eightones
Encoding: 1114115 -1 6
Width: 536
VWidth: 0
Flags: W
HStem: 178 288<200.547 345.453>
VStem: 133 280<247.566 396.878>
LayerCount: 2
Back
Fore
SplineSet
133 322 m 0
 133 402 196 466 273 466 c 0
 350 466 413 402 413 322 c 0
 413 243 350 178 273 178 c 0
 196 178 133 243 133 322 c 0
EndSplineSet
Validated: 1
EndChar

StartChar: hyphen
Encoding: 45 45 7
Width: 536
VWidth: 0
Flags: W
HStem: 293 61<115 421>
VStem: 115 306<293 354>
LayerCount: 2
Back
Fore
SplineSet
115 354 m 1
 421 354 l 1
 421 293 l 1
 115 293 l 1
 115 354 l 1
EndSplineSet
Validated: 1
EndChar

StartChar: greater
Encoding: 62 62 8
Width: 536
VWidth: 0
InSpiro: 1
Flags: W
VStem: 124 294
LayerCount: 2
Back
Fore
SplineSet
131 549 m 1
 126 555 124 563 124 571 c 0
 124 579 128 586 133 592 c 0
 138 598 145 601 153 602 c 0
 161 603 168 602 175 598 c 1
 418 353 l 1
 418 298 l 1
 176 48 l 1
 170 45 163 44 156 45 c 0
 149 46 143 49 138 54 c 0
 132 59 128 66 127 74 c 0
 126 82 128 90 132 97 c 1
 359 325 l 1
 131 549 l 1
  Spiro
    131 549 v
    126.966 555.585 o
    124.702 563.082 o
    124 571 o
    125.22 578.659 o
    128.448 585.673 o
    133 592 o
    138.623 597.033 o
    145.378 600.299 o
    153 602 o
    160.696 602.297 o
    167.97 601.035 o
    175 598 v
    418 353 v
    418 298 v
    176 48 v
    169.71 45.6683 o
    162.956 44.6663 o
    156 45 o
    146.25 48 o
    138 54 o
    132.708 59.6234 o
    128.96 66.3776 o
    127 74 o
    126.962 81.9551 o
    128.706 89.7113 o
    132 97 v
    359 325 v
    0 0 z
  EndSpiro
EndSplineSet
Validated: 1
EndChar

StartChar: less
Encoding: 60 60 9
Width: 536
VWidth: 0
Flags: W
VStem: 125 294
LayerCount: 2
Back
Fore
SplineSet
411 99 m 2
 416 93 419 85 419 77 c 0
 419 69 415 62 410 56 c 0
 405 50 397 47 389 46 c 0
 381 45 375 46 368 50 c 1
 125 295 l 1
 125 351 l 1
 367 598 l 1
 373 601 380 604 387 603 c 0
 394 602 400 599 405 594 c 0
 411 589 414 581 415 573 c 0
 416 565 415 558 411 551 c 1
 183 323 l 1
 411 99 l 2
EndSplineSet
Validated: 1
EndChar

StartChar: bracketleft
Encoding: 91 91 10
Width: 536
VWidth: 0
Flags: W
HStem: -13 62<237 359> 598 61<237 359>
VStem: 177 182<-13 49 598 659> 177 60<49 598>
LayerCount: 2
Back
Fore
SplineSet
177 659 m 1xe0
 359 659 l 1
 359 598 l 1xe0
 237 598 l 1
 237 49 l 1xd0
 359 49 l 1
 359 -13 l 1
 177 -13 l 1
 177 659 l 1xe0
EndSplineSet
Validated: 1
EndChar

StartChar: bracketright
Encoding: 93 93 11
Width: 536
VWidth: 0
Flags: W
HStem: -13 62<177 298> 598 61<177 298>
VStem: 177 182<-13 49 598 659> 298 61<49 598>
LayerCount: 2
Back
Fore
SplineSet
177 659 m 1xe0
 359 659 l 1
 359 -13 l 1
 177 -13 l 1
 177 49 l 1xe0
 298 49 l 1
 298 598 l 1xd0
 177 598 l 1
 177 659 l 1xe0
EndSplineSet
Validated: 1
EndChar

StartChar: parenright
Encoding: 41 41 12
Width: 536
VWidth: 0
InSpiro: 1
Flags: W
VStem: 300 58<214 434>
LayerCount: 2
Back
Fore
SplineSet
350 467 m 2
 351 466 351 465 352 464 c 0
 353 463 354 462 354 461 c 0
 355 459 356 456 357 454 c 0
 358 451 358 449 358 446 c 2
 358 202 l 2
 358 201 357 199 357 198 c 0
 357 197 356 196 356 195 c 0
 355 193 355 190 354 188 c 0
 353 187 353 186 352 185 c 0
 351 184 350 183 349 182 c 2
 224 57 l 2
 222 55 220 53 218 52 c 0
 216 51 213 50 211 50 c 0
 206 49 201 49 196 50 c 0
 191 51 187 54 184 57 c 0
 180 61 177 65 176 70 c 0
 175 75 174 80 176 85 c 0
 177 87 178 90 179 92 c 0
 180 94 182 95 184 97 c 2
 300 214 l 1
 300 434 l 1
 185 547 l 2
 183 549 181 551 180 553 c 0
 179 555 178 557 177 560 c 0
 176 565 176 569 177 574 c 0
 178 579 181 583 184 587 c 0
 187 591 192 594 197 595 c 0
 202 596 207 596 212 595 c 0
 214 595 217 594 219 593 c 0
 221 592 223 590 225 588 c 2
 350 467 l 2
  Spiro
    350 467 ]
    350.74 466.001 o
    351.26 464.999 o
    352 464 o
    352.962 463.001 o
    353.704 461.999 o
    354 461 o
    354.999 458.743 o
    356.001 456.257 o
    357 454 o
    357.703 451.262 o
    357.963 448.738 o
    358 446 [
    357 202 v
    357 198 o
    356.741 197.001 o
    356.259 195.999 o
    356 195 o
    355.26 192.743 o
    354.74 190.257 o
    354 188 o
    353.26 187.001 o
    352.74 185.999 o
    352 185 o
    349 182 v
    224 57 ]
    222.002 55.0389 o
    219.998 53.2947 o
    218 52 o
    215.743 51.0379 o
    213.257 50.2957 o
    211 50 o
    203.5 49.25 o
    196 50 o
    191.338 51.5905 o
    187.33 54.0769 o
    184 57 o
    180.374 61.0329 o
    177.627 65.3007 o
    176 70 o
    175.112 74.995 o
    174.889 80.005 o
    176 85 o
    176.999 87.2568 o
    178.001 89.7432 o
    179 92 o
    180.295 93.7392 o
    182.039 95.2608 o
    184 97 [
    300 214 v
    301 434 v
    185 547 ]
    183.039 548.998 o
    181.295 551.002 o
    180 553 o
    179.001 555.035 o
    177.999 557.299 o
    177 560 o
    176.334 564.736 o
    176.334 569.264 o
    177 574 o
    178.59 578.699 o
    181.077 582.967 o
    184 587 o
    187.588 590.626 o
    192.079 593.373 o
    197 595 o
    204.5 595.75 o
    212 595 o
    214.257 594.704 o
    216.743 593.962 o
    219 593 o
    220.998 591.705 o
    223.002 589.961 o
    225 588 [
    0 0 z
  EndSpiro
EndSplineSet
Validated: 1
EndChar

StartChar: parenleft
Encoding: 40 40 13
Width: 536
VWidth: 0
Flags: W
HStem: 49 21G<334.5 341.5> 578 20G<333.5 341>
VStem: 184 57<214 434>
LayerCount: 2
Back
Fore
SplineSet
192 470 m 2
 317 589 l 2
 323 594 330 598 337 598 c 0
 345 598 352 594 357 588 c 0
 363 582 366 575 366 567 c 0
 366 559 363 553 357 547 c 2
 241 434 l 1
 241 214 l 1
 358 98 l 2
 364 93 367 85 367 77 c 0
 367 69 364 63 358 58 c 0
 352 52 345 49 338 49 c 0
 331 49 323 52 318 58 c 2
 193 183 l 2
 187 189 184 194 184 202 c 2
 184 446 l 2
 184 454 186 464 192 470 c 2
EndSplineSet
Validated: 1
EndChar

StartChar: braceright
Encoding: 125 125 14
Width: 536
VWidth: 0
InSpiro: 1
Flags: MW
VStem: 237 60<104 263 410 569>
LayerCount: 2
Back
Fore
SplineSet
114 673 m 1
 204 673 l 2
 214 673 222 668 225 664 c 2
 288 603 l 2
 295 596 297 587 297 582 c 2
 297 410 l 1
 339 367 l 1
 375 367 l 1
 375 307 l 1
 339 307 l 1
 297 263 l 1
 297 92 l 2
 297 87 295 77 288 70 c 2
 225 9 l 2
 222 6 214 0 204 0 c 1
 174 0 144 0 114 0 c 1
 114 20 114 40 114 60 c 1
 192 60 l 1
 237 104 l 1
 237 275 l 2
 237 285 242 293 245 296 c 2
 284 337 l 1
 245 377 l 2
 242 380 237 388 237 398 c 2
 237 569 l 1
 192 613 l 1
 114 613 l 1
 114 673 l 1
  Spiro
    204 673 ]
    213.214 671.558 o
    220.45 668.107 o
    225 664 [
    288 603 ]
    293.44 595.563 o
    296.224 588.104 o
    297 582 [
    297 410 v
    339 367 v
    375 367 v
    375 307 v
    339 307 v
    297 263 v
    297 92 ]
    296.224 85.6371 o
    293.44 77.6956 o
    288 70 [
    225 9 ]
    220.45 5.33733 o
    213.214 1.66367 o
    204 0 v
    114 0 v
    114 60 v
    192 60 v
    237 104 v
    237 275 ]
    238.405 284.214 o
    241.596 291.45 o
    245 296 [
    284 337 v
    245 377 ]
    241.596 381.55 o
    238.405 388.786 o
    237 398 [
    237 569 v
    192 613 v
    114 613 v
    114 673 v
    0 0 z
  EndSpiro
EndSplineSet
Validated: 1
EndChar

StartChar: braceleft
Encoding: 123 123 15
Width: 536
VWidth: 0
Flags: MW
VStem: 175 60<104 263 410 569>
LayerCount: 2
Back
Fore
SplineSet
358 673 m 1
 358 613 l 1
 280 613 l 1
 235 569 l 1
 235 398 l 2
 235 388 230 380 227 377 c 2
 188 337 l 1
 227 296 l 2
 230 293 235 285 235 275 c 2
 235 104 l 1
 280 60 l 1
 358 60 l 1
 358 40 358 20 358 0 c 1
 328 -0 298 0 268 0 c 1
 258 0 250 6 247 9 c 2
 184 70 l 2
 177 77 175 87 175 92 c 2
 175 263 l 1
 133 307 l 1
 97 307 l 1
 97 367 l 1
 133 367 l 1
 175 410 l 1
 175 582 l 2
 175 587 177 596 184 603 c 2
 247 664 l 2
 250 668 258 673 268 673 c 2
 358 673 l 1
EndSplineSet
Validated: 1
EndChar

StartChar: equal
Encoding: 61 61 17
Width: 536
VWidth: 0
Flags: W
HStem: 231 62<54 481> 415 61<54 481>
LayerCount: 2
Back
Fore
SplineSet
54 476 m 1
 481 476 l 1
 481 415 l 1
 54 415 l 1
 54 476 l 1
54 293 m 1
 481 293 l 1
 481 231 l 1
 54 231 l 1
 54 293 l 1
EndSplineSet
Validated: 1
EndChar

StartChar: quotedbl
Encoding: 34 34 19
Width: 536
VWidth: 0
Flags: W
HStem: 476 183<115 177 298 359>
VStem: 115 62<476 659> 298 61<476 659>
LayerCount: 2
Back
Fore
SplineSet
115 659 m 1
 177 659 l 1
 177 476 l 1
 115 476 l 1
 115 659 l 1
298 659 m 1
 359 659 l 1
 359 476 l 1
 298 476 l 1
 298 659 l 1
EndSplineSet
Validated: 1
EndChar

StartChar: slash
Encoding: 47 47 20
Width: 536
VWidth: 0
InSpiro: 1
Flags: W
LayerCount: 2
Back
Fore
SplineSet
70 118 m 0
 64 124 61 131 61 139 c 0
 61 147 64 154 70 160 c 0
 435 525 l 0
 440 531 448 534 456 534 c 0
 463 534 471 531 477 525 c 0
 483 520 486 512 486 504 c 0
 486 496 483 488 477 483 c 0
 112 118 l 0
 106 112 98 109 91 109 c 0
 83 109 76 112 70 118 c 0
  Spiro
    69.5646 117.787 o
    61.8654 131.339 o
    61.8654 146.661 o
    69.5646 160.213 o
    434.565 525.213 o
    448.117 532.912 o
    463.439 532.912 o
    476.991 525.213 o
    484.69 511.661 o
    484.69 496.339 o
    476.991 482.787 o
    111.991 117.787 o
    98.4389 110.088 o
    83.1167 110.088 o
    0 0 z
  EndSpiro
EndSplineSet
Validated: 1
EndChar

StartChar: backslash
Encoding: 92 92 21
Width: 536
VWidth: 0
Flags: W
LayerCount: 2
Back
Fore
SplineSet
421 123 m 2
 62 489 l 2
 56 495 54 504 54 512 c 0
 54 520 56 527 62 533 c 0
 68 539 77 542 85 542 c 0
 93 542 100 539 106 533 c 2
 465 167 l 2
 471 161 474 153 474 145 c 0
 474 137 471 129 465 123 c 0
 459 117 451 113 443 113 c 0
 435 113 427 117 421 123 c 2
EndSplineSet
Validated: 1
EndChar

StartChar: bar
Encoding: 124 124 22
Width: 536
VWidth: 0
Flags: W
VStem: 237 61<-73 720>
LayerCount: 2
Back
Fore
SplineSet
237 720 m 1
 298 720 l 1
 298 -73 l 1
 237 -73 l 1
 237 720 l 1
EndSplineSet
Validated: 1
EndChar

StartChar: brokenbar
Encoding: 166 166 23
Width: 536
VWidth: 0
Flags: W
HStem: 639 20G<237 298>
VStem: 237 61<-73 231 354 659>
LayerCount: 2
Back
Fore
SplineSet
237 659 m 1
 298 659 l 1
 298 354 l 1
 237 354 l 1
 237 659 l 1
237 231 m 1
 298 231 l 1
 298 -73 l 1
 237 -73 l 1
 237 231 l 1
EndSplineSet
Validated: 1
EndChar

StartChar: question
Encoding: 63 63 24
Width: 536
VWidth: 0
InSpiro: 1
Flags: W
HStem: 50 61<233 300> 476 21G<115 176> 598 64<208 381>
VStem: 115 61<476 568> 237 61<50 111 232 322> 418 62<515 567>
LayerCount: 2
Back
Fore
SplineSet
233 111 m 1
 300 111 l 1
 300 50 l 1
 233 50 l 1
 233 111 l 1
  Spiro
    233 111 v
    300 111 v
    300 50 v
    233 50 v
    0 0 z
  EndSpiro
115 579 m 2
 115 581 114 584 115 586 c 0
 116 588 118 590 119 592 c 0
 120 593 120 594 121 595 c 0
 122 596 122 597 123 598 c 2
 170 652 l 2
 172 654 174 657 176 659 c 0
 178 661 181 658 184 659 c 0
 187 660 190 662 193 662 c 2
 394 662 l 2
 395 662 397 662 398 662 c 0
 399 662 400 659 401 659 c 0
 403 658 406 660 408 659 c 0
 411 658 413 656 415 654 c 2
 470 603 l 2
 472 601 474 601 476 598 c 0
 477 596 478 591 479 588 c 0
 480 585 480 582 480 579 c 2
 480 501 l 2
 480 498 478 496 477 493 c 0
 476 490 475 488 473 485 c 0
 472 483 470 481 468 479 c 2
 298 322 l 1
 298 232 l 1
 237 232 l 1
 237 337 l 2
 237 340 236 342 237 345 c 0
 238 347 240 350 241 352 c 0
 243 354 245 356 247 358 c 2
 418 515 l 1
 418 567 l 1
 381 598 l 1
 208 598 l 1
 176 568 l 1
 176 476 l 1
 115 476 l 1
 115 579 l 2
  Spiro
    115 579 ]
    115.037 581.257 o
    115.297 583.743 o
    116 586 o
    119 592 o
    119.74 592.999 o
    120.26 594.001 o
    121 595 o
    121.74 595.999 o
    122.26 597.001 o
    123 598 [
    170 652 v
    176 658 o
    178.294 659.443 o
    181.04 660.223 o
    184 661 o
    186.997 661.703 o
    190.003 661.963 o
    193 662 [
    394 662 v
    398 662 o
    398.999 661.741 o
    400.001 661.259 o
    401 661 o
    403.257 660.26 o
    405.743 659.74 o
    408 659 o
    410.701 657.705 o
    412.965 655.961 o
    415 654 [
    470 603 ]
    471.998 600.965 o
    474.002 598.701 o
    476 596 o
    476.999 593.706 o
    478.001 590.96 o
    479 588 o
    479.703 585.003 o
    479.963 581.997 o
    480 579 [
    478 501 ]
    477.963 498.262 o
    477.703 495.738 o
    477 493 o
    475.964 490.262 o
    474.702 487.738 o
    473 485 o
    471.705 483.002 o
    469.961 480.998 o
    468 479 [
    298 322 v
    298 232 v
    237 232 v
    237 337 ]
    237.037 339.738 o
    237.297 342.262 o
    238 345 o
    238.999 347.257 o
    240.001 349.743 o
    241 352 o
    247 358 v
    416 515 v
    418 567 v
    381 600 v
    208 600 v
    176 568 v
    176 476 v
    115 476 v
    0 0 z
  EndSpiro
EndSplineSet
Validated: 1
EndChar

StartChar: exclam
Encoding: 33 33 25
Width: 536
VWidth: 0
Flags: W
HStem: 49 61<237 299> 639 20G<237 298>
VStem: 237 61<49 110 231 659>
LayerCount: 2
Back
Fore
SplineSet
237 110 m 1
 299 110 l 1
 299 49 l 1
 237 49 l 1
 237 110 l 1
237 659 m 1
 298 659 l 1
 298 231 l 1
 237 231 l 1
 237 659 l 1
EndSplineSet
Validated: 1
EndChar

StartChar: dollar
Encoding: 36 36 26
Width: 536
VWidth: 0
InSpiro: 1
Flags: HMW
HStem: 294 60<163 242 304 384> 477 60<164 242 304 486>
LayerCount: 2
Back
Fore
SplineSet
486 537 m 1
 486 477 l 1
 304 477 l 1
 304 354 l 1
 398 354 l 2
 406 354 414 350 419 344 c 2
 477 282 l 2
 483 277 486 268 486 262 c 2
 486 201 l 2
 486 193 481 185 477 180 c 2
 419 119 l 2
 413 113 405 110 398 110 c 2
 304 110 l 1
 304 -13 l 1
 242 -13 l 1
 242 110 l 1
 62 110 l 1
 62 170 l 1
 242 170 l 1
 242 294 l 1
 150 294 l 2
 143 294 135 297 129 303 c 2
 71 364 l 2
 67 369 62 377 62 385 c 2
 62 445 l 2
 62 451 65 460 71 466 c 2
 130 528 l 2
 135 533 143 537 152 537 c 2
 242 537 l 1
 242 659 l 1
 304 659 l 1
 304 537 l 1
 486 537 l 1
  Spiro
    486.5 537 v
    486.5 477 v
    303.5 477 v
    303.5 354 v
    397.5 354 ]
    405.809 352.718 o
    413.399 349.314 o
    419.408 344.495 [
    477.408 282.495 ]
    481.864 275.993 o
    484.585 268.703 o
    485.5 262 [
    485.5 201 ]
    484.3 193.143 o
    481.256 185.909 o
    477.241 180.328 [
    419.241 119.328 ]
    412.636 114.227 o
    405.009 111.073 o
    397.5 110 [
    303.5 110 v
    303.5 -13 v
    242.5 -13 v
    242.5 110 v
    60.5 110 v
    60.5 170 v
    242.5 170 v
    242.5 294 v
    150.5 294 ]
    142.991 295.073 o
    135.364 298.227 o
    128.759 303.328 [
    70.7589 364.328 ]
    66.7437 369.909 o
    63.7001 377.143 o
    62.5 385 [
    62.5 445 ]
    63.4348 451.817 o
    66.2122 459.159 o
    70.7589 465.681 [
    129.768 527.681 ]
    135.716 532.378 o
    143.254 535.729 o
    151.5 537 [
    242.5 537 v
    242.5 658 v
    303.5 658 v
    303.5 537 v
    0 0 z
  EndSpiro
242 477 m 1
 164 477 l 1
 122 433 l 1
 122 397 l 1
 163 354 l 1
 242 354 l 1
 242 477 l 1
  Spiro
    242.5 477 v
    164.364 477 v
    122.5 433.007 v
    122.5 396.986 v
    163.372 354 v
    242.5 354 v
    0 0 z
  EndSpiro
304 170 m 1
 385 170 l 1
 426 213 l 1
 426 250 l 1
 384 294 l 1
 304 294 l 1
 304 170 l 1
  Spiro
    303.5 170 v
    384.628 170 v
    425.5 212.986 v
    425.5 250.155 v
    384.484 294 v
    303.5 294 v
    0 0 z
  EndSpiro
EndSplineSet
Validated: 1
EndChar

StartChar: cent
Encoding: 162 162 27
Width: 536
VWidth: 0
InSpiro: 1
Flags: W
HStem: 232 61<147 237 298 420> 476 61<145 237 298 420> 639 20G<237 298>
VStem: 55 62<325 446> 237 61<110 232 293 476 537 659>
LayerCount: 2
Back
Fore
SplineSet
237 659 m 1
 298 659 l 1
 298 537 l 1
 420 537 l 1
 420 476 l 1
 298 476 l 1
 298 293 l 1
 420 293 l 1
 420 232 l 1
 298 232 l 1
 298 110 l 1
 237 110 l 1
 237 232 l 1
 134 232 l 2
 131 232 128 231 125 232 c 0
 123 233 120 235 118 236 c 0
 116 237 114 239 112 241 c 2
 63 290 l 2
 62 291 61 292 60 293 c 0
 59 294 59 296 58 297 c 0
 57 298 56 299 55 300 c 0
 54 301 55 303 55 304 c 0
 55 305 55 307 55 308 c 0
 55 309 55 311 55 312 c 2
 55 458 l 2
 55 461 54 463 55 466 c 0
 56 468 58 471 59 473 c 0
 60 475 62 477 64 479 c 2
 109 528 l 2
 110 529 111 530 112 531 c 0
 113 532 115 532 116 533 c 0
 118 534 121 535 123 536 c 0
 126 537 129 537 132 537 c 2
 237 537 l 1
 237 659 l 1
  Spiro
    237 659 v
    298 659 v
    298 537 v
    420 537 v
    420 476 v
    298 476 v
    298 293 v
    420 293 v
    420 232 v
    298 232 v
    298 110 v
    237 111 v
    237 232 v
    134 232 ]
    131.003 232.037 o
    127.997 232.297 o
    125 233 o
    122.743 233.999 o
    120.257 235.001 o
    118 236 o
    116.002 237.295 o
    113.998 239.039 o
    112 241 [
    63 290 v
    60 293 o
    59.2598 294.258 o
    58.7402 295.742 o
    58 297 o
    57.2598 297.999 o
    56.7402 299.001 o
    56 300 o
    55.2967 301.258 o
    55.0369 302.742 o
    55 304 o
    55 308 o
    55 312 v
    55 458 ]
    55.0369 460.738 o
    55.2967 463.262 o
    56 466 o
    56.999 468.257 o
    58.001 470.743 o
    59 473 o
    60.2947 474.998 o
    62.0389 477.002 o
    64 479 [
    109 528 v
    112 531 o
    113.258 531.74 o
    114.742 532.26 o
    116 533 o
    118.257 533.999 o
    120.743 535.001 o
    123 536 o
    125.997 536.703 o
    129.003 536.963 o
    132 537 [
    237 537 v
    0 0 z
  EndSpiro
237 476 m 1
 145 476 l 1
 117 446 l 1
 117 325 l 1
 147 293 l 1
 237 293 l 1
 237 476 l 1
  Spiro
    237 476 v
    145 476 v
    117 446 v
    117 325 v
    147 293 v
    237 293 v
    0 0 z
  EndSpiro
EndSplineSet
Validated: 1
EndChar

StartChar: sterling
Encoding: 163 163 28
Width: 536
VWidth: 0
InSpiro: 1
Flags: HMW
HStem: 50 60<285 385> 353 61<60 184 244 366> 598 61<286 325>
VStem: 184 60<160 353 414 555>
LayerCount: 2
Back
Fore
SplineSet
155 110 m 1
 148 112 l 1
 120 112 l 1
 120 106 l 1
 148 106 l 1
 155 110 l 1
  Spiro
    155 110 v
    148 112 v
    120 112 v
    120 106 v
    148 106 v
    0 0 z
  EndSpiro
244 140 m 1
 252 138 l 2
 256 136 260 134 263 131 c 2
 285 110 l 1
 385 110 l 1
 438 160 l 1
 479 116 l 1
 417 58 l 2
 413 54 404 50 396 50 c 2
 274 50 l 2
 268 50 259 53 253 58 c 2
 227 83 l 1
 207 89 l 1
 173 56 l 2
 168 51 159 50 152 50 c 2
 90 50 l 2
 74 50 60 62 60 78 c 2
 60 139 l 2
 60 155 74 169 90 169 c 2
 150 169 l 2
 154 169 157 168 160 168 c 2
 184 160 l 1
 184 353 l 1
 60 353 l 1
 60 414 l 1
 184 414 l 1
 184 567 l 2
 184 573 186 582 192 588 c 2
 252 649 l 2
 257 654 265 659 274 659 c 2
 338 659 l 2
 344 659 353 655 359 649 c 2
 419 589 l 1
 376 547 l 1
 325 598 l 1
 286 598 l 1
 244 555 l 1
 244 414 l 1
 366 414 l 1
 366 353 l 1
 244 353 l 1
 244 140 l 1
  Spiro
    244 140 v
    252 138 ]
    255.959 135.965 o
    259.707 133.701 o
    263 131 [
    285 110 v
    385 110 v
    438 160 v
    479 116 v
    417 58 ]
    411.562 54.1517 o
    404.103 51.183 o
    396 50 [
    274 50 ]
    267.23 50.9611 o
    259.77 53.7073 o
    253 58 [
    227 83 v
    207 89 v
    173 56 ]
    166.896 51.7073 o
    159.437 48.9611 o
    152 48 [
    90 48 ]
    75.1244 52.2142 o
    64.2142 63.1244 o
    60 78 [
    60 139 ]
    64.2142 153.876 o
    75.1244 164.786 o
    90 169 [
    150 169 ]
    153.7 168.741 o
    156.966 168.259 o
    160 168 [
    184 160 v
    184 353 v
    60.5 353 v
    60.5 414 v
    184 414 v
    184 567 ]
    184.739 573.77 o
    187.263 581.23 o
    192 588 [
    252 649 ]
    257.919 653.81 o
    265.416 657.521 o
    274 659 [
    338 659 ]
    344.77 657.743 o
    352.23 654.255 o
    359 649 [
    419 589 v
    376 547 v
    325 598 v
    286 598 v
    244 555 v
    244 414 v
    365.5 414 v
    365.5 353 v
    244 353 v
    0 0 z
  EndSpiro
EndSplineSet
Validated: 1
EndChar

StartChar: yen
Encoding: 165 165 29
Width: 536
VWidth: 0
InSpiro: 1
Flags: W
HStem: 49 21G<237 298> 171 61<54 237 298 481> 354 61<54 237 298 481>
VStem: 237 61<49 171 232 354 415 448>
LayerCount: 2
Back
Fore
SplineSet
267 506 m 1
 429 652 l 1
 471 606 l 1
 297 451 l 1
 297 415 l 1
 481 415 l 1
 481 354 l 1
 298 354 l 1
 298 232 l 1
 481 232 l 1
 481 171 l 1
 298 171 l 1
 298 49 l 1
 237 49 l 1
 237 171 l 1
 54 171 l 1
 54 232 l 1
 237 232 l 1
 237 354 l 1
 54 354 l 1
 54 415 l 1
 237 415 l 1
 237 448 l 1
 62 606 l 1
 103 653 l 1
 267 506 l 1
  Spiro
    267 506 v
    429 652 v
    471 606 v
    297 451 v
    298 415 v
    481 415 v
    481 354 v
    298 354 v
    298 232 v
    481 232 v
    481 171 v
    298 171 v
    298 49 v
    237 49 v
    237 171 v
    54 171 v
    54 232 v
    237 232 v
    237 354 v
    54 354 v
    54 415 v
    237 415 v
    236 448 v
    62 606 v
    103 653 v
    0 0 z
  EndSpiro
EndSplineSet
Validated: 1
EndChar

StartChar: paragraph
Encoding: 182 182 30
Width: 536
VWidth: 0
InSpiro: 1
Flags: W
HStem: 48 21G<64 120> 172 59<245 306 367 428> 362 56<120 265> 604 55<120 265>
VStem: 64 56<48 362 418 604> 306 61<-12 172 231 292 460 560>
LayerCount: 2
Back
Fore
SplineSet
120 604 m 1
 120 418 l 1
 265 418 l 1
 306 460 l 1
 306 560 l 1
 265 604 l 1
 120 604 l 1
  Spiro
    120 604 v
    120 418 v
    265 418 v
    308 460 v
    308 560 v
    265 604 v
    0 0 z
  EndSpiro
120 48 m 1
 64 48 l 1
 64 659 l 1
 276 659 l 2
 279 659 281 660 283 659 c 1
 286 659 288 656 290 654 c 0
 292 653 294 652 295 650 c 2
 355 590 l 2
 357 589 359 587 360 584 c 0
 361 582 362 580 363 578 c 1
 363 575 364 573 364 571 c 2
 364 448 l 2
 364 445 363 443 362 440 c 0
 362 438 361 436 359 434 c 0
 358 432 357 430 355 428 c 2
 295 370 l 2
 293 369 291 367 289 366 c 0
 287 365 285 363 282 362 c 0
 280 362 278 362 276 362 c 2
 120 362 l 1
 120 48 l 1
  Spiro
    120 48 v
    64 48 v
    64 659 v
    276 659 ]
    278.701 659.222 o
    280.965 659.444 o
    283 659 v
    285.701 658.15 o
    287.965 656.183 o
    290 654 o
    291.961 652.964 o
    293.705 651.702 o
    295 650 [
    355 590 ]
    356.961 588.668 o
    358.705 586.664 o
    360 584 ]
    363 578 v
    363.259 575.299 o
    363.741 573.035 o
    364 571 [
    364 448 ]
    363.704 445.262 o
    362.962 442.738 o
    362 440 o
    361.25 437 o
    359 434 o
    357.964 432.002 o
    356.702 429.998 o
    355 428 [
    295 370 ]
    293.002 368.742 o
    290.998 367.258 o
    289 366 o
    286.965 364.742 o
    284.701 363.258 o
    282 362 o
    276 362 v
    120 362 v
    0 0 z
  EndSpiro
306 292 m 1
 367 292 l 1
 367 231 l 1
 428 231 l 1
 428 172 l 1
 367 172 l 1
 367 -12 l 1
 306 -12 l 1
 306 172 l 1
 245 172 l 1
 245 231 l 1
 306 231 l 1
 306 292 l 1
  Spiro
    306.109 292 v
    366.609 292 v
    366.609 231 v
    427.609 231 v
    427.609 171.5 v
    366.609 171.5 v
    366.609 -12 v
    306.109 -12 v
    306.109 171.5 v
    244.609 171.5 v
    244.609 231 v
    306.109 231 v
    0 0 z
  EndSpiro
EndSplineSet
Validated: 1
EndChar

StartChar: currency
Encoding: 164 164 31
Width: 536
VWidth: 0
Flags: MW
LayerCount: 2
Back
Fore
SplineSet
214 187 m 1
 88 59 l 1
 54 92 l 1
 170 212 l 1
 138 238 118 278 118 322 c 0
 118 367 138 407 170 433 c 1
 52 555 l 1
 86 588 l 1
 213 458 l 1
 228 464 245 466 262 466 c 0
 279 466 296 464 311 458 c 1
 437 587 l 1
 472 554 l 1
 355 433 l 1
 386 407 406 366 406 322 c 0
 406 279 388 240 358 214 c 1
 474 92 l 1
 439 59 l 1
 313 188 l 1
 297 182 280 178 262 178 c 0
 245 178 229 182 214 187 c 1
166 322 m 0
 166 269 209 226 262 226 c 0
 315 226 358 269 358 322 c 0
 358 375 315 419 262 419 c 0
 209 419 166 375 166 322 c 0
EndSplineSet
Validated: 1
EndChar

StartChar: zero
Encoding: 48 48 32
Width: 536
VWidth: 0
InSpiro: 1
Flags: W
HStem: 59 57<210 328> 282 141<237.048 293.294> 603 56<208 330>
VStem: 60 57<205 504> 237 57<303.14 401.906> 420 56<208 507>
LayerCount: 2
Back
Fore
SplineSet
294 311 m 2
 294 308 294 306 293 303 c 0
 292 300 291 298 290 296 c 0
 287 292 284 288 280 286 c 0
 276 283 271 282 266 282 c 0
 261 282 255 283 251 286 c 0
 247 288 244 292 241 296 c 0
 240 298 238 300 237 303 c 0
 236 306 237 308 237 311 c 2
 237 395 l 2
 237 397 236 400 237 402 c 0
 238 404 240 407 241 409 c 0
 242 411 243 413 245 415 c 0
 247 417 249 419 251 420 c 0
 253 421 255 423 258 423 c 0
 261 423 263 423 266 423 c 0
 268 423 271 422 273 422 c 0
 275 422 278 421 280 420 c 0
 282 419 284 417 286 415 c 0
 288 413 289 411 290 409 c 0
 291 407 292 404 293 402 c 0
 294 400 294 397 294 395 c 2
 294 311 l 2
  Spiro
    294 311 ]
    293.963 308.262 o
    293.703 305.738 o
    293 303 o
    292.001 300.299 o
    290.999 298.035 o
    290 296 o
    286.966 292.078 o
    283.7 288.589 o
    280 286 o
    275.708 283.631 o
    270.958 282.37 o
    266 282 o
    260.783 282.37 o
    255.551 283.631 o
    251 286 o
    247.3 288.589 o
    244.034 292.078 o
    241 296 o
    240.001 298.035 o
    238.999 300.299 o
    238 303 o
    237.297 305.738 o
    237.037 308.262 o
    237 311 [
    237 395 ]
    237.037 397.257 o
    237.297 399.743 o
    238 402 o
    238.999 404.257 o
    240.001 406.743 o
    241 409 o
    242.036 410.998 o
    243.298 413.002 o
    245 415 o
    246.998 416.961 o
    249.002 418.705 o
    251 420 o
    253.035 421.221 o
    255.299 422.445 o
    258 423 o
    266 423 o
    268.257 422.741 o
    270.743 422.259 o
    273 422 o
    275.257 421.704 o
    277.743 420.962 o
    280 420 o
    281.998 418.705 o
    284.002 416.961 o
    286 415 o
    287.702 413.002 o
    288.964 410.998 o
    290 409 o
    290.999 406.743 o
    292.001 404.257 o
    293 402 o
    293.703 399.743 o
    293.963 397.257 o
    294 395 [
    0 0 z
  EndSpiro
174 651 m 2
 176 653 178 655 180 656 c 0
 182 657 185 658 187 659 c 0
 190 660 192 659 195 659 c 2
 342 659 l 2
 345 659 347 660 350 659 c 0
 352 658 355 657 357 656 c 0
 359 655 361 653 363 651 c 2
 468 538 l 2
 469 536 471 535 472 533 c 0
 473 531 474 528 475 526 c 0
 476 524 476 521 476 519 c 2
 476 197 l 2
 476 196 477 194 477 193 c 0
 477 192 477 190 477 189 c 0
 477 188 477 186 476 185 c 0
 475 184 475 183 474 182 c 0
 473 180 471 178 469 176 c 2
 360 68 l 2
 358 66 356 64 354 63 c 0
 352 62 350 60 348 59 c 0
 345 58 343 59 340 59 c 2
 199 59 l 2
 197 59 194 58 192 59 c 0
 190 60 187 62 185 63 c 0
 184 64 183 64 182 65 c 0
 181 66 180 66 179 67 c 2
 67 172 l 2
 65 174 61 176 60 178 c 0
 59 180 61 183 60 185 c 0
 59 188 60 190 60 193 c 2
 60 515 l 2
 60 516 60 518 60 519 c 0
 60 520 60 521 60 522 c 0
 60 523 60 525 60 526 c 0
 60 527 62 528 63 529 c 0
 64 531 66 532 67 534 c 2
 174 651 l 2
  Spiro
    174 651 ]
    175.998 652.961 o
    178.002 654.705 o
    180 656 o
    182.257 656.999 o
    184.743 658.001 o
    187 659 o
    189.738 659.703 o
    192.262 659.963 o
    195 660 [
    342 660 ]
    344.738 659.963 o
    347.262 659.703 o
    350 659 o
    352.257 658.001 o
    354.743 656.999 o
    357 656 o
    358.998 654.705 o
    361.002 652.961 o
    363 651 [
    468 538 ]
    469.258 536.261 o
    470.742 534.739 o
    472 533 o
    472.999 530.743 o
    474.001 528.257 o
    475 526 o
    475.703 523.743 o
    475.963 521.257 o
    476 519 [
    477 197 v
    477 193 o
    477 189 o
    476.963 187.742 o
    476.703 186.258 o
    476 185 o
    475.26 184.001 o
    474.74 182.999 o
    474 182 o
    472.705 180.002 o
    470.961 177.998 o
    469 176 [
    360 68 ]
    358.002 66.0389 o
    355.998 64.2947 o
    354 63 o
    348 60 o
    345.262 59.2967 o
    342.738 59.0369 o
    340 59 [
    199 59 ]
    196.743 59.0369 o
    194.257 59.2967 o
    192 60 o
    189.743 60.999 o
    187.257 62.001 o
    185 63 o
    184.001 63.7402 o
    182.999 64.2598 o
    182 65 o
    181.001 65.7402 o
    179.999 66.2598 o
    179 67 [
    67 172 ]
    65.0389 173.998 o
    63.2947 176.002 o
    62 178 o
    61.001 180.257 o
    59.999 182.743 o
    59 185 o
    58.2967 187.738 o
    58.0369 190.262 o
    58 193 [
    60 515 v
    60 519 o
    60.2588 519.999 o
    60.7412 521.001 o
    61 522 o
    61.2588 523.258 o
    61.7412 524.742 o
    62 526 o
    62.0369 526.999 o
    62.2967 528.001 o
    63 529 o
    64.2578 530.739 o
    65.7422 532.261 o
    67 534 [
    0 0 z
  EndSpiro
117 504 m 1
 117 205 l 1
 210 116 l 1
 328 116 l 1
 420 208 l 1
 420 507 l 1
 330 603 l 1
 208 603 l 1
 117 504 l 1
  Spiro
    117 504 v
    115 205 v
    210 116 v
    328 116 v
    420 208 v
    418 507 v
    330 603 v
    208 603 v
    0 0 z
  EndSpiro
EndSplineSet
Validated: 1
EndChar

StartChar: one
Encoding: 49 49 33
Width: 536
VWidth: 0
Flags: W
HStem: 49 21G<241 298> 470 21G<130.462 171.348>
VStem: 241 57<49 562>
LayerCount: 2
Back
Fore
SplineSet
249 653 m 2
 255 659 262 663 269 663 c 0
 273 663 276 661 280 659 c 0
 292 654 298 646 298 633 c 2
 298 49 l 1
 241 49 l 1
 241 562 l 1
 152 470 l 1
 110 509 l 1
 249 653 l 2
EndSplineSet
Validated: 1
EndChar

StartChar: two
Encoding: 50 50 34
Width: 536
VWidth: 0
InSpiro: 1
Flags: W
HStem: 52 54<151 488> 476 21G<64 118> 602 54<223 391>
VStem: 64 54<476 497> 428 56<457 558>
LayerCount: 2
Back
Fore
SplineSet
488 106 m 1
 488 52 l 1
 84 52 l 0
 69 52 56 64 56 79 c 0
 56 87 61 96 64 99 c 0
 428 457 l 1
 428 558 l 1
 391 602 l 1
 223 602 l 1
 118 497 l 1
 118 476 l 1
 64 476 l 1
 64 508 l 0
 64 514 66 522 72 527 c 0
 193 648 l 0
 197 653 205 656 212 656 c 0
 404 656 l 0
 412 656 420 653 425 647 c 0
 477 586 l 0
 481 581 484 575 484 568 c 0
 484 445 l 0
 484 439 481 431 475 425 c 0
 151 106 l 1
 488 106 l 1
  Spiro
    488 106.5 v
    488 51.5 v
    84 51.5 [
    70.2253 55.2938 o
    60.2938 65.2253 o
    56.5 79 o
    57.9349 86.8644 o
    61.2038 93.9006 o
    64.7133 98.6029 ]
    428.5 456.522 v
    428.5 557.869 v
    391.307 601.5 v
    223.391 601.5 v
    118.5 496.609 v
    118.5 476 v
    63.5 476 v
    63.5 508 [
    64.4188 514.559 o
    67.1348 521.422 o
    71.5546 527.445 o
    192.555 648.445 o
    197.842 652.434 o
    204.615 655.366 o
    212 656.5 o
    404 656.5 o
    411.612 655.365 o
    418.858 652.074 o
    424.928 646.84 o
    476.928 585.84 o
    480.405 580.59 o
    482.686 574.483 o
    483.5 568 o
    483.5 445 o
    482.561 438.337 o
    479.789 431.433 o
    475.287 425.397 ]
    151.162 106.5 v
    0 0 z
  EndSpiro
EndSplineSet
Validated: 1
EndChar

StartChar: three
Encoding: 51 51 35
Width: 536
VWidth: 0
InSpiro: 1
Flags: W
HStem: 51 57<154 317> 603 56<115 422>
VStem: 412 57<210 262> 422 58<583 603>
LayerCount: 2
Back
Fore
SplineSet
480 659 m 1xd0
 480 603 l 1
 480 572 l 2xd0
 480 569 479 567 478 564 c 0
 477 562 476 559 475 557 c 0
 474 555 472 553 470 551 c 2
 332 413 l 2
 333 413 335 413 336 413 c 0
 337 413 339 413 340 412 c 0
 341 411 342 411 343 410 c 0
 344 409 345 409 346 408 c 0
 347 407 348 407 349 406 c 2
 461 294 l 2
 462 293 462 292 463 291 c 0
 464 290 465 289 465 288 c 0
 466 286 467 283 468 281 c 0
 469 279 469 276 469 274 c 2
 469 198 l 2
 469 197 469 195 469 194 c 0
 469 193 468 192 468 191 c 0
 467 189 467 187 466 185 c 0
 465 184 465 183 464 182 c 0
 463 181 462 180 461 179 c 2
 351 60 l 2
 349 58 347 56 345 55 c 0
 343 54 340 52 338 51 c 0
 335 50 333 51 330 51 c 2
 141 51 l 2
 138 51 136 50 133 51 c 0
 131 52 128 54 126 55 c 0
 125 56 123 56 122 57 c 0
 121 58 120 59 119 60 c 2
 58 129 l 1
 101 167 l 1
 154 108 l 1
 317 108 l 1
 412 210 l 1
 412 262 l 1xe0
 317 357 l 1
 264 357 l 2
 262 357 260 357 258 357 c 0
 256 357 255 358 253 359 c 0
 250 360 247 363 244 365 c 0
 241 368 239 371 237 374 c 0
 235 377 235 381 235 385 c 0
 235 389 236 393 237 396 c 0
 238 398 239 399 240 401 c 0
 241 403 243 405 244 406 c 2
 422 583 l 1
 422 603 l 1
 115 603 l 1
 115 659 l 1
 480 659 l 1xd0
  Spiro
    480 660 v
    480 603 v
    479 572 ]
    478.963 569.262 o
    478.703 566.738 o
    478 564 o
    477.001 561.743 o
    475.999 559.257 o
    475 557 o
    473.705 555.002 o
    471.961 552.998 o
    470 551 [
    332 413 v
    336 413 o
    337.258 412.963 o
    338.742 412.703 o
    340 412 o
    340.999 411.26 o
    342.001 410.74 o
    343 410 o
    343.999 409.26 o
    345.001 408.74 o
    346 408 o
    346.999 407.26 o
    348.001 406.74 o
    349 406 [
    461 294 ]
    461.74 293.001 o
    462.26 291.999 o
    463 291 o
    463.962 290.001 o
    464.704 288.999 o
    465 288 o
    465.999 285.743 o
    467.001 283.257 o
    468 281 o
    468.703 278.743 o
    468.963 276.257 o
    469 274 [
    469 198 v
    469 194 o
    468.741 193.001 o
    468.259 191.999 o
    468 191 o
    467.26 189.002 o
    466.74 186.998 o
    466 185 o
    465.26 184.001 o
    464.74 182.999 o
    464 182 o
    461 179 v
    351 60 ]
    349.002 58.0389 o
    346.998 56.2947 o
    345 55 o
    342.743 54.001 o
    340.257 52.999 o
    338 52 o
    335.262 51.2967 o
    332.738 51.0369 o
    330 51 [
    141 51 ]
    138.262 51.0369 o
    135.738 51.2967 o
    133 52 o
    130.743 52.999 o
    128.257 54.001 o
    126 55 o
    124.742 55.7402 o
    123.258 56.2598 o
    122 57 o
    119 60 v
    58 129 v
    101 167 v
    154 108 v
    317 108 v
    412 210 v
    412 262 v
    317 357 v
    264 357 v
    258 357 o
    256.261 357.296 o
    254.739 358.038 o
    253 359 o
    250.003 360.554 o
    246.997 362.78 o
    244 365 o
    241.299 367.997 o
    239.035 371.003 o
    237 374 o
    235.593 377.293 o
    235.074 381.041 o
    235 385 o
    235.296 388.959 o
    236.038 392.707 o
    237 396 o
    237.999 397.739 o
    239.001 399.261 o
    240 401 o
    241.258 402.961 o
    242.742 404.705 o
    244 406 [
    421 583 v
    422 603 v
    115 603 v
    115 660 v
    0 0 z
  EndSpiro
EndSplineSet
Validated: 1
EndChar

StartChar: four
Encoding: 52 52 36
Width: 536
VWidth: 0
InSpiro: 1
Flags: W
HStem: 49 21G<360 417> 238 57<113 360 417 481> 603 56<335 360>
VStem: 56 57<295 383> 360 56<49 238 295 603>
LayerCount: 2
Back
Fore
SplineSet
360 603 m 1
 335 603 l 1
 113 383 l 1
 113 295 l 1
 360 295 l 1
 360 603 l 1
162 238 m 1
 84 238 l 2
 82 238 79 237 77 238 c 0
 75 239 72 241 70 242 c 0
 66 245 63 248 60 252 c 0
 59 254 57 256 56 259 c 0
 55 262 56 264 56 267 c 2
 56 395 l 2
 56 397 55 400 56 402 c 0
 57 404 59 407 60 409 c 0
 60 410 61 411 62 412 c 0
 63 413 63 414 64 415 c 2
 304 652 l 2
 305 653 306 653 307 654 c 0
 308 655 309 656 310 656 c 0
 312 657 315 658 317 659 c 0
 319 660 322 659 324 659 c 2
 388 659 l 2
 391 659 393 660 396 659 c 0
 399 658 401 656 403 655 c 0
 407 653 411 649 413 645 c 0
 414 643 416 641 416 638 c 0
 416 635 416 633 416 630 c 2
 416 295 l 1
 481 295 l 1
 481 238 l 1
 417 238 l 1
 417 49 l 1
 360 49 l 1
 360 238 l 1
 162 238 l 1
EndSplineSet
Validated: 1
EndChar

StartChar: five
Encoding: 53 53 37
Width: 536
VWidth: 0
InSpiro: 1
Flags: W
HStem: 50 57<54 324> 418 57<115 326> 598 61<115 481>
VStem: 54 61<475 598> 422 55<206 322>
LayerCount: 2
Back
Fore
SplineSet
54 659 m 1
 481 659 l 1
 481 598 l 1
 115 598 l 1
 115 475 l 1
 338 475 l 2
 341 475 343 475 346 474 c 0
 348 473 351 471 353 470 c 0
 355 469 357 468 359 466 c 2
 469 354 l 2
 471 352 473 350 474 348 c 0
 475 347 475 346 476 345 c 0
 477 344 477 342 477 341 c 0
 477 340 477 339 477 338 c 0
 477 337 477 335 477 334 c 2
 477 195 l 2
 477 194 479 192 479 191 c 0
 479 190 479 188 479 187 c 0
 479 186 479 185 478 184 c 0
 477 183 477 182 476 181 c 0
 475 180 475 178 474 177 c 0
 473 176 472 175 471 174 c 2
 357 58 l 2
 355 56 353 54 351 53 c 0
 350 52 349 51 348 50 c 0
 347 49 345 50 344 50 c 0
 343 50 341 50 340 50 c 0
 339 50 337 50 336 50 c 2
 54 50 l 1
 54 107 l 1
 324 107 l 1
 422 206 l 1
 422 322 l 1
 326 418 l 1
 54 418 l 1
 54 659 l 1
EndSplineSet
Validated: 1
EndChar

StartChar: six
Encoding: 54 54 38
Width: 536
VWidth: 0
InSpiro: 1
Flags: W
HStem: 54 58<207 327> 355 59<206 331>
VStem: 56 57<202 262 344 506> 420 57<204 265>
LayerCount: 2
Back
Fore
SplineSet
113 344 m 1
 174 403 l 2
 176 405 178 407 180 408 c 0
 182 409 184 410 186 411 c 0
 189 412 191 414 194 414 c 2
 338 414 l 2
 340 414 343 414 345 413 c 0
 347 412 350 411 352 410 c 0
 353 410 354 409 355 408 c 0
 356 407 357 407 358 406 c 2
 469 297 l 2
 471 295 473 293 474 291 c 0
 475 290 475 289 476 288 c 0
 477 287 477 285 477 284 c 0
 477 283 477 282 477 281 c 0
 477 280 477 278 477 277 c 2
 477 192 l 2
 477 191 477 189 477 188 c 0
 477 187 477 185 477 184 c 0
 477 183 477 181 476 180 c 0
 475 179 475 178 474 177 c 0
 473 175 471 173 469 171 c 2
 358 63 l 2
 356 61 354 59 352 58 c 0
 350 57 348 55 346 54 c 0
 343 53 341 54 338 54 c 2
 195 54 l 2
 193 54 190 53 188 54 c 0
 186 55 183 57 181 58 c 0
 179 59 177 61 175 63 c 2
 68 169 l 2
 66 171 65 172 64 174 c 0
 63 176 61 179 60 181 c 0
 59 183 56 186 56 188 c 2
 56 518 l 2
 56 521 55 524 56 527 c 0
 57 529 59 532 60 534 c 0
 61 536 63 538 65 540 c 2
 191 654 l 1
 228 611 l 1
 113 506 l 1
 113 344 l 1
207 112 m 1
 327 112 l 1
 420 204 l 1
 420 265 l 1
 331 355 l 1
 206 355 l 1
 114 262 l 1
 114 202 l 1
 207 112 l 1
EndSplineSet
Validated: 1
EndChar

StartChar: seven
Encoding: 55 55 39
Width: 536
VWidth: 0
InSpiro: 1
Flags: W
HStem: 49 21G<177 234> 598 61<54 420>
VStem: 177 57<49 315> 420 58<583 598>
LayerCount: 2
Back
Fore
SplineSet
478 572 m 2
 478 571 478 569 478 568 c 0
 478 567 478 565 478 564 c 0
 478 563 478 561 477 560 c 0
 476 559 476 558 475 557 c 0
 474 555 472 553 470 551 c 2
 234 315 l 1
 234 49 l 1
 177 49 l 1
 177 327 l 2
 177 328 177 330 177 331 c 0
 177 332 177 334 177 335 c 0
 178 337 180 339 181 341 c 0
 182 342 182 343 183 344 c 0
 184 345 184 346 185 347 c 2
 420 583 l 1
 420 598 l 1
 54 598 l 1
 54 659 l 1
 478 659 l 1
 478 572 l 2
EndSplineSet
Validated: 1
EndChar

StartChar: eight
Encoding: 56 56 40
Width: 536
VWidth: 0
Flags: W
HStem: 55 55<216 318> 363 56<220 318> 602 57<218 318>
VStem: 57 60<213 254> 117 59<458 554> 359 59<458 560> 421 58<214 254>
LayerCount: 2
Back
Fore
SplineSet
126 583 m 2xee
 183 649 l 2
 185 651 187 652 189 654 c 0
 191 655 193 658 196 659 c 0
 199 660 202 659 205 659 c 2
 330 659 l 2
 333 659 335 660 338 659 c 0
 340 658 344 657 346 656 c 0
 348 655 349 653 351 651 c 2
 409 591 l 2
 411 589 413 587 414 585 c 0
 415 583 416 580 417 578 c 0
 418 576 418 574 418 571 c 2
 418 446 l 2
 418 443 417 440 416 438 c 0
 415 436 414 434 413 432 c 0
 412 430 410 428 408 426 c 2
 372 392 l 1
 472 285 l 2
 474 283 475 280 476 278 c 0
 477 276 477 273 478 271 c 0
 479 268 479 268 479 265 c 2
 479 200 l 2
 479 198 477 195 476 193 c 0
 475 191 474 189 473 187 c 0
 472 185 472 183 470 181 c 2
 349 62 l 2
 347 60 346 56 344 55 c 0
 342 54 339 56 337 55 c 0
 334 54 333 55 330 55 c 2
 204 55 l 2
 201 55 198 54 196 55 c 0
 194 56 191 58 189 59 c 0
 187 60 185 60 183 62 c 2
 66 181 l 2
 64 183 62 186 61 188 c 0
 60 190 58 192 57 194 c 0
 56 197 57 198 57 201 c 2
 57 266 l 2
 57 268 56 270 57 272 c 0xf6
 58 274 61 277 62 279 c 0
 63 281 65 283 67 285 c 2
 165 390 l 1
 127 424 l 2
 125 426 122 428 121 430 c 0
 120 432 118 435 117 438 c 0
 116 441 117 443 117 446 c 2
 117 565 l 2
 117 567 119 569 120 571 c 0
 121 573 121 576 122 578 c 0
 123 580 124 581 126 583 c 2xee
117 254 m 1
 117 213 l 1
 216 110 l 1
 318 110 l 1
 421 214 l 1
 421 254 l 1
 318 363 l 1
 220 363 l 1
 117 254 l 1
176 554 m 1xee
 176 458 l 1
 219 419 l 1
 319 419 l 1
 359 458 l 1
 359 560 l 1
 318 602 l 1
 218 602 l 1
 176 554 l 1xee
EndSplineSet
Validated: 1
EndChar

StartChar: nine
Encoding: 57 57 41
Width: 536
VWidth: 0
InSpiro: 1
Flags: W
HStem: 294 57<152 259> 603 56<213 377>
VStem: 52 59<403 498> 420 56<149 437 503 558>
LayerCount: 2
Back
Fore
SplineSet
111 498 m 1
 111 403 l 1
 152 351 l 1
 259 351 l 1
 420 503 l 1
 420 558 l 1
 377 603 l 1
 213 603 l 1
 111 498 l 1
181 650 m 2
 182 652 184 653 186 654 c 0
 188 655 191 658 193 659 c 0
 196 660 198 659 201 659 c 2
 389 659 l 2
 392 659 395 660 398 659 c 0
 400 658 403 657 405 656 c 0
 407 655 409 653 411 651 c 2
 468 588 l 2
 469 587 469 586 470 585 c 0
 471 584 471 583 472 582 c 0
 473 580 474 577 475 575 c 0
 476 573 476 570 476 568 c 2
 476 137 l 2
 476 135 476 132 475 130 c 0
 474 128 473 125 472 123 c 0
 471 121 469 120 468 118 c 2
 406 53 l 2
 404 51 402 49 400 48 c 0
 398 47 396 46 393 45 c 0
 388 44 383 44 378 45 c 0
 373 46 369 49 365 52 c 0
 361 55 358 60 357 65 c 0
 356 70 356 74 357 79 c 0
 357 81 358 84 359 86 c 0
 360 88 362 90 364 92 c 2
 420 149 l 1
 420 437 l 1
 290 302 l 2
 288 300 286 298 284 297 c 0
 282 296 280 295 278 294 c 0
 277 294 276 294 275 294 c 0
 274 294 272 294 271 294 c 2
 138 294 l 2
 135 294 132 293 129 294 c 0
 127 295 124 297 122 298 c 0
 120 300 118 302 116 304 c 2
 59 375 l 2
 57 377 56 379 55 381 c 0
 54 383 53 385 52 387 c 0
 52 388 52 389 52 390 c 0
 52 391 52 392 52 393 c 2
 52 510 l 2
 52 513 54 515 55 518 c 0
 55 520 56 522 57 524 c 0
 58 526 60 528 62 530 c 2
 181 650 l 2
EndSplineSet
Validated: 1
EndChar

StartChar: germandbls
Encoding: 223 223 42
Width: 536
VWidth: 0
InSpiro: 1
Flags: W
HStem: 49 21G<55 111> 53 59<278 381> 601 58<215 259>
VStem: 55 56<49 503> 300 57<519 558> 422 57<152 251>
LayerCount: 2
Back
Fore
SplineSet
55 515 m 2xbc
 55 518 54 520 55 523 c 0
 56 525 57 528 58 530 c 0
 59 532 61 534 63 536 c 2
 184 650 l 2
 185 651 186 652 187 653 c 0
 188 654 189 654 190 655 c 0
 192 656 194 659 196 659 c 0
 197 659 199 659 200 659 c 0
 201 659 203 659 204 659 c 2
 271 659 l 2
 274 659 276 660 279 659 c 0
 281 658 284 655 286 654 c 0
 288 653 290 651 292 649 c 2
 349 589 l 2
 350 588 351 587 352 586 c 0
 353 585 353 584 354 583 c 0
 355 581 356 579 356 577 c 0
 356 576 357 574 357 573 c 0
 357 572 357 570 357 569 c 2
 357 507 l 2
 357 506 357 504 357 503 c 0
 357 502 356 501 356 500 c 0
 356 499 355 497 355 496 c 0
 355 495 355 494 354 493 c 0
 353 492 353 491 352 490 c 0
 351 489 350 489 349 488 c 2
 309 445 l 1
 471 283 l 2
 473 281 475 279 476 277 c 0
 477 275 478 273 478 271 c 0
 478 270 479 268 479 267 c 0
 479 266 479 264 479 263 c 2
 479 140 l 2
 479 137 478 135 477 132 c 0
 477 130 476 128 475 126 c 0
 474 124 472 122 470 120 c 2
 413 64 l 2
 411 62 409 60 407 59 c 0
 405 58 402 57 400 56 c 0
 398 55 395 53 393 53 c 2
 267 53 l 2
 266 53 264 53 263 53 c 0
 262 53 261 53 260 53 c 0
 258 54 255 56 253 57 c 0
 251 58 249 60 247 62 c 2
 186 122 l 1
 226 162 l 1
 278 112 l 1
 381 112 l 1x7c
 422 152 l 1
 422 251 l 1
 248 424 l 2
 246 426 244 428 243 430 c 0
 242 432 242 435 241 437 c 0
 240 439 240 442 240 444 c 0
 240 446 240 449 240 451 c 0
 240 454 242 456 243 458 c 0
 244 460 246 462 248 464 c 2
 300 519 l 1
 300 558 l 1
 259 601 l 1
 215 601 l 1
 111 503 l 1
 111 49 l 1
 55 49 l 1
 55 515 l 2xbc
EndSplineSet
Validated: 1
EndChar

StartChar: section
Encoding: 167 167 43
Width: 536
VWidth: 0
Flags: HMW
HStem: -71 60<116 258> 598 60<214 357>
LayerCount: 2
Back
Fore
SplineSet
332 126 m 1
 357 150 l 1
 357 251 l 1
 141 459 l 1
 116 437 l 1
 116 336 l 1
 332 126 l 1
357 73 m 1
 357 20 l 2
 357 17 357 15 357 12 c 1
 356 10 353 8 352 6 c 0
 351 4 350 2 348 0 c 2
 292 -61 l 2
 290 -63 288 -65 286 -66 c 0
 283 -67 281 -70 279 -71 c 0
 276 -72 273 -71 271 -71 c 2
 116 -71 l 1
 116 -11 l 1
 258 -11 l 1
 298 31 l 1
 298 79 l 1
 64 303 l 2
 62 305 60 307 59 309 c 0
 58 311 56 314 55 316 c 0
 54 319 55 322 55 324 c 2
 55 450 l 2
 55 453 57 455 58 458 c 0
 59 460 60 463 61 465 c 0
 63 467 65 468 67 470 c 2
 116 512 l 1
 116 565 l 2
 116 568 115 570 116 573 c 0
 116 575 118 577 119 579 c 0
 120 581 122 583 123 585 c 2
 180 646 l 2
 181 648 183 650 186 651 c 0
 188 652 190 653 193 654 c 0
 195 655 198 659 201 659 c 2
 357 659 l 1
 357 598 l 1
 214 598 l 1
 173 554 l 1
 173 508 l 1
 407 284 l 2
 409 282 411 280 412 278 c 0
 414 275 415 273 415 271 c 0
 416 268 416 265 416 263 c 2
 416 137 l 2
 416 134 414 131 413 129 c 0
 412 126 411 124 410 122 c 0
 409 120 407 118 405 116 c 2
 357 73 l 1
EndSplineSet
Validated: 1
EndChar

StartChar: numbersign
Encoding: 35 35 44
Width: 536
VWidth: 0
InSpiro: 1
Flags: W
HStem: 293 60<53 115 177 298 359 420> 476 61<53 115 177 298 359 420> 578 20G<115 177 298 359>
VStem: 115 62<232 293 354 476 537 598> 298 61<233 293 353 476 537 598>
LayerCount: 2
Back
Fore
SplineSet
298 476 m 1
 177 476 l 1
 177 353 l 1
 298 353 l 1
 298 476 l 1
  Spiro
    298 476 v
    177 476 v
    177 353 v
    298 353 v
    0 0 z
  EndSpiro
115 598 m 1
 177 598 l 1
 177 537 l 1
 298 537 l 1
 298 598 l 1
 359 598 l 1
 359 536 l 1
 420 536 l 1
 420 476 l 1
 359 476 l 1
 359 353 l 1
 420 353 l 1
 420 293 l 1
 359 293 l 1
 359 233 l 1
 298 233 l 1
 298 293 l 1
 177 293 l 1
 177 232 l 1
 115 232 l 1
 115 293 l 1
 53 293 l 1
 53 354 l 1
 115 354 l 1
 115 476 l 1
 53 476 l 1
 53 537 l 1
 115 537 l 1
 115 598 l 1
  Spiro
    115 598 v
    177 598 v
    177 537 v
    298 537 v
    298 598 v
    359 598 v
    359 536 v
    420 536 v
    420 476 v
    359 476 v
    359 353 v
    420 353 v
    420 293 v
    359 293 v
    359 233 v
    298 233 v
    298 293 v
    177 293 v
    177 232 v
    115 232 v
    115 293 v
    53 293 v
    53 354 v
    115 354 v
    115 476 v
    53 476 v
    53 537 v
    115 537 v
    0 0 z
  EndSpiro
EndSplineSet
Validated: 1
EndChar

StartChar: at
Encoding: 64 64 45
Width: 536
VWidth: 0
InSpiro: 1
Flags: HMW
HStem: 50 60<164 487> 293 60<246 303 363 384> 598 61<164 385>
VStem: 63 60<151 557> 427 60<395 557>
LayerCount: 2
Back
Fore
SplineSet
487 110 m 1
 487 50 l 1
 152 50 l 0
 144 50 135 54 131 59 c 0
 72 118 l 0
 66 124 63 132 63 139 c 0
 63 569 l 0
 63 577 67 586 72 590 c 0
 131 649 l 0
 136 655 145 659 152 659 c 0
 398 659 l 0
 406 659 414 654 419 649 c 0
 478 590 l 0
 484 584 487 576 487 569 c 0
 487 383 l 0
 487 375 483 366 478 362 c 0
 418 302 l 0
 412 296 403 293 397 293 c 0
 216 293 l 0
 199 293 186 307 186 323 c 0
 186 386 l 0
 186 394 190 403 195 407 c 0
 256 470 l 0
 261 476 270 483 277 483 c 0
 333 483 l 0
 349 483 363 463 363 447 c 0
 363 353 l 1
 384 353 l 1
 427 395 l 1
 427 557 l 1
 385 598 l 1
 164 598 l 1
 123 557 l 1
 123 151 l 1
 164 110 l 1
 487 110 l 1
  Spiro
    486.778 110 v
    486.778 50 v
    151.778 50 [
    143.722 51.2374 o
    136.333 54.436 o
    130.565 58.7868 o
    71.5646 117.787 o
    66.743 124.358 o
    63.7801 131.845 o
    62.7778 139 o
    62.7778 569 o
    64.0151 577.056 o
    67.2137 584.445 o
    71.5646 590.213 o
    130.565 649.213 o
    137.136 654.035 o
    144.622 656.998 o
    151.778 658 o
    397.778 658 o
    405.834 656.763 o
    413.223 653.564 o
    418.991 649.213 o
    477.991 590.213 o
    482.813 583.642 o
    485.775 576.155 o
    486.778 569 o
    486.778 383 o
    485.54 374.944 o
    482.342 367.555 o
    477.991 361.787 o
    417.991 301.787 o
    411.419 296.965 o
    403.933 294.002 o
    396.778 293 o
    215.778 293 o
    200.751 297.139 o
    189.916 307.973 o
    185.778 323 o
    185.778 386 o
    187.015 394.056 o
    190.214 401.445 o
    194.565 407.213 o
    255.565 468.213 o
    262.136 473.035 o
    269.622 475.998 o
    276.778 477 o
    332.778 477 o
    347.805 472.861 o
    358.639 462.027 o
    362.778 447 ]
    362.778 353 v
    384.351 353 v
    426.778 395.426 v
    426.778 556.574 v
    385.351 598 v
    164.204 598 v
    122.778 556.574 v
    122.778 151.426 v
    164.204 110 v
    0 0 z
  EndSpiro
303 353 m 1
 303 417 l 1
 289 417 l 1
 246 374 l 1
 246 353 l 1
 303 353 l 1
  Spiro
    302.778 353 v
    302.778 417 v
    289.204 417 v
    245.778 373.574 v
    245.778 353 v
    0 0 z
  EndSpiro
EndSplineSet
Validated: 1
EndChar

StartChar: percent
Encoding: 37 37 46
Width: 536
VWidth: 0
InSpiro: 1
Flags: HMW
LayerCount: 2
Back
Fore
SplineSet
70 118 m 0
 64 124 61 131 61 139 c 0
 61 147 64 154 70 160 c 0
 435 525 l 0
 440 531 448 534 456 534 c 0
 463 534 471 531 477 525 c 0
 483 520 486 512 486 504 c 0
 486 496 483 488 477 483 c 0
 112 118 l 0
 106 112 98 109 91 109 c 0
 83 109 76 112 70 118 c 0
  Spiro
    69.5646 117.787 o
    61.8654 131.339 o
    61.8654 146.661 o
    69.5646 160.213 o
    434.565 525.213 o
    448.117 532.912 o
    463.439 532.912 o
    476.991 525.213 o
    484.69 511.661 o
    484.69 496.339 o
    476.991 482.787 o
    111.991 117.787 o
    98.4389 110.088 o
    83.1167 110.088 o
    0 0 z
  EndSpiro
360 81 m 0
 360 61 375 45 395 45 c 0
 414 45 430 61 430 81 c 0
 430 101 414 115 395 115 c 0
 375 115 360 101 360 81 c 0
  Spiro
    364.672 62.9127 o
    377.255 49.97 o
    394.9 45.062 o
    412.545 49.97 o
    425.129 62.9127 o
    429.9 81.062 o
    425.129 99.2113 o
    412.545 112.154 o
    394.9 117.062 o
    377.255 112.154 o
    364.672 99.2113 o
    359.9 81.062 o
    0 0 z
  EndSpiro
303 80 m 0
 303 131 344 173 394 173 c 0
 444 173 485 131 485 80 c 0
 485 29 444 -13 394 -13 c 0
 344 -13 303 29 303 80 c 0
  Spiro
    302.9 80.062 o
    315.306 126.797 o
    348.023 160.124 o
    393.9 172.762 o
    439.778 160.124 o
    472.494 126.797 o
    484.9 80.062 o
    472.494 33.3275 o
    439.778 8.52036e-07 o
    393.9 -12.638 o
    348.023 8.52036e-07 o
    315.306 33.3275 o
    0 0 z
  EndSpiro
117 564 m 0
 117 544 132 528 152 528 c 0
 171 528 187 544 187 564 c 0
 187 584 171 598 152 598 c 0
 132 598 117 584 117 564 c 0
  Spiro
    121.549 545.851 o
    134.133 532.908 o
    151.778 528 o
    169.423 532.908 o
    182.006 545.851 o
    186.778 564 o
    182.006 582.149 o
    169.423 595.092 o
    151.778 600 o
    134.133 595.092 o
    121.549 582.149 o
    116.778 564 o
    0 0 z
  EndSpiro
60 563 m 0
 60 614 101 656 151 656 c 0
 201 656 242 614 242 563 c 0
 242 512 201 470 151 470 c 0
 101 470 60 512 60 563 c 0
  Spiro
    59.7777 563 o
    72.184 609.735 o
    104.9 643.062 o
    150.778 655.7 o
    196.655 643.062 o
    229.372 609.735 o
    241.778 563 o
    229.372 516.265 o
    196.655 482.938 o
    150.778 470.3 o
    104.9 482.938 o
    72.184 516.265 o
    0 0 z
  EndSpiro
EndSplineSet
Validated: 1
EndChar

StartChar: underscore
Encoding: 95 95 47
Width: 536
VWidth: 0
Flags: W
HStem: -13 62<54 481>
LayerCount: 2
Back
Fore
SplineSet
54 49 m 1
 481 49 l 1
 481 -13 l 1
 54 -13 l 1
 54 49 l 1
EndSplineSet
Validated: 1
EndChar

StartChar: ampersand
Encoding: 38 38 48
Width: 536
VWidth: 0
InSpiro: 1
Flags: W
HStem: 53 57<155 256> 298 62<141 177> 538 56<155 198>
VStem: 60 56<152 259 393 496> 177 56<275 298> 237 57<398 498>
LayerCount: 2
Back
Fore
SplineSet
186 242 m 2
 184 244 182 245 181 247 c 0
 180 249 178 251 177 253 c 0
 176 255 177 258 177 260 c 2
 177 298 l 1
 141 298 l 1
 114 259 l 1
 114 152 l 1
 155 110 l 1
 256 110 l 1
 287 141 l 1
 186 242 l 2
65 368 m 2
 64 370 61 371 60 373 c 0
 60 374 60 374 60 375 c 0
 60 376 60 377 60 378 c 0
 60 379 60 380 60 381 c 0
 60 382 60 383 60 384 c 2
 60 507 l 2
 60 508 60 510 60 511 c 0
 60 512 60 513 60 514 c 0
 60 515 60 517 60 518 c 0
 60 519 59 520 60 521 c 0
 61 522 63 523 64 524 c 0
 65 525 66 526 67 527 c 2
 122 586 l 2
 124 588 126 590 128 591 c 0
 130 592 133 593 135 594 c 0
 138 595 140 594 143 594 c 2
 210 594 l 2
 212 594 215 594 217 593 c 0
 219 592 222 591 224 590 c 0
 225 589 226 589 227 588 c 0
 228 587 229 587 230 586 c 2
 286 531 l 2
 287 530 287 529 288 528 c 0
 289 527 290 526 290 525 c 0
 291 523 292 520 293 518 c 0
 294 516 294 513 294 511 c 2
 294 387 l 2
 294 386 297 384 297 383 c 0
 297 382 296 380 296 379 c 0
 295 377 295 374 294 372 c 0
 293 371 293 370 292 369 c 0
 291 368 290 367 289 366 c 2
 233 309 l 1
 233 275 l 1
 328 182 l 1
 433 286 l 1
 474 246 l 1
 368 141 l 1
 471 39 l 1
 431 0 l 1
 328 101 l 1
 288 61 l 2
 286 59 284 57 282 56 c 0
 280 55 277 54 275 53 c 0
 272 52 270 53 267 53 c 2
 143 53 l 2
 141 53 138 52 136 53 c 0
 134 54 132 56 130 57 c 0
 129 58 128 58 127 59 c 0
 126 60 125 60 124 61 c 2
 64 120 l 2
 62 122 61 124 60 126 c 0
 59 128 57 131 56 133 c 0
 55 136 57 138 57 141 c 2
 57 268 l 2
 57 269 57 270 57 271 c 0
 57 272 57 273 57 274 c 0
 57 275 60 276 60 277 c 0
 60 278 60 278 60 279 c 0
 61 281 59 282 60 284 c 2
 92 328 l 1
 65 368 l 2
237 398 m 1
 237 498 l 1
 198 538 l 1
 155 538 l 1
 116 496 l 1
 116 393 l 1
 139 360 l 1
 201 360 l 1
 237 398 l 1
EndSplineSet
Validated: 1
EndChar

StartChar: period
Encoding: 46 46 50
Width: 536
VWidth: 0
Flags: W
HStem: 49 122<177 298>
VStem: 177 121<49 171>
LayerCount: 2
Back
Fore
SplineSet
177 171 m 1
 298 171 l 1
 298 49 l 1
 177 49 l 1
 177 171 l 1
EndSplineSet
Validated: 1
EndChar

StartChar: comma
Encoding: 44 44 51
Width: 536
VWidth: 0
InSpiro: 1
Flags: W
HStem: -71 242
VStem: 237 121<107 171>
LayerCount: 2
Back
Fore
SplineSet
358 83 m 2
 358 80 359 78 359 75 c 0
 359 72 358 70 357 68 c 0
 355 64 353 60 351 56 c 0
 350 54 349 52 348 50 c 0
 347 48 345 46 343 44 c 2
 227 -71 l 1
 144 8 l 1
 237 107 l 1
 237 171 l 1
 358 171 l 1
 358 83 l 2
EndSplineSet
Validated: 1
EndChar

StartChar: colon
Encoding: 58 58 52
Width: 536
VWidth: 0
Flags: W
HStem: 49 122<177 298> 293 122<177 298>
VStem: 177 121<49 171 293 415>
LayerCount: 2
Back
Fore
SplineSet
177 415 m 1
 298 415 l 1
 298 293 l 1
 177 293 l 1
 177 415 l 1
177 171 m 1
 298 171 l 1
 298 49 l 1
 177 49 l 1
 177 171 l 1
EndSplineSet
Validated: 1
EndChar

StartChar: plus
Encoding: 43 43 53
Width: 536
VWidth: 0
Flags: W
HStem: 293 61<54 237 298 481>
VStem: 237 61<109 293 354 537>
LayerCount: 2
Back
Fore
SplineSet
237 537 m 1
 298 537 l 1
 298 354 l 1
 481 354 l 1
 481 293 l 1
 298 293 l 1
 298 109 l 1
 237 109 l 1
 237 293 l 1
 54 293 l 1
 54 354 l 1
 237 354 l 1
 237 537 l 1
EndSplineSet
Validated: 1
EndChar

StartChar: logicalnot
Encoding: 172 172 54
Width: 536
VWidth: 0
Flags: W
HStem: 537 61<54 421>
VStem: 421 60<415 537>
LayerCount: 2
Back
Fore
SplineSet
54 598 m 1
 481 598 l 1
 481 415 l 1
 421 415 l 1
 421 537 l 1
 54 537 l 1
 54 598 l 1
EndSplineSet
Validated: 1
EndChar

StartChar: macron
Encoding: 175 175 55
Width: 536
VWidth: 0
Flags: W
HStem: 598 61<54 481>
LayerCount: 2
Back
Fore
SplineSet
54 659 m 1
 481 659 l 1
 481 598 l 1
 54 598 l 1
 54 659 l 1
EndSplineSet
Validated: 1
EndChar

StartChar: degree
Encoding: 176 176 56
Width: 536
VWidth: 0
Flags: W
HStem: 417 57<193.249 282.751> 603 56<193.739 282.261>
VStem: 120 57<490.318 587.312> 299 57<490.318 587.312>
LayerCount: 2
Back
Fore
SplineSet
238 659 m 0
 304 659 356 604 356 538 c 0
 356 472 304 417 238 417 c 0
 172 417 120 472 120 538 c 0
 120 604 172 659 238 659 c 0
177 538 m 0
 177 502 205 474 238 474 c 0
 271 474 299 502 299 538 c 0
 299 574 271 603 238 603 c 0
 205 603 177 574 177 538 c 0
EndSplineSet
Validated: 1
EndChar

StartChar: periodcentered
Encoding: 183 183 57
Width: 536
VWidth: 0
Flags: W
HStem: 231 123<177 298>
VStem: 177 121<231 354>
LayerCount: 2
Back
Fore
SplineSet
177 354 m 1
 298 354 l 1
 298 231 l 1
 177 231 l 1
 177 354 l 1
EndSplineSet
Validated: 1
EndChar

StartChar: asciicircum
Encoding: 94 94 58
Width: 536
VWidth: 0
InSpiro: 1
Flags: W
HStem: 487 172
VStem: 124 286
LayerCount: 2
Back
Fore
SplineSet
247 650 m 2
 249 652 251 654 253 655 c 0
 255 656 257 658 260 659 c 0
 265 660 269 660 274 659 c 0
 277 658 279 656 281 655 c 0
 283 654 285 652 287 650 c 2
 410 528 l 1
 370 487 l 1
 267 589 l 1
 165 487 l 1
 124 528 l 1
 247 650 l 2
  Spiro
    247 650 ]
    248.998 651.961 o
    251.002 653.705 o
    253 655 o
    255.035 656.258 o
    257.299 657.742 o
    260 659 o
    264.736 659.666 o
    269.264 659.666 o
    274 659 o
    276.701 657.742 o
    278.965 656.258 o
    281 655 o
    282.998 653.705 o
    285.002 651.961 o
    287 650 [
    410 528 v
    370 487 v
    267 589 v
    165 487 v
    124 528 v
    0 0 z
  EndSpiro
EndSplineSet
Validated: 1
EndChar

StartChar: asciitilde
Encoding: 126 126 59
Width: 536
VWidth: 0
InSpiro: 1
Flags: W
HStem: 478 57<340 380> 600 59<156 197>
LayerCount: 2
Back
Fore
SplineSet
125 649 m 2
 126 650 127 650 128 651 c 0
 129 652 130 652 131 653 c 0
 133 654 135 655 137 656 c 0
 139 657 142 659 144 659 c 2
 209 659 l 2
 212 659 214 660 217 659 c 0
 219 658 222 655 224 654 c 0
 226 653 228 651 230 649 c 2
 340 535 l 1
 380 535 l 1
 431 587 l 1
 472 547 l 1
 413 487 l 2
 411 485 409 483 407 482 c 0
 405 481 402 479 400 478 c 0
 397 477 395 478 392 478 c 2
 328 478 l 2
 326 478 323 477 321 478 c 0
 319 479 316 481 314 482 c 0
 312 483 310 485 308 487 c 2
 197 600 l 1
 156 600 l 1
 104 549 l 1
 64 590 l 1
 125 649 l 2
  Spiro
    125 649 ]
    125.999 649.74 o
    127.001 650.26 o
    128 651 o
    128.999 651.74 o
    130.001 652.26 o
    131 653 o
    137 656 o
    139.257 657.221 o
    141.743 658.445 o
    144 659 [
    209 659 ]
    211.738 659.222 o
    214.262 659.444 o
    217 659 o
    219.257 657.483 o
    221.743 655.517 o
    224 654 o
    225.998 652.705 o
    228.002 650.961 o
    230 649 [
    340 535 v
    380 535 v
    431 587 v
    472 547 v
    413 487 ]
    411.002 485.039 o
    408.998 483.295 o
    407 482 o
    404.743 480.742 o
    402.257 479.258 o
    400 478 o
    397.262 477.556 o
    394.738 477.778 o
    392 478 [
    328 478 ]
    325.743 477.778 o
    323.257 477.556 o
    321 478 o
    318.743 479.258 o
    316.257 480.742 o
    314 482 o
    312.002 483.295 o
    309.998 485.039 o
    308 487 [
    197 600 v
    156 600 v
    104 549 v
    64 590 v
    0 0 z
  EndSpiro
EndSplineSet
Validated: 1
EndChar

StartChar: dieresis
Encoding: 168 168 60
Width: 536
VWidth: 0
Flags: W
HStem: 598 61<114 177 298 360>
VStem: 114 63<598 659> 298 62<598 659>
LayerCount: 2
Back
Fore
SplineSet
114 659 m 1
 177 659 l 1
 177 598 l 1
 114 598 l 1
 114 659 l 1
298 659 m 1
 360 659 l 1
 360 598 l 1
 298 598 l 1
 298 659 l 1
EndSplineSet
Validated: 1
EndChar

StartChar: grave
Encoding: 96 96 61
Width: 536
VWidth: 0
InSpiro: 1
Flags: W
HStem: 481 175
VStem: 182 174
LayerCount: 2
Back
Fore
SplineSet
348 529 m 2
 350 527 352 525 353 523 c 0
 354 521 355 518 356 516 c 0
 357 511 357 506 356 501 c 0
 355 496 352 492 348 488 c 0
 345 485 341 482 336 481 c 0
 331 480 326 480 321 481 c 0
 319 481 316 480 314 481 c 0
 312 482 310 486 308 488 c 2
 187 608 l 2
 185 610 183 612 182 614 c 0
 181 616 182 619 182 621 c 0
 181 626 181 631 182 636 c 0
 183 641 183 645 187 649 c 0
 191 653 195 655 200 656 c 0
 205 657 210 657 215 656 c 0
 217 656 220 655 222 654 c 0
 224 653 226 651 228 649 c 2
 348 529 l 2
EndSplineSet
Validated: 1
EndChar

StartChar: acute
Encoding: 180 180 62
Width: 536
VWidth: 0
Flags: W
HStem: 477 182
VStem: 179 181
LayerCount: 2
Back
Fore
SplineSet
188 486 m 0
 182 492 179 500 179 507 c 0
 179 516 183 524 188 529 c 2
 308 650 l 2
 314 656 322 659 329 659 c 0
 338 659 346 655 351 650 c 0
 356 645 360 637 360 628 c 0
 360 621 357 613 351 607 c 2
 231 486 l 2
 226 481 218 477 209 477 c 0
 202 477 194 480 188 486 c 0
EndSplineSet
Validated: 1
EndChar

StartChar: cedilla
Encoding: 184 184 63
Width: 536
VWidth: 0
InSpiro: 1
Flags: W
HStem: -70 58<116 196>
VStem: 238 57<31 172>
LayerCount: 2
Back
Fore
SplineSet
295 19 m 2
 295 18 295 16 295 15 c 0
 295 14 294 13 294 12 c 0
 294 11 293 9 293 8 c 0
 293 7 293 6 292 5 c 0
 291 4 291 1 290 0 c 0
 289 -1 288 1 287 0 c 2
 229 -61 l 2
 227 -63 225 -65 223 -66 c 0
 221 -67 218 -69 216 -70 c 0
 214 -71 211 -70 209 -70 c 2
 116 -70 l 1
 116 -12 l 1
 196 -12 l 1
 238 31 l 1
 238 172 l 1
 295 172 l 1
 295 19 l 2
EndSplineSet
Validated: 1
EndChar

StartChar: igrave
Encoding: 236 236 66
Width: 536
VWidth: 0
InSpiro: 1
Flags: W
HStem: 49 21G<237 298> 456 20G<237 298> 540 175
VStem: 119 174 237 61<49 476>
LayerCount: 2
Back
Fore
SplineSet
237 476 m 1xe8
 298 476 l 1
 298 49 l 1
 237 49 l 1
 237 476 l 1xe8
  Spiro
    237 476 v
    298 476 v
    298 49 v
    237 49 v
    0 0 z
  EndSpiro
EndSplineSet
Refer: 61 96 N 1 0 0 1 -63 59 2
Validated: 1
EndChar

StartChar: onequarter
Encoding: 188 188 75
Width: 536
VWidth: 0
Flags: W
HStem: 113 60<361 421 482 511>
VStem: 146 61<414 594> 421 61<50 113 173 249>
LayerCount: 2
Back
Fore
SplineSet
511 173 m 1
 511 113 l 1
 481 113 l 1
 481 50 l 1
 421 50 l 1
 421 113 l 1
 330 113 l 2
 308 113 301 133 301 144 c 1
 301 172 l 1
 301 201 l 2
 301 210 307 218 310 221 c 2
 401 313 l 2
 407 320 417 323 421 323 c 2
 453 323 l 2
 473 323 482 305 482 294 c 2
 482 173 l 1
 511 173 l 1
421 173 m 1
 421 249 l 1
 361 187 l 1
 361 173 l 1
 421 173 l 1
207 414 m 1
 146 414 l 1
 146 594 l 1
 138 586 l 1
 96 628 l 1
 156 687 l 2
 159 690 165 696 177 696 c 0
 188 696 207 687 207 666 c 2
 207 414 l 1
424 560 m 2
 430 566 438 569 446 569 c 0
 454 569 462 566 468 560 c 0
 474 554 477 546 477 538 c 0
 477 530 474 522 469 516 c 2
 109 150 l 2
 103 144 96 141 88 141 c 0
 80 141 72 144 66 150 c 0
 60 156 57 164 57 172 c 0
 57 180 60 188 65 194 c 2
 424 560 l 2
EndSplineSet
Validated: 1
EndChar

StartChar: onehalf
Encoding: 189 189 76
Width: 536
VWidth: 0
Flags: W
HStem: 51 60<402 512> 264 59<400 440>
VStem: 146 61<414 594>
LayerCount: 2
Back
Fore
SplineSet
512 111 m 1
 512 51 l 1
 359 51 l 2
 337 51 329 70 329 81 c 2
 329 110 l 2
 329 120 334 128 337 131 c 2
 451 243 l 1
 451 253 l 1
 440 264 l 1
 400 264 l 1
 380 243 l 1
 336 283 l 1
 365 314 l 2
 369 319 377 323 387 323 c 2
 454 323 l 2
 459 323 468 321 475 314 c 2
 502 285 l 2
 506 281 510 273 510 264 c 2
 510 231 l 2
 510 226 509 217 502 210 c 2
 402 111 l 1
 512 111 l 1
207 414 m 1
 146 414 l 1
 146 594 l 1
 138 586 l 1
 96 628 l 1
 156 687 l 2
 159 690 165 696 177 696 c 0
 188 696 207 687 207 666 c 2
 207 414 l 1
424 560 m 2
 430 566 438 569 446 569 c 0
 454 569 462 566 468 560 c 0
 474 554 477 546 477 538 c 0
 477 530 474 522 469 516 c 2
 109 150 l 2
 103 144 96 141 88 141 c 0
 80 141 72 144 66 150 c 0
 60 156 57 164 57 172 c 0
 57 180 60 188 65 194 c 2
 424 560 l 2
EndSplineSet
Validated: 1
EndChar

StartChar: threequarters
Encoding: 190 190 77
Width: 536
VWidth: 0
Flags: W
HStem: 113 60<361 421 482 511> 385 60<127 165> 631 59<55 151>
VStem: 177 60<457 496> 421 61<50 113 173 249>
LayerCount: 2
Back
Fore
SplineSet
55 631 m 1
 55 690 l 1
 206 690 l 2
 226 690 235 673 235 662 c 0
 235 661 235 660 235 659 c 0
 235 649 231 645 231 645 c 1
 185 572 l 1
 228 530 l 2
 235 523 237 513 237 508 c 2
 237 445 l 2
 237 435 231 428 228 425 c 2
 200 395 l 2
 193 387 182 385 177 385 c 2
 114 385 l 1
 104 385 96 390 92 394 c 2
 62 426 l 1
 105 467 l 1
 127 445 l 1
 165 445 l 1
 177 457 l 1
 177 496 l 1
 126 546 l 2
 122 550 117 558 117 567 c 0
 117 572 118 578 122 583 c 2
 151 631 l 1
 55 631 l 1
511 173 m 1
 511 113 l 1
 481 113 l 1
 481 50 l 1
 421 50 l 1
 421 113 l 1
 330 113 l 2
 308 113 301 133 301 144 c 2
 301 179 l 1
 301 201 l 2
 301 210 307 218 310 221 c 2
 401 313 l 2
 407 320 417 323 421 323 c 2
 451 323 l 2
 452 323 452 323 453 323 c 0
 473 323 482 305 482 294 c 0
 482 293 482 290 482 289 c 2
 482 173 l 1
 511 173 l 1
421 173 m 1
 421 249 l 1
 361 187 l 1
 361 173 l 1
 421 173 l 1
88 141 m 0
 71 141 57 155 57 172 c 0
 57 180 60 188 65 194 c 2
 424 560 l 2
 430 566 438 569 446 569 c 0
 463 569 477 555 477 538 c 0
 477 530 474 522 469 516 c 2
 109 150 l 2
 103 144 96 141 88 141 c 0
EndSplineSet
Validated: 1
EndChar

StartChar: idieresis
Encoding: 239 239 82
Width: 536
VWidth: 0
Flags: W
HStem: 49 21G<237 298> 456 20G<237 298> 596 61<141 204 325 387>
VStem: 141 63<596 657> 237 61<49 476> 325 62<596 657>
LayerCount: 2
Back
Fore
SplineSet
237 476 m 1
 298 476 l 1
 298 49 l 1
 237 49 l 1
 237 476 l 1
EndSplineSet
Refer: 60 168 N 1 0 0 1 27 -2 2
Validated: 1
EndChar

StartChar: mu
Encoding: 956 956 84
Width: 536
VWidth: 0
Flags: W
HStem: 51 58<156 317 433 482> 456 20G<56 113 359 419>
VStem: 56 57<-134 68 150 476> 359 60<153 476>
LayerCount: 2
Back
Fore
SplineSet
56 476 m 1
 113 476 l 1
 113 150 l 1
 156 109 l 1
 317 109 l 1
 359 153 l 1
 359 476 l 1
 419 476 l 1
 419 141 l 2
 419 138 417 134 415 129 c 1
 433 109 l 1
 482 109 l 1
 482 51 l 1
 421 51 l 2
 411 51 403 55 400 59 c 2
 374 84 l 1
 350 60 l 2
 347 57 339 51 329 51 c 2
 144 51 l 2
 139 51 131 52 124 59 c 2
 115 68 l 1
 115 -134 l 1
 56 -134 l 1
 56 476 l 1
EndSplineSet
Validated: 1
EndChar

StartChar: icircumflex
Encoding: 238 238 87
Width: 536
VWidth: 0
Flags: W
HStem: 49 21G<237 298> 456 20G<237 298> 503 172
VStem: 124 286 237 61<49 476>
LayerCount: 2
Back
Fore
SplineSet
237 476 m 1xe8
 298 476 l 1
 298 49 l 1
 237 49 l 1
 237 476 l 1xe8
EndSplineSet
Refer: 58 94 N 1 0 0 1 0 16 2
Validated: 1
EndChar

StartChar: multiply
Encoding: 215 215 91
Width: 536
VWidth: 0
Flags: W
LayerCount: 2
Back
Fore
SplineSet
95 453 m 1
 138 496 l 1
 267 366 l 1
 397 496 l 1
 440 453 l 1
 310 323 l 1
 440 193 l 1
 397 151 l 1
 267 280 l 1
 138 151 l 1
 95 193 l 1
 225 323 l 1
 95 453 l 1
EndSplineSet
Validated: 1
EndChar

StartChar: iacute
Encoding: 237 237 92
Width: 536
VWidth: 0
Flags: W
HStem: 49 21G<235 298> 456 20G<235 298> 536 182
VStem: 235 63<49 476> 235 181
LayerCount: 2
Back
Fore
SplineSet
235 476 m 1xf0
 298 476 l 1
 298 49 l 1
 235 49 l 1
 235 476 l 1xf0
EndSplineSet
Refer: 62 180 N 1 0 0 1 56 59 2
Validated: 1
EndChar

StartChar: uni00B9
Encoding: 185 185 103
Width: 536
VWidth: 0
Flags: W
HStem: 639 20G<265.5 273.5>
VStem: 238 61<263 558>
LayerCount: 2
Back
Fore
SplineSet
199 519 m 1
 157 561 l 1
 248 651 l 2
 254 657 262 659 269 659 c 0
 278 659 286 656 290 651 c 1
 299 643 299 634 299 630 c 2
 299 263 l 1
 238 263 l 1
 238 558 l 1
 199 519 l 1
EndSplineSet
Validated: 1
EndChar

StartChar: uni00B2
Encoding: 178 178 104
Width: 536
VWidth: 0
InSpiro: 1
Flags: W
HStem: 263 61<223 396> 601 58<254 294>
VStem: 156 54<539 557> 336 56<517 559>
LayerCount: 2
Back
Fore
SplineSet
396 324 m 1
 396 263 l 1
 156 263 l 1
 156 298 l 1
 156 324 l 2
 156 326 156 329 156 331 c 0
 156 333 159 336 160 338 c 0
 161 340 162 341 164 343 c 2
 336 517 l 1
 336 559 l 1
 294 601 l 1
 254 601 l 1
 210 557 l 1
 210 539 l 1
 156 539 l 1
 156 568 l 2
 156 569 156 570 156 571 c 0
 156 572 156 573 156 574 c 0
 157 576 158 579 159 581 c 0
 159 582 160 583 161 584 c 0
 161 585 162 586 163 587 c 2
 222 648 l 2
 224 650 226 652 228 653 c 0
 230 654 232 655 234 656 c 0
 237 657 239 659 242 659 c 2
 305 659 l 2
 306 659 307 659 308 659 c 0
 309 659 310 656 311 656 c 0
 313 655 316 654 318 653 c 0
 320 652 322 650 324 648 c 2
 383 589 l 2
 384 588 385 587 386 587 c 0
 386 586 387 585 388 584 c 0
 389 583 389 582 390 581 c 0
 390 579 391 578 391 577 c 0
 391 576 392 575 392 574 c 0
 392 572 392 571 392 570 c 2
 392 506 l 2
 392 504 392 502 391 500 c 0
 390 498 389 495 388 493 c 0
 388 492 387 491 386 490 c 0
 386 489 385 488 384 487 c 2
 223 324 l 1
 396 324 l 1
  Spiro
    396 324 v
    396 263 v
    157 263 v
    157 298 v
    157 324 v
    158 331 o
    160 338 o
    164 343 [
    336 517 v
    336 559 v
    294 601 v
    254 601 v
    210 557 v
    210 539 v
    156 539 v
    156 568 ]
    157 574 o
    159 581 o
    163 587 [
    222 648 ]
    228 653 o
    234 656 o
    242 657 [
    305 657 ]
    311 656 o
    318 653 o
    324 648 [
    383 589 ]
    388 584 o
    391 577 o
    392 570 [
    392 506 ]
    391 500 o
    388 493 o
    384 487 [
    223 324 v
    0 0 z
  EndSpiro
EndSplineSet
Validated: 1
EndChar

StartChar: uni00B3
Encoding: 179 179 105
Width: 536
VWidth: 0
Flags: W
HStem: 265 59<219 287> 598 61<146 318>
VStem: 329 60<366 403>
LayerCount: 2
Back
Fore
SplineSet
146 598 m 1
 146 659 l 1
 361 659 l 2
 381 659 390 642 390 631 c 0
 390 630 390 630 390 629 c 0
 390 628 391 629 390 628 c 2
 390 598 l 2
 390 589 384 582 381 578 c 2
 309 504 l 1
 315 502 319 499 320 498 c 2
 381 437 l 2
 388 430 390 420 389 415 c 2
 389 354 l 2
 389 344 383 336 380 333 c 2
 321 273 l 2
 314 265 304 264 299 265 c 2
 207 265 l 2
 198 265 191 269 187 273 c 2
 156 301 l 1
 196 345 l 1
 219 324 l 1
 287 324 l 1
 329 366 l 1
 329 403 l 1
 286 446 l 1
 240 446 l 2
 239 446 227 445 218 453 c 0
 213 458 209 466 209 476 c 0
 209 482 211 489 217 496 c 2
 318 598 l 1
 146 598 l 1
EndSplineSet
Validated: 1
EndChar

StartChar: ordfeminine
Encoding: 170 170 106
Width: 536
VWidth: 0
Flags: W
HStem: 49 60<54 481> 171 58<158 360 420 481> 356 58<159 360> 537 61<116 319>
VStem: 58 59<275 312> 360 60<231 356 414 495>
LayerCount: 2
Back
Fore
SplineSet
360 231 m 1
 360 356 l 1
 159 356 l 1
 117 312 l 1
 117 275 l 1
 158 232 l 1
 360 231 l 1
420 229 m 1
 481 229 l 1
 481 171 l 1
 146 171 l 2
 136 171 128 180 125 183 c 2
 66 243 l 2
 59 250 58 260 58 264 c 2
 58 324 l 2
 58 334 63 341 66 344 c 2
 126 406 l 2
 133 413 142 414 147 414 c 2
 362 414 l 1
 362 495 l 1
 319 537 l 1
 116 537 l 1
 116 598 l 1
 332 598 l 2
 342 598 349 590 352 587 c 2
 412 527 l 2
 419 520 420 512 420 507 c 2
 420 229 l 1
54 109 m 1
 481 109 l 1
 481 49 l 1
 54 49 l 1
 54 109 l 1
EndSplineSet
Validated: 1
EndChar

StartChar: guillemotleft
Encoding: 171 171 108
Width: 536
VWidth: 0
Flags: W
LayerCount: 2
Back
Fore
SplineSet
247 561 m 1
 290 519 l 1
 99 325 l 1
 290 133 l 1
 247 91 l 1
 36 304 l 2
 31 309 27 317 27 326 c 0
 27 332 30 340 36 346 c 2
 247 561 l 1
430 560 m 1
 473 518 l 1
 282 324 l 1
 473 132 l 1
 430 90 l 1
 219 303 l 2
 214 308 211 316 211 324 c 0
 211 331 213 338 219 345 c 2
 430 560 l 1
EndSplineSet
Validated: 1
EndChar

StartChar: guillemotright
Encoding: 187 187 109
Width: 536
VWidth: 0
Flags: W
LayerCount: 2
Back
Fore
SplineSet
286 561 m 1
 497 346 l 2
 503 339 505 332 505 325 c 0
 505 317 502 309 497 304 c 2
 286 91 l 1
 243 133 l 1
 433 325 l 1
 243 519 l 1
 286 561 l 1
102 560 m 1
 314 345 l 2
 320 339 322 332 322 325 c 0
 322 316 318 308 314 303 c 2
 102 90 l 1
 60 132 l 1
 250 324 l 1
 60 518 l 1
 102 560 l 1
EndSplineSet
Validated: 1
EndChar

StartChar: exclamdown
Encoding: 161 161 110
Width: 536
VWidth: 0
Flags: W
HStem: 49 21G<237 298> 456 20G<237 298> 598 61<237 298>
VStem: 237 61<49 476 598 659>
LayerCount: 2
Back
Fore
SplineSet
237 659 m 1
 298 659 l 1
 298 598 l 1
 237 598 l 1
 237 659 l 1
237 476 m 1
 298 476 l 1
 298 49 l 1
 237 49 l 1
 237 476 l 1
EndSplineSet
Validated: 1
EndChar

StartChar: questiondown
Encoding: 191 191 111
Width: 536
VWidth: 0
Flags: W
HStem: 50 62<214 387> 601 61<297 362>
VStem: 115 64<145 196> 297 61<390 480 601 662> 419 61<144 236>
LayerCount: 2
Back
Fore
SplineSet
362 601 m 1
 297 601 l 1
 297 662 l 1
 362 662 l 1
 362 601 l 1
480 132 m 2
 480 131 480 130 480 129 c 0
 480 128 479 127 479 126 c 0
 478 124 477 122 476 120 c 0
 475 118 474 116 472 114 c 2
 425 60 l 2
 423 58 422 56 419 54 c 0
 417 52 414 51 411 50 c 0
 408 49 405 50 402 50 c 2
 201 50 l 2
 198 50 197 49 194 50 c 0
 192 51 189 52 187 53 c 0
 185 54 182 56 180 58 c 2
 125 109 l 2
 123 111 120 113 119 116 c 0
 118 118 116 121 115 124 c 0
 114 127 115 130 115 133 c 2
 115 211 l 2
 115 214 117 216 118 219 c 0
 119 222 121 225 122 227 c 0
 123 229 125 231 127 233 c 2
 297 390 l 1
 297 480 l 1
 358 480 l 1
 358 375 l 2
 358 374 358 372 358 371 c 0
 358 370 357 368 357 367 c 0
 356 365 355 362 354 360 c 0
 353 358 350 355 348 353 c 2
 179 196 l 1
 179 145 l 1
 214 112 l 1
 387 112 l 1
 419 144 l 1
 419 236 l 1
 480 236 l 1
 480 132 l 2
EndSplineSet
Validated: 1
EndChar

StartChar: a
Encoding: 97 97 128
Width: 536
VWidth: 0
Flags: W
HStem: 50 58<158 360 420 481> 234 58<159 360> 411 59<115 319>
VStem: 57 59<153 190> 360 60<109 234 292 369>
LayerCount: 2
Back
Fore
SplineSet
360 109 m 1
 360 234 l 1
 159 234 l 1
 116 190 l 1
 116 153 l 1
 158 108 l 1
 360 109 l 1
420 108 m 1
 481 108 l 1
 481 50 l 1
 145 50 l 2
 135 50 127 56 124 59 c 2
 66 121 l 2
 59 128 57 138 57 142 c 2
 57 202 l 2
 57 212 63 220 66 223 c 2
 125 284 l 2
 132 291 141 292 146 292 c 2
 360 292 l 1
 360 369 l 1
 319 411 l 1
 115 411 l 1
 115 470 l 1
 331 470 l 2
 341 470 349 464 352 461 c 2
 411 401 l 2
 418 394 420 386 420 381 c 2
 420 108 l 1
EndSplineSet
Validated: 1
EndChar

StartChar: b
Encoding: 98 98 129
Width: 536
VWidth: 0
Flags: W
HStem: 52 57<115 255> 416 59<115 259> 639 20G<55 115>
VStem: 55 60<109 416 475 659> 361 59<213 312>
LayerCount: 2
Back
Fore
SplineSet
55 52 m 1
 55 659 l 1
 115 659 l 1
 115 475 l 1
 271 475 l 2
 281 475 289 469 292 466 c 2
 411 345 l 2
 418 338 420 329 420 324 c 2
 420 201 l 2
 420 191 414 183 411 180 c 2
 288 59 l 2
 281 52 271 52 267 52 c 2
 55 52 l 1
115 109 m 1
 255 109 l 1
 361 213 l 1
 361 312 l 1
 259 416 l 1
 115 416 l 1
 115 109 l 1
EndSplineSet
Validated: 1
EndChar

StartChar: c
Encoding: 99 99 130
Width: 536
VWidth: 0
Flags: W
HStem: 51 58<220 420> 416 59<217 420>
VStem: 55 59<213 312>
LayerCount: 2
Back
Fore
SplineSet
420 475 m 1
 420 416 l 1
 217 416 l 1
 114 312 l 1
 114 213 l 1
 220 109 l 1
 420 109 l 1
 420 51 l 1
 208 51 l 2
 204 51 194 52 187 59 c 2
 64 180 l 2
 61 183 55 191 55 201 c 2
 55 324 l 2
 55 329 57 338 64 345 c 2
 184 466 l 2
 187 469 194 475 204 475 c 2
 420 475 l 1
EndSplineSet
Validated: 1
EndChar

StartChar: d
Encoding: 100 100 131
Width: 536
VWidth: 0
Flags: W
HStem: 51 58<220 360> 416 59<217 360> 639 20G<360 420>
VStem: 55 59<213 312> 360 60<109 416 475 659>
LayerCount: 2
Back
Fore
SplineSet
420 51 m 1
 208 51 l 2
 204 51 194 52 187 59 c 2
 64 180 l 2
 61 183 55 191 55 201 c 2
 55 324 l 2
 55 329 57 338 64 345 c 2
 184 466 l 2
 187 469 194 475 204 475 c 2
 360 475 l 1
 360 659 l 1
 420 659 l 1
 420 51 l 1
360 109 m 1
 360 416 l 1
 217 416 l 1
 114 312 l 1
 114 213 l 1
 220 109 l 1
 360 109 l 1
EndSplineSet
Validated: 1
EndChar

StartChar: e
Encoding: 101 101 132
Width: 536
VWidth: 0
Flags: W
HStem: 51 56<156 421> 231 62<114 361> 409 61<158 318>
VStem: 54 59<152 231 293 364> 361 58<293 365>
LayerCount: 2
Back
Fore
SplineSet
113 231 m 1
 113 152 l 1
 156 107 l 1
 421 107 l 1
 421 51 l 1
 144 51 l 2
 135 51 127 56 124 59 c 2
 62 119 l 2
 55 126 54 135 54 140 c 2
 54 376 l 2
 54 386 61 393 64 396 c 2
 125 459 l 2
 132 466 142 470 147 470 c 2
 330 470 l 2
 340 470 348 462 351 459 c 2
 410 397 l 2
 417 390 419 382 419 377 c 2
 419 231 l 1
 113 231 l 1
114 293 m 1
 361 293 l 1
 361 365 l 1
 318 409 l 1
 158 409 l 1
 114 364 l 1
 114 293 l 1
EndSplineSet
Validated: 1
EndChar

StartChar: f
Encoding: 102 102 133
Width: 536
VWidth: 0
Flags: W
HStem: 49 21G<178 237> 415 61<54 178 238 359> 599 60<278 420>
VStem: 178 59<49 415 476 558>
LayerCount: 2
Back
Fore
SplineSet
278 599 m 1
 238 558 l 1
 238 476 l 1
 359 476 l 1
 359 415 l 1
 237 415 l 1
 237 49 l 1
 178 49 l 1
 178 415 l 1
 54 415 l 1
 54 476 l 1
 178 476 l 1
 178 570 l 2
 178 578 180 585 186 591 c 2
 243 650 l 2
 249 656 256 659 265 659 c 2
 420 659 l 1
 420 599 l 1
 278 599 l 1
EndSplineSet
Validated: 1
EndChar

StartChar: g
Encoding: 103 103 134
Width: 536
VWidth: 0
Flags: W
HStem: -72 60<219 365> 109 62<219 300> 171 60<385 407> 417 60<219 362>
VStem: 55 60<272 313> 407 60<30 171 231 375>
LayerCount: 2
Back
Fore
SplineSet
407 231 m 1xbc
 407 375 l 1
 362 417 l 1
 219 417 l 1
 115 313 l 1
 115 272 l 1
 219 171 l 1
 300 171 l 1xdc
 351 222 l 2
 357 228 364 231 372 231 c 2
 407 231 l 1xbc
407 171 m 1xbc
 385 171 l 1xbc
 334 120 l 2
 329 114 322 109 313 109 c 2
 207 109 l 2xdc
 199 109 192 112 186 118 c 2
 64 238 l 2
 58 244 55 251 55 259 c 2
 55 326 l 2
 55 335 58 342 64 347 c 2
 186 466 l 2
 192 472 199 477 207 477 c 2
 374 477 l 2
 382 477 389 475 395 470 c 2
 458 410 l 2
 464 404 467 397 467 388 c 2
 467 18 l 2
 467 10 463 3 458 -3 c 2
 400 -63 l 2
 394 -69 387 -72 378 -72 c 2
 207 -72 l 2
 199 -72 192 -69 186 -63 c 2
 125 -3 l 1
 167 39 l 1
 219 -12 l 1
 365 -12 l 1
 407 30 l 1
 407 171 l 1xbc
EndSplineSet
Validated: 1
EndChar

StartChar: h
Encoding: 104 104 135
Width: 536
VWidth: 0
Flags: W
HStem: 48 21G<52 112 359 419> 416 59<217 314>
VStem: 52 60<48 315 398 666> 359 60<48 372>
LayerCount: 2
Back
Fore
SplineSet
52 48 m 1
 52 666 l 1
 112 666 l 1
 112 398 l 1
 184 470 l 2
 190 475 197 475 205 475 c 2
 326 475 l 2
 334 475 341 472 347 467 c 2
 410 407 l 2
 416 401 419 394 419 385 c 2
 419 48 l 1
 359 48 l 1
 359 372 l 1
 314 416 l 1
 217 416 l 1
 112 315 l 1
 112 48 l 1
 52 48 l 1
EndSplineSet
Validated: 1
EndChar

StartChar: i
Encoding: 105 105 136
Width: 536
VWidth: 0
Flags: W
HStem: 49 21G<237 298> 456 20G<237 298> 598 61<237 298>
VStem: 237 61<49 476 598 659>
LayerCount: 2
Back
Fore
SplineSet
237 659 m 1
 298 659 l 1
 298 598 l 1
 237 598 l 1
 237 659 l 1
237 476 m 1
 298 476 l 1
 298 49 l 1
 237 49 l 1
 237 476 l 1
EndSplineSet
Validated: 1
EndChar

StartChar: j
Encoding: 106 106 137
Width: 536
VWidth: 0
Flags: W
HStem: -73 59<218 317> 456 20G<359 420> 598 61<359 421>
VStem: 359 61<29 476 598 659>
LayerCount: 2
Back
Fore
SplineSet
420 17 m 2
 420 9 416 2 410 -4 c 2
 350 -65 l 2
 344 -71 338 -73 329 -73 c 2
 205 -73 l 2
 197 -73 190 -70 184 -64 c 2
 124 -3 l 1
 166 39 l 1
 218 -14 l 1
 317 -14 l 1
 359 29 l 1
 359 476 l 1
 420 476 l 1
 420 17 l 2
359 659 m 1
 421 659 l 1
 421 598 l 1
 359 598 l 1
 359 659 l 1
EndSplineSet
Validated: 1
EndChar

StartChar: k
Encoding: 107 107 138
Width: 536
VWidth: 0
Flags: W
HStem: 49 21G<115 177 355.761 395.476> 233 60<177 198> 456 20G<359.328 399> 639 20G<115 177>
VStem: 115 62<49 233 293 659>
LayerCount: 2
Back
Fore
SplineSet
252 262 m 1
 418 91 l 1
 375 49 l 1
 198 233 l 1
 177 233 l 1
 177 49 l 1
 115 49 l 1
 115 659 l 1
 177 659 l 1
 177 293 l 1
 199 293 l 1
 379 476 l 1
 421 434 l 1
 252 262 l 1
EndSplineSet
Validated: 1
EndChar

StartChar: l
Encoding: 108 108 139
Width: 536
VWidth: 0
Flags: W
HStem: 49 60<310 359> 639 20G<237 297>
VStem: 237 60<123 659>
LayerCount: 2
Back
Fore
SplineSet
297 123 m 1
 310 109 l 1
 359 109 l 1
 359 49 l 1
 298 49 l 2
 290 49 283 52 277 58 c 2
 246 89 l 2
 240 95 237 102 237 110 c 2
 237 659 l 1
 297 659 l 1
 297 123 l 1
EndSplineSet
Validated: 1
EndChar

StartChar: m
Encoding: 109 109 140
Width: 536
VWidth: 0
Flags: W
HStem: 49 21G<55 115 237 298 420 480> 415 60<159 196 339 379>
VStem: 55 60<49 372 458 475> 237 61<49 373> 420 60<49 374>
CounterMasks: 1 38
LayerCount: 2
Back
Fore
SplineSet
298 373 m 1
 298 49 l 1
 237 49 l 1
 237 373 l 1
 196 415 l 1
 159 415 l 1
 115 372 l 1
 115 49 l 1
 55 49 l 1
 55 475 l 1
 116 475 l 1
 116 458 l 1
 125 467 l 2
 131 473 138 476 146 476 c 2
 209 476 l 2
 218 476 225 473 231 467 c 2
 267 428 l 1
 305 466 l 2
 311 472 318 475 326 475 c 2
 391 475 l 2
 399 475 406 472 412 466 c 2
 471 407 l 2
 477 401 480 394 480 386 c 2
 480 49 l 1
 420 49 l 1
 420 374 l 1
 379 415 l 1
 339 415 l 1
 298 373 l 1
EndSplineSet
Validated: 1
EndChar

StartChar: n
Encoding: 110 110 141
Width: 536
VWidth: 0
Flags: W
HStem: 417 58<55 104 220 317>
VStem: 118 60<50 373> 360 57<51 376>
LayerCount: 2
Back
Fore
SplineSet
163 442 m 1
 187 466 l 2
 190 469 198 475 208 475 c 2
 329 475 l 2
 334 475 342 474 349 467 c 2
 408 409 l 2
 411 406 417 398 417 388 c 2
 417 51 l 1
 360 51 l 1
 360 376 l 1
 317 417 l 1
 220 417 l 1
 178 373 l 1
 178 50 l 1
 118 50 l 1
 118 385 l 2
 118 388 120 392 122 397 c 1
 104 417 l 1
 55 417 l 1
 55 476 l 1
 118 476 l 2
 128 476 134 471 137 467 c 2
 163 442 l 1
EndSplineSet
Validated: 1
EndChar

StartChar: o
Encoding: 111 111 142
Width: 536
VWidth: 0
Flags: W
HStem: 53 57<157 318> 418 59<157 319>
VStem: 54 60<152 374> 358 60<152 374>
LayerCount: 2
Back
Fore
SplineSet
114 374 m 1
 114 152 l 1
 157 110 l 1
 318 110 l 1
 358 152 l 1
 358 374 l 1
 319 418 l 1
 157 418 l 1
 114 374 l 1
64 407 m 2
 125 470 l 2
 132 477 141 477 145 477 c 2
 332 477 l 2
 342 477 350 471 354 467 c 2
 410 404 l 2
 416 398 418 390 418 385 c 2
 418 140 l 2
 418 130 412 122 409 119 c 2
 351 60 l 2
 344 52 335 53 330 53 c 2
 145 53 l 2
 136 53 129 57 125 60 c 2
 63 118 l 2
 55 125 54 134 54 140 c 2
 54 387 l 2
 54 397 61 404 64 407 c 2
EndSplineSet
Validated: 1
EndChar

StartChar: p
Encoding: 112 112 143
Width: 536
VWidth: 0
Flags: W
HStem: -134 21G<54 114> 50 59<114 257> 413 54<114 254>
VStem: 54 60<-134 50 109 413> 360 59<213 312>
LayerCount: 2
Back
Fore
SplineSet
54 467 m 1
 274 467 l 1
 280 467 283 467 287 463 c 1
 410 345 l 2
 413 342 419 334 419 324 c 2
 419 201 l 2
 419 196 417 187 410 180 c 2
 290 59 l 2
 287 56 280 50 270 50 c 2
 114 50 l 1
 114 -134 l 1
 54 -134 l 1
 54 467 l 1
114 413 m 1
 114 109 l 1
 257 109 l 1
 360 213 l 1
 360 312 l 1
 254 413 l 1
 114 413 l 1
EndSplineSet
Validated: 1
EndChar

StartChar: q
Encoding: 113 113 144
Width: 536
VWidth: 0
Flags: W
HStem: -127 62<419 480> 54 59<216 359> 416 58<219 359>
VStem: 54 59<217 312> 358 122<-127 -65> 359 60<-65 54 113 416>
LayerCount: 2
Back
Fore
SplineSet
419 473 m 1xf4
 419 -65 l 1xf4
 480 -65 l 1
 480 -127 l 1
 358 -127 l 1xf8
 359 54 l 1
 203 54 l 2
 193 54 186 60 183 63 c 2
 63 184 l 2
 56 191 54 200 54 205 c 2
 54 324 l 2
 54 334 60 342 63 345 c 2
 186 466 l 2
 193 473 203 474 207 474 c 2
 419 473 l 1xf4
359 416 m 1
 219 416 l 1
 113 312 l 1
 113 217 l 1
 216 113 l 1
 359 113 l 1
 359 416 l 1
EndSplineSet
Validated: 1
EndChar

StartChar: r
Encoding: 114 114 145
Width: 536
VWidth: 0
Flags: W
HStem: 49 21G<103.06 163> 415 60<55 94.6726 266 331>
VStem: 103 60<50 313> 376 60<354 372>
LayerCount: 2
Back
Fore
SplineSet
163 313 m 1
 163 50 l 1
 103 49 l 1
 104 384 l 2
 104 393 101 399 95 406 c 1
 88 412 82 415 72 415 c 2
 55 415 l 1
 54 475 l 1
 103 476 l 2
 120 476 162 446 163 414 c 1
 163 396 l 1
 232 466 l 2
 238 472 245 475 253 475 c 2
 343 476 l 2
 352 476 359 473 364 467 c 2
 427 406 l 2
 433 400 436 393 436 384 c 2
 436 354 l 1
 376 354 l 1
 376 372 l 1
 331 415 l 1
 266 415 l 1
 163 313 l 1
EndSplineSet
Validated: 1
EndChar

StartChar: s
Encoding: 115 115 146
Width: 536
VWidth: 0
Flags: W
HStem: 50 60<158 317> 416 60<158 315>
VStem: 359 60<353 372>
LayerCount: 2
Back
Fore
SplineSet
359 372 m 1
 315 416 l 1
 158 416 l 1
 129 386 l 1
 411 165 l 2
 418 159 422 152 422 143 c 0
 422 134 419 126 413 120 c 2
 350 58 l 2
 344 52 337 49 329 49 c 2
 146 50 l 2
 138 50 131 52 125 58 c 2
 63 118 l 2
 57 124 54 131 54 140 c 2
 54 168 l 1
 114 168 l 1
 114 153 l 1
 158 110 l 1
 317 109 l 1
 347 139 l 1
 66 359 l 2
 59 364 56 372 55 381 c 0
 54 390 57 398 63 404 c 2
 123 467 l 2
 129 473 136 476 145 476 c 2
 327 476 l 2
 335 476 342 473 348 467 c 2
 410 406 l 2
 416 400 419 393 419 385 c 2
 419 353 l 1
 359 353 l 1
 359 372 l 1
EndSplineSet
Validated: 1
EndChar

StartChar: t
Encoding: 116 116 147
Width: 536
VWidth: 0
Flags: W
HStem: 49 60<310 359> 415 61<114 237 297 420> 639 20G<237 297>
VStem: 237 60<123 415 476 659>
LayerCount: 2
Back
Fore
SplineSet
297 123 m 1
 310 109 l 1
 359 109 l 1
 359 49 l 1
 298 49 l 2
 290 49 283 52 277 58 c 2
 246 89 l 2
 240 95 237 102 237 110 c 2
 237 415 l 1
 114 415 l 1
 114 476 l 1
 237 476 l 1
 237 659 l 1
 297 659 l 1
 297 476 l 1
 420 476 l 1
 420 415 l 1
 297 415 l 1
 297 123 l 1
EndSplineSet
Validated: 1
EndChar

StartChar: u
Encoding: 117 117 148
Width: 536
VWidth: 0
Flags: W
HStem: 51 58<156 317 433 482> 456 20G<55 113.123 359.938 419>
VStem: 56 59<150 475> 359 59<153 476>
LayerCount: 2
Back
Fore
SplineSet
374 84 m 1
 350 60 l 2
 347 57 339 51 329 51 c 2
 144 51 l 2
 139 51 131 52 124 59 c 2
 65 117 l 2
 62 120 56 128 56 138 c 2
 55 475 l 1
 113 476 l 1
 115 150 l 1
 156 109 l 1
 317 109 l 1
 359 153 l 1
 360 476 l 1
 419 476 l 1
 418 141 l 2
 418 138 417 134 415 129 c 1
 433 109 l 1
 482 109 l 1
 482 50 l 1
 421 50 l 2
 411 50 403 55 400 59 c 2
 374 84 l 1
EndSplineSet
Validated: 1
EndChar

StartChar: v
Encoding: 118 118 149
Width: 536
VWidth: 0
Flags: W
HStem: 48 21G<260.5 271.5> 455 20G<55 115 420 480>
VStem: 55 60<391 475> 420 60<394 475>
LayerCount: 2
Back
Fore
SplineSet
115 391 m 1
 266 137 l 1
 420 394 l 1
 420 475 l 1
 480 475 l 1
 480 386 l 2
 480 380 479 376 476 371 c 2
 292 63 l 2
 286 53 277 48 266 48 c 0
 255 48 246 53 240 63 c 2
 59 368 l 2
 56 373 55 377 55 383 c 2
 55 475 l 1
 115 475 l 1
 115 391 l 1
EndSplineSet
Validated: 1
EndChar

StartChar: w
Encoding: 119 119 150
Width: 536
VWidth: 0
Flags: W
HStem: 450 19G<54 114 422 482>
VStem: 54 60<151 469> 237 61<211 293> 422 60<154 470>
LayerCount: 2
Back
Fore
SplineSet
298 211 m 1
 388 122 l 1
 422 154 l 1
 422 470 l 1
 482 470 l 1
 482 141 l 2
 482 132 479 125 473 119 c 2
 409 58 l 2
 403 53 395 50 388 50 c 0
 381 50 373 53 367 59 c 2
 267 158 l 1
 166 56 l 2
 160 50 153 46 145 46 c 0
 137 46 130 50 124 56 c 2
 63 118 l 2
 57 124 54 131 54 139 c 2
 54 469 l 1
 114 469 l 1
 114 151 l 1
 145 120 l 1
 237 211 l 1
 237 293 l 1
 298 293 l 1
 298 211 l 1
EndSplineSet
Validated: 1
EndChar

StartChar: x
Encoding: 120 120 151
Width: 536
VWidth: 0
Flags: W
HStem: 48 21G<53 113 421 481> 456 20G<53 113 421 481>
VStem: 53 60<48 67 458 476> 421 60<48 67 458 476>
LayerCount: 2
Back
Fore
SplineSet
267 220 m 1
 113 67 l 1
 113 48 l 1
 53 48 l 1
 53 80 l 2
 53 88 55 95 61 101 c 2
 224 262 l 1
 61 424 l 2
 55 430 53 438 53 446 c 2
 53 476 l 1
 113 476 l 1
 113 458 l 1
 267 305 l 1
 421 458 l 1
 421 476 l 1
 481 476 l 1
 481 446 l 2
 481 438 478 430 472 424 c 2
 309 263 l 1
 472 101 l 2
 478 95 481 88 481 80 c 2
 481 48 l 1
 421 48 l 1
 421 67 l 1
 267 220 l 1
EndSplineSet
Validated: 1
EndChar

StartChar: y
Encoding: 121 121 152
Width: 536
VWidth: 0
Flags: W
HStem: 456 20G<55 115 359 419>
VStem: 55 60<274 476> 359 60<212 476>
LayerCount: 2
Back
Fore
SplineSet
225 78 m 1
 64 241 l 2
 58 247 55 254 55 262 c 2
 55 476 l 1
 115 476 l 1
 115 274 l 1
 268 121 l 1
 359 212 l 1
 359 476 l 1
 419 476 l 1
 419 200 l 2
 419 192 416 185 410 179 c 2
 103 -128 l 1
 61 -86 l 1
 225 78 l 1
EndSplineSet
Validated: 1
EndChar

StartChar: z
Encoding: 122 122 153
Width: 536
VWidth: 0
Flags: W
HStem: 49 60<177 481> 415 61<54 359>
LayerCount: 2
Back
Fore
SplineSet
54 476 m 1
 481 476 l 1
 177 109 l 1
 481 109 l 1
 481 49 l 1
 54 49 l 1
 359 415 l 1
 54 415 l 1
 54 476 l 1
EndSplineSet
Validated: 1
EndChar

StartChar: ae
Encoding: 230 230 154
Width: 536
VWidth: 0
Flags: W
HStem: 49 60<158 195 341 480> 231 62<298 423> 294 60<220 238> 415 60<54 194 340 379>
VStem: 54 60<151 190> 238 60<153 231 293 294 354 372> 423 60<293 373>
LayerCount: 2
Back
Fore
SplineSet
238 294 m 1
 220 294 l 1
 114 190 l 1
 114 151 l 1
 158 109 l 1
 195 109 l 1
 238 153 l 1
 238 294 l 1
238 354 m 1
 238 372 l 1
 194 415 l 1
 54 415 l 1
 54 475 l 1
 206 475 l 2
 216 475 224 470 227 467 c 2
 267 428 l 1
 307 467 l 2
 310 470 318 475 328 475 c 2
 392 475 l 2
 396 475 406 474 413 467 c 2
 474 407 l 2
 478 403 483 395 483 385 c 2
 483 232 l 1
 298 231 l 1
 298 152 l 1
 341 109 l 1
 480 109 l 1
 480 49 l 1
 328 49 l 2
 323 49 314 51 307 58 c 2
 268 98 l 1
 229 58 l 2
 222 50 213 49 208 49 c 2
 146 49 l 2
 136 49 128 54 125 57 c 2
 63 117 l 2
 56 124 54 134 54 139 c 2
 54 203 l 2
 54 213 60 221 63 224 c 2
 187 345 l 2
 194 352 203 354 208 354 c 2
 238 354 l 1
298 293 m 1
 423 293 l 1
 423 373 l 1
 379 415 l 1
 340 415 l 1
 298 375 l 1
 298 293 l 1
EndSplineSet
Validated: 1
EndChar

StartChar: oslash
Encoding: 248 248 155
Width: 536
VWidth: 0
Flags: W
HStem: 52 60<217 318> 416 60<219 318>
VStem: 115 59<210 373> 359 60<152 311>
LayerCount: 2
Back
Fore
SplineSet
348 385 m 1
 318 417 l 1
 219 416 l 1
 175 373 l 1
 174 210 l 1
 348 385 l 1
360 311 m 1
 189 141 l 1
 217 112 l 1
 318 110 l 1
 359 152 l 1
 360 311 l 1
420 371 m 1
 419 140 l 2
 419 132 416 125 410 119 c 2
 351 59 l 2
 345 53 339 50 330 50 c 2
 205 52 l 2
 197 52 190 55 184 61 c 2
 146 98 l 1
 105 57 l 1
 63 99 l 1
 115 151 l 1
 115 385 l 2
 115 393 118 400 124 406 c 2
 185 467 l 2
 191 473 198 476 206 476 c 2
 331 477 l 2
 340 477 347 474 353 468 c 2
 391 427 l 1
 432 468 l 1
 474 426 l 1
 420 371 l 1
EndSplineSet
Validated: 1
EndChar

StartChar: uni0247
Encoding: 583 583 157
Width: 536
VWidth: 0
Flags: W
HStem: 51 56<191 421> 231 62<149 186 334 361> 409 61<193 318>
VStem: 89 60<192 231 293 364> 361 58<293 321>
LayerCount: 2
Back
Fore
SplineSet
421 470 m 2
 423 472 425 475 427 476 c 0
 429 477 432 478 435 479 c 0
 440 480 446 480 451 479 c 0
 456 478 461 474 465 470 c 0
 469 466 472 462 473 457 c 0
 474 452 474 447 473 442 c 0
 472 439 471 437 470 434 c 0
 469 431 467 429 465 427 c 2
 419 380 l 2
 419 379 419 378 419 377 c 2
 419 231 l 1
 273 231 l 1
 172 127 l 1
 191 107 l 1
 421 107 l 1
 421 51 l 1
 179 51 l 2
 170 51 162 56 159 59 c 2
 131 86 l 1
 107 61 l 2
 105 59 103 57 101 56 c 0
 99 55 96 52 93 51 c 0
 88 50 82 50 77 51 c 0
 72 52 67 57 63 61 c 0
 59 65 57 70 55 75 c 0
 53 80 53 86 54 91 c 0
 55 94 56 97 57 99 c 0
 58 101 60 103 62 105 c 2
 89 133 l 1
 88 136 89 138 89 140 c 2
 89 376 l 2
 89 386 96 393 99 396 c 2
 160 459 l 2
 167 466 177 470 182 470 c 0
 243 470 269 470 330 470 c 0
 340 470 348 462 351 459 c 2
 380 428 l 1
 421 470 l 2
148 192 m 1
 186 231 l 1
 148 231 l 1
 148 192 l 1
247 293 m 1
 339 387 l 1
 318 409 l 1
 193 409 l 1
 149 364 l 1
 149 293 l 1
 247 293 l 1
334 293 m 1
 361 293 l 1
 361 321 l 1
 334 293 l 1
EndSplineSet
Validated: 1
EndChar

StartChar: fm
Encoding: 1114118 -1 158
Width: 536
VWidth: 0
Flags: W
HStem: 354 122<237 359> 537 122<54 481>
VStem: 237 122<354 476>
LayerCount: 2
Back
Fore
SplineSet
54 659 m 1
 481 659 l 1
 481 537 l 1
 54 537 l 1
 54 659 l 1
237 476 m 1
 359 476 l 1
 359 354 l 1
 237 354 l 1
 237 476 l 1
237 231 m 1
 359 231 l 1
 336 79 264 10 115 -13 c 1
 237 231 l 1
EndSplineSet
Validated: 1
EndChar

StartChar: dup
Encoding: 1114119 -1 159
Width: 536
VWidth: 0
Flags: W
HStem: 49 21G<237 298> 457 20G<237 298> 537 122<54 481>
VStem: 237 61<49 233 293 477>
LayerCount: 2
Back
Fore
SplineSet
237 233 m 1
 298 233 l 1
 298 49 l 1
 237 49 l 1
 237 233 l 1
237 477 m 1
 298 477 l 1
 298 293 l 1
 237 293 l 1
 237 477 l 1
431 407 m 1
 474 365 l 1
 375 265 l 1
 476 161 l 1
 433 119 l 1
 290 265 l 1
 431 407 l 1
105 407 m 1
 246 265 l 1
 103 119 l 1
 61 161 l 1
 162 265 l 1
 63 365 l 1
 105 407 l 1
54 659 m 1
 481 659 l 1
 481 537 l 1
 54 537 l 1
 54 659 l 1
EndSplineSet
Validated: 1
EndChar

StartChar: A
Encoding: 65 65 160
Width: 536
VWidth: 0
Flags: W
HStem: 49 21G<56 116 420 480> 232 61<117 420> 577 20G<263 271>
VStem: 56 60<49 232 293 374> 420 60<49 232 293 373>
LayerCount: 2
Back
Fore
SplineSet
116 232 m 1
 116 49 l 1
 56 49 l 1
 57 387 l 2
 57 396 63 404 66 407 c 2
 246 588 l 2
 252 595 260 597 266 597 c 0
 276 597 284 593 289 588 c 2
 472 406 l 2
 479 399 480 390 480 385 c 2
 480 49 l 1
 420 49 l 1
 421 232 l 1
 116 232 l 1
117 293 m 1
 420 293 l 1
 420 373 l 1
 267 525 l 1
 117 374 l 1
 117 293 l 1
EndSplineSet
Validated: 1
EndChar

StartChar: B
Encoding: 66 66 161
Width: 536
VWidth: 0
Flags: W
HStem: 49 60<54 115 176 316> 293 61<176 316> 538 60<54 115 176 318>
VStem: 115 61<109 293 354 538>
CounterMasks: 1 e0
LayerCount: 2
Back
Fore
SplineSet
115 109 m 1
 115 538 l 1
 54 538 l 1
 54 598 l 1
 331 598 l 2
 341 598 349 592 353 589 c 2
 473 464 l 2
 479 458 481 451 481 444 c 0
 481 434 477 426 472 421 c 2
 371 324 l 1
 472 225 l 2
 478 219 481 211 481 205 c 0
 481 196 477 188 472 183 c 2
 350 58 l 2
 343 51 334 49 329 49 c 2
 54 49 l 1
 54 109 l 1
 115 109 l 1
317 293 m 1
 176 293 l 1
 176 109 l 1
 316 109 l 1
 409 203 l 1
 317 293 l 1
316 354 m 1
 409 444 l 1
 318 538 l 1
 176 538 l 1
 176 354 l 1
 316 354 l 1
EndSplineSet
Validated: 1
EndChar

StartChar: C
Encoding: 67 67 162
Width: 536
VWidth: 0
Flags: W
HStem: 49.0625 60.9375<280 377> 536 60<279 378>
VStem: 55 60<273 372>
LayerCount: 2
Back
Fore
SplineSet
473 527 m 1
 431 485 l 1
 378 537 l 1
 279 536 l 1
 113 372 l 1
 115 273 l 1
 280 110 l 1
 377 109 l 1
 429 164 l 1
 473 122 l 1
 412 58 l 2
 408 54 400 48.9951 390 49 c 2
 267.875 49.0625 l 6
 262.875 49.0625 254 52 247 59 c 2
 64 239 l 2
 61 242 55 250 55 260 c 2
 53 384 l 2
 53 389 55 398 62 405 c 2
 246 587 l 2
 249 590 257 596 267 596 c 2
 390 597 l 2
 395 597 404 595 411 588 c 2
 473 527 l 1
EndSplineSet
Validated: 1
EndChar

StartChar: D
Encoding: 68 68 163
Width: 536
VWidth: 0
Flags: W
HStem: 49 61<54 115 176 317> 538 60<54 115 176 317>
VStem: 115 61<110 538> 420 60<213 433>
LayerCount: 2
Back
Fore
SplineSet
176 110 m 1
 317 110 l 1
 420 213 l 1
 420 433 l 1
 317 537 l 1
 176 538 l 1
 176 110 l 1
115 538 m 1
 54 538 l 1
 54 598 l 1
 330 597 l 2
 340 597 348 591 351 588 c 2
 471 466 l 2
 478 459 480 450 480 445 c 2
 480 201 l 2
 480 191 474 182 471 179 c 2
 350 59 l 2
 343 52 334 50 329 50 c 2
 54 49 l 1
 54 109 l 1
 115 109 l 1
 115 538 l 1
EndSplineSet
Validated: 1
EndChar

StartChar: E
Encoding: 69 69 164
Width: 536
VWidth: 0
Flags: W
HStem: 49 60<115 481> 293 61<115 359> 537 61<115 481>
VStem: 54 61<109 293 354 537>
LayerCount: 2
Back
Fore
SplineSet
54 598 m 1
 481 598 l 1
 481 537 l 1
 115 537 l 1
 115 354 l 1
 359 354 l 1
 359 293 l 1
 115 293 l 1
 115 109 l 1
 481 109 l 1
 481 49 l 1
 54 49 l 1
 54 598 l 1
EndSplineSet
Validated: 1
EndChar

StartChar: F
Encoding: 70 70 165
Width: 536
VWidth: 0
Flags: W
HStem: 49 21G<54 115> 293 61<115 421> 537 61<115 481>
VStem: 54 61<49 293 354 537>
LayerCount: 2
Back
Fore
SplineSet
54 598 m 1
 481 598 l 1
 481 537 l 1
 115 537 l 1
 115 354 l 1
 421 354 l 1
 421 293 l 1
 115 293 l 1
 115 49 l 1
 54 49 l 1
 54 598 l 1
EndSplineSet
Validated: 1
EndChar

StartChar: G
Encoding: 71 71 166
Width: 536
VWidth: 0
Flags: W
HStem: 51 60<218 359> 232 61<237 359 419 482> 538 60<218 318>
VStem: 56 60<212 435> 359 59<111 232>
LayerCount: 2
Back
Fore
SplineSet
237 293 m 1
 482 293 l 1
 482 233 l 1
 419 232 l 1
 418 80 l 2
 418 69 409 51 388 51 c 2
 206 51 l 2
 201 51 192 52 185 59 c 2
 65 178 l 2
 62 181 56 189 56 199 c 2
 56 447 l 2
 56 452 57 461 64 468 c 2
 184 589 l 2
 187 593 195 598 205 598 c 2
 330 598 l 2
 335 598 345 596 352 589 c 2
 412 528 l 1
 369 486 l 1
 318 538 l 1
 218 538 l 1
 116 435 l 1
 116 212 l 1
 218 111 l 1
 359 111 l 1
 359 232 l 1
 237 231 l 1
 237 293 l 1
EndSplineSet
Validated: 1
EndChar

StartChar: H
Encoding: 72 72 167
Width: 536
VWidth: 0
Flags: W
HStem: 49 21G<54 115 421 481> 293 61<115 421> 578 20G<54 115 421 481>
VStem: 54 61<49 293 354 598> 421 60<49 293 354 598>
LayerCount: 2
Back
Fore
SplineSet
54 598 m 1
 115 598 l 1
 115 354 l 1
 421 354 l 1
 421 598 l 1
 481 598 l 1
 481 49 l 1
 421 49 l 1
 421 293 l 1
 115 293 l 1
 115 49 l 1
 54 49 l 1
 54 598 l 1
EndSplineSet
Validated: 1
EndChar

StartChar: I
Encoding: 73 73 168
Width: 536
VWidth: 0
Flags: W
HStem: 48 61<176 237 298 359> 537 61<177 237 298 359>
VStem: 176 183<49 109 537 598>
LayerCount: 2
Back
Fore
SplineSet
177 598 m 1
 359 598 l 1
 359 537 l 1
 298 537 l 1
 298 109 l 1
 359 109 l 1
 359 48 l 1
 176 49 l 1
 176 110 l 1
 237 109 l 1
 237 537 l 1
 176 537 l 1
 177 598 l 1
EndSplineSet
Validated: 1
EndChar

StartChar: J
Encoding: 74 74 169
Width: 536
VWidth: 0
Flags: W
HStem: 50 60<157 256> 537 61<237 298 358 420>
VStem: 55 60<151 230> 298 60<153 537>
LayerCount: 2
Back
Fore
SplineSet
53 230 m 1
 113 232 l 1
 115 151 l 1
 157 110 l 1
 256 110 l 1
 298 153 l 1
 298 537 l 1
 237 537 l 1
 237 598 l 1
 420 598 l 1
 420 537 l 1
 358 537 l 1
 358 141 l 2
 358 137 357 127 350 120 c 2
 291 59 l 2
 287 55 279 50 269 50 c 2
 145 50 l 2
 141 50 131 51 124 58 c 2
 64 116 l 2
 61 119 55 127 55 137 c 2
 53 230 l 1
EndSplineSet
Validated: 1
EndChar

StartChar: K
Encoding: 75 75 170
Width: 536
VWidth: 0
Flags: W
HStem: 49 21G<53 116 421 481> 578 20G<53 116 420 480>
VStem: 53 63<49 188 274 598> 421 60<49 68 578 597>
LayerCount: 2
Back
Fore
SplineSet
116 188 m 1
 116 49 l 1
 53 49 l 1
 53 598 l 1
 116 598 l 1
 116 274 l 1
 420 578 l 1
 420 597 l 1
 480 597 l 1
 480 566 l 2
 480 558 477 551 471 545 c 2
 250 323 l 1
 472 101 l 2
 478 95 481 88 481 80 c 2
 481 49 l 1
 421 49 l 1
 421 68 l 1
 208 281 l 1
 116 188 l 1
EndSplineSet
Validated: 1
EndChar

StartChar: L
Encoding: 76 76 171
Width: 536
VWidth: 0
Flags: W
HStem: 49 60<115 481> 578 20G<54 115>
VStem: 54 61<109 598>
LayerCount: 2
Back
Fore
SplineSet
54 598 m 1
 115 598 l 1
 115 109 l 1
 481 109 l 1
 481 49 l 1
 54 49 l 1
 54 598 l 1
EndSplineSet
Validated: 1
EndChar

StartChar: M
Encoding: 77 77 172
Width: 536
VWidth: 0
Flags: W
HStem: 49 21G<54 114 420 480> 578 20G<446.5 452>
VStem: 54 60<49 494> 237 61<294 370> 420 60<47 496>
LayerCount: 2
Back
Fore
SplineSet
298 370 m 1
 298 294 l 1
 237 294 l 1
 237 370 l 1
 114 494 l 1
 114 49 l 1
 54 49 l 1
 54 566 l 2
 54 579 61 589 73 594 c 0
 77 596 80 596 84 596 c 0
 91 596 99 593 105 587 c 2
 266 426 l 1
 429 589 l 2
 435 595 443 598 450 598 c 0
 454 598 457 598 461 596 c 0
 473 591 480 581 480 568 c 2
 480 47 l 1
 420 47 l 1
 420 496 l 1
 298 370 l 1
EndSplineSet
Validated: 1
EndChar

StartChar: N
Encoding: 78 78 173
Width: 536
VWidth: 0
Flags: W
HStem: 48 21G<54 115> 578 20G<54 135 421 481>
VStem: 54 61<49 508> 421 60<50 200 292 598>
LayerCount: 2
Back
Fore
SplineSet
54 49 m 1
 54 598 l 1
 115 598 l 1
 421 292 l 1
 421 598 l 1
 481 598 l 1
 481 50 l 1
 421 50 l 1
 421 200 l 1
 115 508 l 1
 115 48 l 1
 54 49 l 1
EndSplineSet
Validated: 1
EndChar

StartChar: O
Encoding: 79 79 174
Width: 536
VWidth: 0
Flags: W
HStem: 50 60<156 378> 538 60<157 378>
VStem: 55 60<150 494> 421 60<153 493>
LayerCount: 2
Back
Fore
SplineSet
117 494 m 1
 115 150 l 1
 156 110 l 1
 378 110 l 1
 421 153 l 1
 421 493 l 1
 378 537 l 1
 157 538 l 1
 117 494 l 1
65 526 m 2
 122 588 l 2
 129 596 138 598 144 598 c 2
 391 597 l 2
 401 597 410 592 413 588 c 2
 473 526 l 2
 480 519 481 510 481 505 c 2
 481 140 l 2
 481 130 476 122 472 119 c 2
 411 59 l 2
 404 52 395 50 390 50 c 2
 144 50 l 2
 134 50 126 55 123 58 c 2
 64 115 l 2
 57 122 55 132 55 137 c 2
 57 506 l 2
 57 515 61 522 65 526 c 2
EndSplineSet
Validated: 1
EndChar

StartChar: P
Encoding: 80 80 175
Width: 536
VWidth: 0
Flags: W
HStem: 48 21G<53 115> 231 62<115 317> 537 61<115 318>
VStem: 53 62<48 231 293 537> 421 60<398 437>
LayerCount: 2
Back
Fore
SplineSet
115 293 m 1
 317 293 l 1
 421 398 l 1
 420 437 l 1
 318 538 l 1
 115 537 l 1
 115 293 l 1
115 231 m 1
 115 48 l 1
 53 48 l 1
 53 598 l 1
 330 598 l 2
 338 598 345 595 351 589 c 2
 471 471 l 2
 477 465 480 458 480 450 c 2
 481 386 l 2
 481 378 478 371 472 365 c 2
 351 242 l 2
 345 236 338 233 330 233 c 2
 115 231 l 1
EndSplineSet
Validated: 1
EndChar

StartChar: Q
Encoding: 81 81 176
Width: 536
VWidth: 0
Flags: W
HStem: 52 60<219 267> 536 60<219 317>
VStem: 56 60<214 434> 238 60<175 232> 418 60<213 432>
LayerCount: 2
Back
Fore
SplineSet
373 83 m 1
 474 -26 l 1
 430 -66 l 1
 322 53 l 1
 207 52 l 2
 199 52 192 55 186 61 c 2
 65 180 l 2
 59 186 56 193 56 201 c 2
 57 446 l 2
 57 454 60 461 66 467 c 2
 185 587 l 2
 191 593 198 596 206 596 c 2
 330 596 l 2
 338 596 345 593 351 587 c 2
 471 465 l 2
 477 459 480 452 480 444 c 2
 478 200 l 2
 478 191 475 185 469 179 c 2
 373 83 l 1
330 124 m 1
 418 213 l 1
 420 432 l 1
 317 536 l 1
 219 536 l 1
 117 434 l 1
 116 214 l 1
 219 112 l 1
 267 112 l 1
 242 152 l 2
 239 157 238 161 238 167 c 2
 238 232 l 1
 298 232 l 1
 298 175 l 1
 330 124 l 1
EndSplineSet
Validated: 1
EndChar

StartChar: R
Encoding: 82 82 177
Width: 536
VWidth: 0
Flags: W
HStem: 49 21G<54 115 420 480> 294 60<114 193 279 379> 537 60<114 378>
VStem: 54 60<49 294 354 537> 421 60<49 67 396 494>
LayerCount: 2
Back
Fore
SplineSet
279 294 m 1
 471 100 l 2
 477 94 480 87 480 79 c 2
 480 49 l 1
 420 49 l 1
 420 67 l 1
 193 294 l 1
 114 294 l 1
 115 49 l 1
 54 49 l 1
 54 597 l 1
 390 597 l 2
 398 597 405 594 411 588 c 2
 472 528 l 2
 478 522 481 515 481 507 c 2
 481 384 l 2
 481 376 478 369 472 363 c 2
 413 303 l 2
 407 297 400 294 392 294 c 2
 279 294 l 1
114 354 m 1
 379 354 l 1
 421 396 l 1
 421 494 l 1
 378 537 l 1
 114 537 l 1
 114 354 l 1
EndSplineSet
Validated: 1
EndChar

StartChar: S
Encoding: 83 83 178
Width: 536
VWidth: 0
Flags: W
HStem: 48 60<158 380> 476 21G<422 482> 536 60<161 382>
VStem: 58 60<151 170 461 493> 420 60<153 184 476 496>
LayerCount: 2
Back
Fore
SplineSet
422 496 m 1
 382 536 l 1
 161 536 l 1
 118 493 l 1
 118 461 l 1
 467 225 l 2
 476 219 480 210 480 200 c 2
 480 141 l 2
 480 133 477 127 472 121 c 2
 415 59 l 2
 409 53 402 49 393 49 c 2
 146 48 l 2
 138 48 131 51 125 57 c 2
 64 118 l 2
 58 124 55 131 55 139 c 2
 55 170 l 1
 115 170 l 1
 115 151 l 1
 158 108 l 1
 380 109 l 1
 420 153 l 1
 420 184 l 1
 71 420 l 2
 62 426 58 435 58 445 c 2
 58 505 l 2
 58 513 61 520 67 526 c 2
 128 587 l 2
 134 593 141 596 149 596 c 2
 394 596 l 2
 402 596 409 593 415 587 c 2
 473 529 l 2
 479 523 482 516 482 508 c 2
 482 476 l 1
 422 476 l 1
 422 496 l 1
EndSplineSet
Validated: 1
EndChar

StartChar: T
Encoding: 84 84 179
Width: 536
VWidth: 0
Flags: W
HStem: 49 21G<237 298> 537 61<54 237 298 481>
VStem: 237 61<49 537>
LayerCount: 2
Back
Fore
SplineSet
54 598 m 1
 481 598 l 1
 481 537 l 1
 298 537 l 1
 298 49 l 1
 237 49 l 1
 237 537 l 1
 54 537 l 1
 54 598 l 1
EndSplineSet
Validated: 1
EndChar

StartChar: U
Encoding: 85 85 180
Width: 536
VWidth: 0
Flags: W
HStem: 50 60<157 379> 577 20G<54 114.09 420 480>
VStem: 56 60<152 597> 420 60<153 598>
LayerCount: 2
Back
Fore
SplineSet
54 597 m 1
 114 597 l 1
 116 152 l 1
 157 110 l 1
 379 110 l 1
 420 153 l 1
 420 598 l 1
 480 598 l 1
 480 141 l 2
 480 137 479 128 472 121 c 2
 414 60 l 2
 410 56 402 50 392 50 c 2
 144 50 l 2
 139 50 130 52 123 59 c 2
 64 118 l 2
 61 121 56 129 56 139 c 2
 54 597 l 1
EndSplineSet
Validated: 1
EndChar

StartChar: V
Encoding: 86 86 181
Width: 536
VWidth: 0
Flags: W
HStem: 48 21G<259.5 272.5> 578 20G<52 112.471 421 481>
VStem: 54 60<513 596> 421 60<512 598>
LayerCount: 2
Back
Fore
SplineSet
114 513 m 1
 266 155 l 1
 421 512 l 1
 421 598 l 1
 481 598 l 1
 481 506 l 2
 481 502 480 498 479 494 c 2
 294 66 l 2
 289 55 279 48 266 48 c 0
 253 48 243 55 238 66 c 2
 56 495 l 2
 55 499 54 502 54 506 c 2
 52 596 l 1
 112 598 l 1
 114 513 l 1
EndSplineSet
Validated: 1
EndChar

StartChar: W
Encoding: 87 87 182
Width: 536
VWidth: 0
Flags: W
HStem: 48 21G<141 148.5 385.5 393> 577 20G<54 114.045 420 480>
VStem: 55 60<150 597> 237 60<213 352> 420 60<151 598>
LayerCount: 2
Back
Fore
SplineSet
266 157 m 1
 166 57 l 2
 160 51 152 48 145 48 c 0
 137 48 130 51 124 57 c 2
 64 117 l 2
 58 123 55 130 55 138 c 2
 54 597 l 1
 114 597 l 1
 115 150 l 1
 145 121 l 1
 237 213 l 1
 237 352 l 1
 297 352 l 1
 297 211 l 1
 389 121 l 1
 420 151 l 1
 420 598 l 1
 480 598 l 1
 480 138 l 2
 480 129 477 122 471 116 c 2
 410 57 l 2
 404 52 397 49 389 49 c 0
 382 49 374 52 368 58 c 2
 266 157 l 1
EndSplineSet
Validated: 1
EndChar

StartChar: X
Encoding: 88 88 183
Width: 536
VWidth: 0
Flags: W
HStem: 578 20G<56 116 421 481>
VStem: 56 60<50 127 520 598> 421 60<50 127 520 598>
LayerCount: 2
Back
Fore
SplineSet
268 281 m 1
 116 127 l 1
 116 50 l 1
 56 50 l 1
 56 139 l 2
 56 147 59 154 65 160 c 2
 226 323 l 1
 65 487 l 2
 59 493 56 500 56 508 c 2
 56 598 l 1
 116 598 l 1
 116 520 l 1
 269 366 l 1
 421 520 l 1
 421 598 l 1
 481 598 l 1
 481 508 l 2
 481 500 478 493 472 487 c 2
 311 324 l 1
 472 160 l 2
 478 154 481 147 481 139 c 2
 481 50 l 1
 421 50 l 1
 421 127 l 1
 268 281 l 1
EndSplineSet
Validated: 1
EndChar

StartChar: Y
Encoding: 89 89 184
Width: 536
VWidth: 0
Flags: W
HStem: 49 21G<237 298> 578 20G<55 115 421 481>
VStem: 55 60<579 598> 237 61<49 371> 421 60<580 598>
LayerCount: 2
Back
Fore
SplineSet
298 371 m 1
 298 49 l 1
 237 49 l 1
 237 371 l 1
 64 545 l 2
 58 551 55 558 55 566 c 2
 55 598 l 1
 115 598 l 1
 115 579 l 1
 269 426 l 1
 421 580 l 1
 421 598 l 1
 481 598 l 1
 481 568 l 2
 481 560 479 552 473 546 c 2
 298 371 l 1
EndSplineSet
Validated: 1
EndChar

StartChar: Z
Encoding: 90 90 185
Width: 536
VWidth: 0
Flags: W
HStem: 49 61<115 481> 537 61<54 420>
VStem: 55 60<110 129> 420 60<518 537>
LayerCount: 2
Back
Fore
SplineSet
480 506 m 2
 480 498 477 491 471 485 c 2
 115 129 l 1
 115 110 l 1
 481 110 l 1
 481 50 l 1
 55 49 l 1
 55 141 l 2
 55 149 58 156 64 162 c 2
 420 518 l 1
 420 537 l 1
 54 537 l 1
 54 598 l 1
 480 598 l 1
 480 506 l 2
EndSplineSet
Validated: 1
EndChar

StartChar: AE
Encoding: 198 198 186
Width: 536
VWidth: 0
Flags: W
HStem: 49 60<359 481> 231 62<115 298> 293 61<359 481> 537 61<359 481>
VStem: 53 62<49 231 293 374> 298 183<49 109 293 354> 298 61<109 231 354 537>
LayerCount: 2
Back
Fore
SplineSet
299 537 m 1xdc
 115 374 l 1
 115 293 l 1
 298 293 l 1
 299 537 l 1xdc
54 49 m 1
 54 121 53 191 53 256 c 0
 53 299 53 340 55 378 c 1
 55 406 67 420 87 438 c 2
 233 570 l 2
 249 584 259 593 273 598 c 1
 377 598 401 598 481 598 c 1
 481 537 l 1xdc
 359 537 l 1
 359 354 l 1xba
 481 354 l 1
 481 293 l 1xbc
 359 293 l 1
 359 109 l 1xba
 481 109 l 1
 481 49 l 1
 298 49 l 1xbc
 298 231 l 1xda
 115 231 l 1
 115 49 l 1
 54 49 l 1
EndSplineSet
Validated: 1
EndChar

StartChar: Oslash
Encoding: 216 216 187
Width: 536
VWidth: 0
Flags: W
HStem: 50 60<156 378> 538 60<157 378>
VStem: 55 60<217 494> 421 60<153 432>
LayerCount: 2
Back
Fore
SplineSet
421 432 m 1
 125 140 l 1
 156 110 l 1
 378 110 l 1
 421 153 l 1
 421 432 l 1
408 506 m 1
 378 537 l 1
 157 538 l 1
 117 494 l 1
 115 217 l 1
 408 506 l 1
65 526 m 2
 122 588 l 2
 129 596 138 598 144 598 c 2
 391 597 l 2
 401 597 410 592 413 588 c 2
 473 526 l 2
 480 519 481 510 481 505 c 2
 481 140 l 2
 481 130 476 122 472 119 c 2
 411 59 l 2
 404 52 395 50 390 50 c 2
 144 50 l 2
 134 50 126 55 123 58 c 2
 64 115 l 2
 57 122 55 132 55 137 c 2
 57 506 l 2
 57 515 61 522 65 526 c 2
EndSplineSet
Validated: 1
EndChar

StartChar: semicolon
Encoding: 59 59 190
Width: 536
VWidth: 0
Flags: W
HStem: 293 122<237 359>
VStem: 237 122<107 171 293 415>
LayerCount: 2
Back
Fore
SplineSet
359 83 m 2
 359 78 358 73 357 68 c 0
 356 64 353 60 351 56 c 0
 349 52 346 47 343 44 c 2
 227 -71 l 1
 144 8 l 1
 237 107 l 1
 237 171 l 1
 358 171 l 1
 359 83 l 2
237 415 m 1
 359 415 l 1
 359 293 l 1
 237 293 l 1
 237 415 l 1
EndSplineSet
Validated: 1
EndChar

StartChar: asterisk
Encoding: 42 42 191
Width: 536
VWidth: 0
Flags: W
HStem: 578 20G<237 298>
VStem: 237 61<170 354 414 598>
LayerCount: 2
Back
Fore
SplineSet
237 354 m 1
 298 354 l 1
 298 170 l 1
 237 170 l 1
 237 354 l 1
237 598 m 1
 298 598 l 1
 298 414 l 1
 237 414 l 1
 237 598 l 1
431 528 m 1
 474 486 l 1
 375 386 l 1
 476 282 l 1
 433 240 l 1
 290 386 l 1
 431 528 l 1
105 528 m 1
 246 386 l 1
 103 240 l 1
 61 282 l 1
 162 386 l 1
 63 486 l 1
 105 528 l 1
EndSplineSet
Validated: 1
EndChar

StartChar: copyright
Encoding: 169 169 208
Width: 536
VWidth: 0
Flags: W
HStem: 50 60<190 348> 171 60<279 359> 415 60<279 359> 538 60<191 348>
VStem: 58 60<182 464> 177 60<274 372> 420 60<182 464>
LayerCount: 2
Back
Fore
SplineSet
359 475 m 1
 359 415 l 1
 279 415 l 1
 237 372 l 1
 237 274 l 1
 279 231 l 1
 359 231 l 1
 359 171 l 1
 267 171 l 2
 262 171 252 173 245 180 c 2
 185 241 l 2
 182 244 177 252 177 262 c 2
 177 384 l 2
 177 389 178 398 185 405 c 2
 245 466 l 2
 248 470 256 475 266 475 c 2
 359 475 l 1
67 498 m 2
 157 589 l 2
 164 596 173 598 178 598 c 2
 360 598 l 2
 370 598 379 593 382 589 c 2
 472 497 l 2
 479 490 480 481 480 476 c 2
 480 170 l 2
 480 160 475 152 472 149 c 2
 382 59 l 2
 375 52 365 50 360 50 c 2
 177 50 l 2
 167 50 159 56 156 59 c 2
 67 149 l 2
 60 156 58 165 58 170 c 2
 58 477 l 2
 58 487 64 495 67 498 c 2
118 464 m 1
 118 182 l 1
 190 110 l 1
 348 110 l 1
 420 182 l 1
 420 464 l 1
 348 538 l 1
 191 538 l 1
 118 464 l 1
EndSplineSet
Validated: 1
EndChar

StartChar: registered
Encoding: 174 174 209
Width: 536
VWidth: 0
Flags: W
HStem: 50 60<190 348> 293 60<236 262> 415 61<236 286> 538 60<191 348>
VStem: 58 60<182 464> 176 60<170 293 353 415> 298 60<171 226 367 402> 420 60<182 464>
LayerCount: 2
Back
Fore
SplineSet
67 498 m 2
 157 589 l 2
 164 596 173 598 178 598 c 2
 360 598 l 2
 370 598 378 593 382 589 c 2
 472 497 l 2
 479 490 480 481 480 476 c 2
 480 170 l 2
 480 160 475 152 472 149 c 2
 382 59 l 2
 374 52 365 50 360 50 c 2
 177 50 l 2
 167 50 159 55 156 59 c 2
 67 149 l 2
 60 156 58 165 58 170 c 2
 58 477 l 2
 58 487 64 494 67 498 c 2
118 464 m 1
 118 182 l 1
 190 110 l 1
 348 110 l 1
 420 182 l 1
 420 464 l 1
 348 538 l 1
 191 538 l 1
 118 464 l 1
176 476 m 1
 298 475 l 2
 308 475 316 470 319 467 c 2
 351 437 l 2
 358 430 360 421 360 415 c 2
 360 354 l 2
 360 344 355 336 351 332 c 2
 324 306 l 1
 355 247 l 2
 356 244 358 239 358 233 c 2
 358 171 l 1
 298 171 l 1
 298 226 l 1
 262 293 l 1
 236 293 l 1
 236 170 l 1
 176 170 l 1
 176 476 l 1
236 415 m 1
 236 353 l 1
 286 353 l 1
 300 367 l 1
 300 402 l 1
 286 415 l 1
 236 415 l 1
EndSplineSet
Validated: 1
EndChar

StartChar: boxA
Encoding: 1114136 -1 210
Width: 536
VWidth: 0
Flags: W
HStem: -13 62<54 481> 171 60<54 481> 415 60<54 237>
VStem: -7 61<49 171 293 415 475 556> 237 60<293 415 475 555> 481 61<49 171>
LayerCount: 2
Back
Fore
SplineSet
-7 231 m 1
 542 231 l 1
 542 -13 l 1
 -7 -13 l 1
 -7 231 l 1
54 171 m 1
 54 49 l 1
 481 49 l 1
 481 171 l 1
 54 171 l 1
53 293 m 1
 -7 293 l 1
 -5 569 l 2
 -5 579 1 587 4 590 c 2
 126 710 l 2
 132 716 139 718 145 718 c 0
 155 718 163 714 168 709 c 2
 289 588 l 2
 296 581 297 572 297 567 c 2
 297 293 l 1
 237 293 l 1
 237 415 l 1
 54 415 l 1
 53 293 l 1
54 475 m 1
 237 475 l 1
 237 555 l 1
 146 646 l 1
 55 556 l 1
 54 475 l 1
EndSplineSet
Validated: 1
EndChar

StartChar: insert
Encoding: 1114137 -1 211
Width: 536
VWidth: 0
Flags: W
HStem: 456 20G<246.073 285.856>
LayerCount: 2
Back
Fore
SplineSet
-7 18 m 1
 -7 202 l 1
 266 476 l 1
 541 199 l 1
 540 18 l 1
 266 291 l 1
 -7 18 l 1
EndSplineSet
Validated: 1
EndChar

StartChar: boxB
Encoding: 1114138 -1 212
Width: 536
VWidth: 0
Flags: W
HStem: -13 62<54 481> 171 60<54 481> 294 60<238 297 359 439> 476 60<359 437> 659 59<238 297 359 440>
VStem: -7 61<49 171> 297 62<354 476 536 659> 481 61<49 171 396 434 580 616>
LayerCount: 2
Back
Fore
SplineSet
-7 231 m 1
 542 231 l 1
 542 -13 l 1
 -7 -13 l 1
 -7 231 l 1
54 171 m 1
 54 49 l 1
 481 49 l 1
 481 171 l 1
 54 171 l 1
238 659 m 1
 238 719 l 1
 452 718 l 2
 462 718 470 713 473 710 c 2
 534 649 l 2
 541 642 543 633 543 628 c 2
 543 568 l 2
 543 558 538 549 534 546 c 2
 494 508 l 1
 533 466 l 2
 540 459 541 450 541 446 c 2
 541 384 l 2
 541 374 536 366 533 363 c 2
 473 303 l 2
 466 296 457 294 452 294 c 2
 238 294 l 1
 238 354 l 1
 297 354 l 1
 297 659 l 1
 238 659 l 1
359 354 m 1
 439 354 l 1
 481 396 l 1
 481 434 l 1
 441 476 l 1
 359 476 l 1
 359 354 l 1
359 659 m 1
 359 536 l 1
 437 536 l 1
 483 580 l 1
 483 616 l 1
 440 659 l 1
 359 659 l 1
EndSplineSet
Validated: 1
EndChar

StartChar: box6
Encoding: 1114139 -1 213
Width: 536
VWidth: 0
Flags: W
HStem: -73 60<54 481> 48 60<220 318> 172 60<177 195> 233 60<280 316> 537 61<54 481>
VStem: -7 61<-13 537> 117 60<151 172 232 372> 361 60<153 190> 481 61<-13 537>
LayerCount: 2
Back
Fore
SplineSet
177 232 m 1
 195 232 l 1
 246 284 l 2
 249 287 257 293 267 293 c 2
 329 293 l 2
 334 293 342 291 349 284 c 2
 411 224 l 2
 415 221 421 212 421 202 c 2
 421 140 l 2
 421 136 419 127 412 120 c 2
 353 58 l 2
 349 54 341 48 331 48 c 2
 207 48 l 2
 202 48 193 50 186 57 c 2
 125 118 l 2
 122 121 117 129 117 139 c 2
 117 384 l 2
 117 389 118 398 125 405 c 2
 185 467 l 1
 229 426 l 1
 177 372 l 1
 177 232 l 1
177 172 m 1
 177 151 l 1
 220 108 l 1
 318 108 l 1
 361 153 l 1
 361 190 l 1
 316 233 l 1
 280 233 l 1
 228 181 l 2
 221 174 212 172 207 172 c 2
 177 172 l 1
54 537 m 1
 54 -13 l 1
 481 -13 l 1
 481 537 l 1
 54 537 l 1
-7 598 m 1
 542 598 l 1
 542 -73 l 1
 -7 -73 l 1
 -7 598 l 1
EndSplineSet
Validated: 1
EndChar

StartChar: plusminus
Encoding: 177 177 214
Width: 536
VWidth: 0
Flags: W
HStem: 109 62<54 481> 415 61<54 237 298 481> 639 20G<237 298>
VStem: 237 61<231 415 476 659>
LayerCount: 2
Back
Fore
SplineSet
237 659 m 1
 298 659 l 1
 298 476 l 1
 481 476 l 1
 481 415 l 1
 298 415 l 1
 298 231 l 1
 237 231 l 1
 237 415 l 1
 54 415 l 1
 54 476 l 1
 237 476 l 1
 237 659 l 1
54 171 m 1
 481 171 l 1
 481 109 l 1
 54 109 l 1
 54 171 l 1
EndSplineSet
Validated: 1
EndChar

StartChar: Eth
Encoding: 208 208 215
Width: 536
VWidth: 0
Flags: W
HStem: 49 61<54 115 176 317> 298 54<55 115 176 299> 538 60<54 115 176 317>
VStem: 115 61<110 298 352 538> 420 60<213 433>
LayerCount: 2
Back
Fore
SplineSet
115 538 m 1
 54 538 l 1
 54 598 l 1
 330 597 l 2
 340 597 348 592 351 588 c 2
 471 466 l 2
 478 459 480 450 480 445 c 2
 480 201 l 2
 480 191 475 183 471 179 c 2
 350 59 l 2
 343 52 334 50 329 50 c 2
 54 49 l 1
 54 109 l 1
 115 109 l 1
 115 298 l 1
 55 298 l 1
 55 352 l 1
 115 352 l 1
 115 538 l 1
176 110 m 1
 317 110 l 1
 420 213 l 1
 420 433 l 1
 317 537 l 1
 176 538 l 1
 176 352 l 1
 299 352 l 1
 299 298 l 1
 176 298 l 1
 176 110 l 1
EndSplineSet
Validated: 1
EndChar

StartChar: rightarrow
Encoding: 1114140 -1 216
Width: 536
VWidth: 0
Flags: W
HStem: 293 61<-7 298> 456 20G<298 321.66>
LayerCount: 2
Back
Fore
SplineSet
298 476 m 1
 479 323 l 1
 298 171 l 1
 298 293 l 1
 -7 293 l 1
 -7 354 l 1
 298 354 l 1
 298 476 l 1
EndSplineSet
Validated: 1
EndChar

StartChar: Thorn
Encoding: 222 222 217
Width: 536
VWidth: 0
Flags: W
HStem: 141 60<113 316> 447 60<113 317> 577 20G<55 113>
VStem: 55 58<50 141 201 447 507 597> 420 60<306 343>
LayerCount: 2
Back
Fore
SplineSet
55 597 m 1
 113 597 l 1
 113 507 l 1
 329 507 l 2
 339 507 347 501 350 498 c 2
 472 377 l 2
 479 370 480 360 480 355 c 2
 480 293 l 2
 480 283 475 275 472 272 c 2
 350 150 l 2
 343 143 334 141 329 141 c 2
 113 141 l 1
 113 50 l 1
 55 50 l 1
 55 597 l 1
113 447 m 1
 113 201 l 1
 316 201 l 1
 420 306 l 1
 420 343 l 1
 317 447 l 1
 113 447 l 1
EndSplineSet
Validated: 1
EndChar

StartChar: upshift
Encoding: 1114141 -1 218
Width: 536
VWidth: 0
Flags: W
HStem: -11 60<234 299> 315 60<140 174 359 392>
VStem: 174 60<49 315> 299 60<49 315>
LayerCount: 2
Back
Fore
SplineSet
174 -11 m 1
 174 315 l 1
 18 315 l 1
 266 637 l 1
 513 315 l 1
 359 315 l 1
 359 -11 l 1
 174 -11 l 1
234 49 m 1
 299 49 l 1
 299 375 l 1
 392 375 l 1
 266 539 l 1
 140 375 l 1
 234 375 l 1
 234 49 l 1
EndSplineSet
Validated: 1
EndChar

StartChar: human
Encoding: 1114142 -1 219
Width: 536
VWidth: 0
Flags: W
HStem: 354 61<54 237 298 481> 602 60<239.403 296.642>
VStem: 177 60<537.973 599.451> 237 61<245 354 415 491.593> 299 60<537.913 599.579>
LayerCount: 2
Back
Fore
SplineSet
104 57 m 1xd8
 66 104 l 1
 237 245 l 1
 237 354 l 1
 54 354 l 1
 54 415 l 1
 237 415 l 1
 237 481 l 1xd8
 200 494 177 530 177 568 c 0xe8
 177 621 220 662 268 662 c 0
 322 662 359 616 359 568 c 0
 359 526 332 493 297 481 c 1
 298 415 l 1
 481 415 l 1
 481 354 l 1
 298 354 l 1
 298 245 l 1
 471 101 l 1
 433 55 l 1
 267 193 l 1
 104 57 l 1xd8
237 568 m 0xe8
 237 550 251 536 268 536 c 0
 283 536 299 548 299 568 c 0
 299 586 285 602 268 602 c 0
 253 602 237 588 237 568 c 0xe8
EndSplineSet
Validated: 1
EndChar

StartChar: underB
Encoding: 1114143 -1 220
Width: 536
VWidth: 0
Flags: W
HStem: 171 60<-7 542> 294 60<117 177 238 319> 477 59<238 317> 659 60<117 177 238 319>
VStem: 177 61<354 477 536 659> 361 60<397 434 580 616>
LayerCount: 2
Back
Fore
SplineSet
117 659 m 1
 117 719 l 1
 331 719 l 2
 341 719 350 713 353 710 c 2
 414 650 l 2
 421 643 422 633 422 628 c 2
 422 568 l 2
 422 558 417 549 413 546 c 2
 374 508 l 1
 413 466 l 2
 420 459 421 450 421 446 c 2
 421 384 l 2
 421 374 415 366 412 363 c 2
 353 303 l 2
 346 296 336 294 331 294 c 2
 117 294 l 1
 117 354 l 1
 177 354 l 1
 177 659 l 1
 117 659 l 1
238 354 m 1
 319 354 l 1
 361 397 l 1
 361 434 l 1
 321 477 l 1
 238 477 l 1
 238 354 l 1
238 659 m 1
 238 536 l 1
 317 536 l 1
 362 580 l 1
 362 616 l 1
 319 659 l 1
 238 659 l 1
-7 231 m 1
 542 231 l 1
 542 171 l 1
 -7 171 l 1
 -7 231 l 1
EndSplineSet
Validated: 1
EndChar

StartChar: downshift
Encoding: 1114144 -1 221
Width: 536
VWidth: 0
Flags: W
HStem: 272 60<142 176 362 394> 598 60<236 302>
VStem: 176 60<332 598> 302 60<332 598>
LayerCount: 2
Back
Fore
SplineSet
176 658 m 1
 362 658 l 1
 362 332 l 1
 516 332 l 1
 268 10 l 1
 20 332 l 1
 176 332 l 1
 176 658 l 1
236 598 m 1
 236 272 l 1
 142 272 l 1
 268 108 l 1
 394 272 l 1
 302 272 l 1
 302 598 l 1
 236 598 l 1
EndSplineSet
Validated: 1
EndChar

StartChar: boxquestion
Encoding: 1114145 -1 222
Width: 536
VWidth: 0
Flags: W
HStem: -73 60<61 475> 49 60<242 303> 538 60<224 323> 659 61<61 475>
VStem: 0 61<-13 659> 120 60<415 494> 243 60<49 109 172 251> 366 60<399 493> 475 61<-13 659>
LayerCount: 2
Back
Fore
SplineSet
180 415 m 1
 120 415 l 1
 120 507 l 2
 120 517 125 525 129 528 c 2
 191 589 l 2
 198 596 207 598 212 598 c 2
 336 598 l 2
 346 598 353 592 357 588 c 2
 417 526 l 2
 424 519 426 511 426 506 c 2
 426 386 l 2
 426 376 420 368 417 365 c 2
 303 251 l 1
 303 172 l 1
 243 172 l 1
 243 263 l 2
 243 268 245 277 252 284 c 2
 366 399 l 1
 366 493 l 1
 323 538 l 1
 224 538 l 1
 180 494 l 1
 180 415 l 1
242 109 m 1
 303 109 l 1
 303 49 l 1
 242 49 l 1
 242 109 l 1
61 659 m 1
 61 -13 l 1
 475 -13 l 1
 475 659 l 1
 61 659 l 1
0 720 m 1
 536 720 l 1
 536 -73 l 1
 0 -73 l 1
 0 720 l 1
EndSplineSet
Validated: 1
EndChar

StartChar: boxsolid
Encoding: 1114146 -1 223
Width: 536
VWidth: 0
Flags: W
VStem: 0 549<-73 720>
LayerCount: 2
Back
Fore
SplineSet
0 720 m 1
 549 720 l 1
 549 -73 l 1
 0 -73 l 1
 0 720 l 1
EndSplineSet
Validated: 1
EndChar

StartChar: badcommhi
Encoding: 1114162 -1 240
Width: 536
VWidth: 0
Flags: W
HStem: 293 62<0 149 391 536>
LayerCount: 2
Back
Fore
SplineSet
0 689 m 1
 336 355 l 1
 536 355 l 1
 536 294 l 1
 391 293 l 1
 536 152 l 1
 537 -31 l 1
 215 293 l 1
 0 293 l 1
 0 355 l 1
 149 355 l 1
 0 507 l 1
 0 689 l 1
EndSplineSet
Validated: 1
EndChar

StartChar: commhi
Encoding: 1114163 -1 241
Width: 536
VWidth: 0
Flags: W
HStem: 293 59<0 536>
LayerCount: 2
Back
Fore
SplineSet
0 352 m 1
 536 352 l 1
 536 293 l 1
 0 293 l 1
 0 352 l 1
EndSplineSet
Validated: 1
EndChar

StartChar: commjag
Encoding: 1114164 -1 242
Width: 536
VWidth: 0
Flags: W
HStem: 49 60<166 549> 295 60<0 264>
LayerCount: 2
Back
Fore
SplineSet
0 295 m 1
 0 355 l 1
 408 355 l 1
 166 109 l 1
 549 109 l 1
 549 49 l 1
 22 49 l 1
 264 295 l 1
 0 295 l 1
EndSplineSet
Validated: 1
EndChar

StartChar: commlo
Encoding: 1114165 -1 243
Width: 536
VWidth: 0
Flags: W
HStem: 48 62<0 549>
LayerCount: 2
Back
Fore
SplineSet
0 110 m 1
 549 110 l 1
 549 48 l 1
 0 48 l 1
 0 110 l 1
EndSplineSet
Validated: 1
EndChar

StartChar: clockleft
Encoding: 1114166 -1 244
Width: 536
VWidth: 0
Flags: W
HStem: -136 66<426.33 487.822> -75 66<243.905 305.962> 46 66<122.317 183.683> 230 66<60.3303 121.822> 414 66<122.028 183.972> 534 66<245.028 306.972> 594 66<425.028 486.972>
VStem: 58 66<232.178 293.67> 120 66<48.0382 110.095 416.028 477.972> 242 66<-72.6826 -11.3174 536.317 597.683> 424 66<-133.822 -72.3303 4 250 596.317 657.683>
LayerCount: 2
Back
Fore
SplineSet
423 627 m 0x3a60
 423 645 438 660 456 660 c 0
 474 660 489 645 489 627 c 0
 489 609 474 594 456 594 c 0
 438 594 423 609 423 627 c 0x3a60
243 567 m 0
 243 585 258 600 276 600 c 0
 294 600 309 585 309 567 c 0
 309 549 294 534 276 534 c 0x3c60
 258 534 243 549 243 567 c 0
120 447 m 0x38e0
 120 465 135 480 153 480 c 0
 171 480 186 465 186 447 c 0
 186 429 171 414 153 414 c 0
 135 414 120 429 120 447 c 0x38e0
58 262 m 0x3960
 58 281 73 296 92 296 c 0
 110 296 124 281 124 262 c 0
 124 244 110 230 92 230 c 0
 73 230 58 244 58 262 c 0x3960
120 80 m 0x38e0
 120 98 135 112 153 112 c 0
 171 112 186 98 186 80 c 0
 186 61 171 46 153 46 c 0
 135 46 120 61 120 80 c 0x38e0
242 -42 m 0
 242 -24 256 -9 274 -9 c 0
 293 -9 308 -24 308 -42 c 0
 308 -60 293 -75 274 -75 c 0x7860
 256 -75 242 -60 242 -42 c 0
424 -104 m 0
 424 -85 439 -70 458 -70 c 0
 476 -70 490 -85 490 -104 c 0
 490 -122 476 -136 458 -136 c 0xb860
 439 -136 424 -122 424 -104 c 0
536 385 m 1
 536 300 l 1
 488 250 l 1
 488 4 l 1
 428 4 l 1
 428 262 l 2
 428 267 429 276 436 284 c 2
 536 385 l 1
EndSplineSet
Validated: 1
EndChar

StartChar: clockright
Encoding: 1114167 -1 245
Width: 536
VWidth: 0
Flags: W
HStem: -14 66<124.178 185.544> 108 66<243.905 305.85> 291 66<303.905 365.85> 476 66<245.317 306.683> 594 66<122.028 183.972>
VStem: 122 66<-11.5435 49.8216 596.95 657.05> 242 66<110.317 171.683 478.178 539.544> 302 66<293.317 354.683>
LayerCount: 2
Back
Fore
SplineSet
120 627 m 0xfc
 120 645 135 660 153 660 c 0
 171 660 186 645 186 627 c 0
 186 609 171 594 153 594 c 0
 135 594 120 609 120 627 c 0xfc
243 508 m 0
 243 526 258 542 276 542 c 0
 294 542 309 526 309 508 c 0
 309 490 294 476 276 476 c 0
 258 476 243 490 243 508 c 0
302 324 m 0xfd
 302 342 316 357 334 357 c 0
 352 357 368 342 368 324 c 0
 368 306 352 291 334 291 c 0
 316 291 302 306 302 324 c 0xfd
242 141 m 0xfe
 242 159 256 174 274 174 c 0
 292 174 308 159 308 141 c 0
 308 123 292 108 274 108 c 0
 256 108 242 123 242 141 c 0xfe
122 20 m 0
 122 38 136 52 154 52 c 0
 172 52 188 38 188 20 c 0
 188 2 172 -14 154 -14 c 0
 136 -14 122 2 122 20 c 0
138 537 m 1
 180 495 l 1
 -0 311 l 1
 0 340 0 368 -0 397 c 1
 138 537 l 1
EndSplineSet
Validated: 1
EndChar

StartChar: lock
Encoding: 1114168 -1 246
Width: 536
VWidth: 0
Flags: W
LayerCount: 2
Back
Fore
SplineSet
547 754 m 1
 547 480 l 1
 424 356 l 1
 549 230 l 1
 548 -44 l 1
 287 219 l 1
 -1 -71 l 1
 -2 203 l 1
 150 356 l 1
 0 507 l 1
 0 780 l 1
 287 493 l 1
 547 754 l 1
EndSplineSet
Validated: 1
EndChar

StartChar: leftarrow
Encoding: 1114169 -1 248
Width: 536
VWidth: 0
Flags: W
HStem: 293 61<230 535> 456 20G<206.34 230>
LayerCount: 2
Back
Fore
SplineSet
230 476 m 1
 230 354 l 1
 535 354 l 1
 535 293 l 1
 230 293 l 1
 230 171 l 1
 49 323 l 1
 230 476 l 1
EndSplineSet
Validated: 1
EndChar

StartChar: thorn
Encoding: 254 254 249
Width: 536
VWidth: 0
Flags: W
HStem: 48 60<122 263> 414 60<122 264> 638 20G<60 122>
VStem: 60 62<-132 48 108 414 474 658> 367 60<213 311>
LayerCount: 2
Back
Fore
SplineSet
60 658 m 1
 122 658 l 1
 122 474 l 1
 276 474 l 2
 286 474 295 468 298 465 c 2
 418 344 l 2
 425 337 427 328 427 323 c 2
 427 201 l 2
 427 191 421 183 418 180 c 2
 296 57 l 2
 289 50 280 48 275 48 c 2
 122 48 l 1
 122 -132 l 1
 60 -132 l 1
 60 658 l 1
122 414 m 1
 122 108 l 1
 263 108 l 1
 367 213 l 1
 367 311 l 1
 264 414 l 1
 122 414 l 1
EndSplineSet
Validated: 1
EndChar

StartChar: keyleft
Encoding: 1114170 -1 250
Width: 536
VWidth: 0
Flags: W
HStem: 226 60<276.906 399.636> 354 61<493.425 536> 490 60<275.787 399.417>
VStem: 176 60<325.787 449.094> 440 96<354.641 413.047>
LayerCount: 2
Back
Fore
SplineSet
236 388 m 0
 236 333 280 286 338 286 c 0
 393 286 440 330 440 388 c 0
 440 443 396 490 338 490 c 0
 283 490 236 446 236 388 c 0
176 388 m 0
 176 480 251 550 338 550 c 0
 420 550 485 490 498 415 c 1
 536 415 l 1
 536 354 l 1
 496 354 l 1
 480 279 414 226 338 226 c 0
 246 226 176 301 176 388 c 0
EndSplineSet
Validated: 1
EndChar

StartChar: keyright
Encoding: 1114171 -1 251
Width: 536
VWidth: 0
Flags: W
HStem: 232 183<183 366> 354 61<0 183 366 427>
VStem: 183 183<232 354> 427 122<171 355>
LayerCount: 2
Back
Fore
SplineSet
0 415 m 1x70
 549 415 l 1x70
 549 171 l 1
 427 171 l 1
 427 355 l 1
 366 355 l 1
 366 232 l 1
 183 232 l 1xb0
 183 354 l 1
 0 354 l 1
 0 415 l 1x70
EndSplineSet
Validated: 1
EndChar

StartChar: box4
Encoding: 1114172 -1 252
Width: 536
VWidth: 0
Flags: W
HStem: -74 61<59 488> 49 21G<307 367> 171 60<183 307 367 427> 455 20G<330.5 342.5> 538 58<59 488>
VStem: 0 59<-13 538> 123 60<231 249> 307 60<49 171 231 373> 488 59<-13 538>
LayerCount: 2
Back
Fore
SplineSet
367 231 m 1
 427 231 l 1
 427 171 l 1
 367 171 l 1
 367 49 l 1
 307 49 l 1
 307 171 l 1
 153 171 l 2
 142 171 123 180 123 201 c 2
 123 261 l 2
 123 266 125 275 132 283 c 2
 315 467 l 2
 316 467 324 475 337 475 c 0
 348 475 367 467 367 445 c 2
 367 231 l 1
307 231 m 1
 307 373 l 1
 183 249 l 1
 183 231 l 1
 307 231 l 1
59 538 m 1
 59 -13 l 1
 488 -13 l 1
 488 538 l 1
 59 538 l 1
0 596 m 1
 547 596 l 1
 547 -74 l 1
 0 -74 l 1
 0 596 l 1
EndSplineSet
Validated: 1
EndChar

StartChar: underA
Encoding: 1114173 -1 253
Width: 536
VWidth: 0
Flags: W
HStem: 172 58<0 544> 418 60<183 366>
VStem: 122 61<297 418 478 560> 366 60<296 418 478 558>
LayerCount: 2
Back
Fore
SplineSet
0 230 m 1
 544 230 l 1
 544 172 l 1
 0 172 l 1
 0 230 l 1
182 296 m 1
 122 297 l 1
 124 573 l 2
 124 583 130 590 133 594 c 2
 255 713 l 2
 261 719 268 721 275 721 c 0
 284 721 292 718 297 713 c 2
 418 592 l 2
 425 584 426 575 426 570 c 2
 426 296 l 1
 366 296 l 1
 366 418 l 1
 183 418 l 1
 182 296 l 1
183 478 m 1
 366 478 l 1
 366 558 l 1
 275 649 l 1
 184 560 l 1
 183 478 l 1
EndSplineSet
Validated: 1
EndChar

StartChar: magcard
Encoding: 1114174 -1 254
Width: 536
VWidth: 0
Flags: W
HStem: 108 66<60 492> 232 62<60 488> 474 64<60 488>
VStem: 0 60<174 232 294 474> 488 60<174 232 294 474>
LayerCount: 2
Back
Fore
SplineSet
60 232 m 1
 60 174 l 1
 492 174 l 1
 492 232 l 1
 60 232 l 1
60 474 m 1
 60 294 l 1
 488 294 l 1
 488 474 l 1
 60 474 l 1
0 538 m 1
 548 538 l 1
 548 108 l 1
 0 108 l 1
 0 538 l 1
EndSplineSet
Validated: 1
EndChar

StartChar: boxhuman
Encoding: 1114175 -1 255
Width: 536
VWidth: 0
Flags: W
HStem: -70 54<98 448> 294 61<62 244 305 490> 542 60<246.403 303.642> 660 60<62 490>
VStem: 0 62<32 294 355 660> 184 60<477.973 539.451> 244 61<185 294 355 431.593> 306 60<477.913 539.579> 490 58<27 294 355 660>
LayerCount: 2
Back
Fore
SplineSet
244 508 m 0xfd80
 244 490 258 476 275 476 c 0
 290 476 306 488 306 508 c 0
 306 526 292 542 275 542 c 0
 260 542 244 528 244 508 c 0xfd80
0 720 m 1
 548 720 l 1
 548 -70 l 1
 0 -70 l 1
 0 720 l 1
490 27 m 1
 490 294 l 1
 305 294 l 1
 305 185 l 1xfb80
 490 27 l 1
490 355 m 1
 490 660 l 1
 62 660 l 1
 62 355 l 1
 244 355 l 1
 244 421 l 1xfb80
 207 434 184 470 184 508 c 0xfd80
 184 561 227 602 275 602 c 0
 329 602 366 556 366 508 c 0
 366 466 339 433 304 421 c 1
 305 355 l 1
 490 355 l 1
98 -16 m 1
 448 -16 l 1
 274 133 l 1
 98 -16 l 1
62 294 m 1
 62 32 l 1
 244 185 l 1
 244 294 l 1
 62 294 l 1
EndSplineSet
Validated: 1
EndChar

StartChar: apl_bracketright
Encoding: 1114177 -1 257
Width: 536
VWidth: 0
Flags: W
HStem: -13 62<184 305> 598 61<184 305>
VStem: 184 182<-13 49 598 659> 305 61<49 598>
LayerCount: 2
Back
Fore
SplineSet
184 659 m 1xe0
 366 659 l 1
 366 -13 l 1
 184 -13 l 1
 184 49 l 1xe0
 305 49 l 1
 305 598 l 1xd0
 184 598 l 1
 184 659 l 1xe0
EndSplineSet
Validated: 1
EndChar

StartChar: apl_bracketleft
Encoding: 1114178 -1 258
Width: 536
VWidth: 0
Flags: W
HStem: -13 62<244 366> 598 61<244 366>
VStem: 184 182<-13 49 598 659> 184 60<49 598>
LayerCount: 2
Back
Fore
SplineSet
184 659 m 1xe0
 366 659 l 1
 366 598 l 1xe0
 244 598 l 1
 244 49 l 1xd0
 366 49 l 1
 366 -13 l 1
 184 -13 l 1
 184 659 l 1xe0
EndSplineSet
Validated: 1
EndChar

StartChar: apl_stile
Encoding: 1114179 -1 259
Width: 536
VWidth: 0
Flags: W
VStem: 244 61<-198 801>
LayerCount: 2
Back
Fore
SplineSet
244 801 m 1
 305 801 l 1
 305 -198 l 5
 244 -198 l 5
 244 801 l 1
EndSplineSet
Validated: 1
EndChar

StartChar: apl_2vertical
Encoding: 1114180 -1 260
Width: 536
VWidth: 0
Flags: W
VStem: 92 60<-198 801> 396 62<-198 801>
LayerCount: 2
Back
Fore
SplineSet
396 801 m 1
 458 801 l 1
 458 -198 l 5
 396 -198 l 5
 396 801 l 1
92 801 m 1
 152 801 l 1
 152 -198 l 5
 92 -198 l 5
 92 801 l 1
EndSplineSet
Validated: 1
EndChar

StartChar: apl_2horizontal
Encoding: 1114181 -1 261
Width: 536
VWidth: 0
Flags: W
HStem: -104 61<-1 535> 629 60<-1 535>
LayerCount: 2
Back
Fore
SplineSet
-1 -43 m 5
 535 -43 l 1
 535 -104 l 1
 -1 -104 l 5
 -1 -43 l 5
-1 689 m 5
 535 689 l 1
 535 629 l 1
 -1 629 l 5
 -1 689 l 5
EndSplineSet
Validated: 1
EndChar

StartChar: apl_leftvbar
Encoding: 1114182 -1 262
Width: 536
VWidth: 0
Flags: W
VStem: 92 60<-198 801>
LayerCount: 2
Back
Fore
SplineSet
92 801 m 1
 152 801 l 1
 152 -198 l 5
 92 -198 l 5
 92 801 l 1
EndSplineSet
Validated: 1
EndChar

StartChar: apl_rightvbar
Encoding: 1114183 -1 263
Width: 536
VWidth: 0
Flags: W
VStem: 396 62<-198 801>
LayerCount: 2
Back
Fore
SplineSet
396 801 m 1
 458 801 l 1
 458 -198 l 5
 396 -198 l 5
 396 801 l 1
EndSplineSet
Validated: 1
EndChar

StartChar: apl_midvbar
Encoding: 1114184 -1 264
Width: 536
VWidth: 0
Flags: W
VStem: 244 61<-199 801>
LayerCount: 2
Back
Fore
SplineSet
244 801 m 1
 305 801 l 1
 305 -199 l 5
 244 -199 l 5
 244 801 l 1
EndSplineSet
Validated: 1
EndChar

StartChar: apl_leftsolid
Encoding: 1114185 -1 265
Width: 536
VWidth: 0
Flags: W
VStem: -1 275<-198 801>
LayerCount: 2
Back
Fore
SplineSet
-1 801 m 1
 274 801 l 1
 274 -198 l 5
 -1 -198 l 5
 -1 801 l 1
EndSplineSet
Validated: 1
EndChar

StartChar: apl_rightsolid
Encoding: 1114186 -1 266
Width: 536
VWidth: 0
Flags: W
VStem: 274 260<-198 801>
LayerCount: 2
Back
Fore
SplineSet
274 801 m 1
 534 801 l 5
 534 -198 l 5
 274 -198 l 1
 274 801 l 1
EndSplineSet
Validated: 1
EndChar

StartChar: apl_topsolid
Encoding: 1114187 -1 267
Width: 536
VWidth: 0
Flags: W
HStem: 293 488<0 549>
VStem: 0 549<293 781>
LayerCount: 2
Back
Fore
SplineSet
0 781 m 1
 549 781 l 1
 549 293 l 1
 0 293 l 1
 0 781 l 1
EndSplineSet
Validated: 1
EndChar

StartChar: apl_bottomsolid
Encoding: 1114188 -1 268
Width: 536
VWidth: 0
Flags: W
HStem: -195 488<0 549>
VStem: 0 549<-195 293>
LayerCount: 2
Back
Fore
SplineSet
0 293 m 1
 549 293 l 1
 549 -195 l 1
 0 -195 l 1
 0 293 l 1
EndSplineSet
Validated: 1
EndChar

StartChar: apl_solid
Encoding: 1114189 -1 269
Width: 536
VWidth: 0
Flags: W
VStem: 0 549<-195 781>
LayerCount: 2
Back
Fore
SplineSet
0 781 m 1
 549 781 l 1
 549 -195 l 1
 0 -195 l 1
 0 781 l 1
EndSplineSet
Validated: 1
EndChar

StartChar: apl_midhbar
Encoding: 1114190 -1 270
Width: 536
VWidth: 0
Flags: W
HStem: 293 61<0 549>
LayerCount: 2
Back
Fore
SplineSet
0 354 m 1
 549 354 l 1
 549 293 l 1
 0 293 l 1
 0 354 l 1
EndSplineSet
Validated: 1
EndChar

StartChar: apl_lowerleft
Encoding: 1114191 -1 271
Width: 536
VWidth: 0
Flags: W
HStem: 293 61<436.419 549>
VStem: 242 62<485.474 781>
LayerCount: 2
Back
Fore
SplineSet
244 781 m 1
 305 781 l 1
 305 740 304 700 304 661 c 0
 304 492 325 361 549 354 c 1
 549 293 l 1
 272 293 242 405 242 600 c 0
 242 654 244 715 244 781 c 1
EndSplineSet
Validated: 1
EndChar

StartChar: apl_upperleft
Encoding: 1114192 -1 272
Width: 536
VWidth: 0
Flags: W
HStem: 293 61<423.476 534>
VStem: 238 63<-199 170.484>
LayerCount: 2
Back
Fore
SplineSet
239 -199 m 5
 239 -113 238 -28 238 43 c 0
 238 230 261 354 534 354 c 1
 534 293 l 1
 315 286 301 152 301 -11 c 0
 301 -70 300 -137 300 -199 c 5
 239 -199 l 5
EndSplineSet
Validated: 1
EndChar

StartChar: apl_leftjoin
Encoding: 1114193 -1 273
Width: 536
VWidth: 0
Flags: W
HStem: 293 61<305 535>
VStem: 244 61<-199 293 354 801>
LayerCount: 2
Back
Fore
SplineSet
244 801 m 1
 305 801 l 1
 305 354 l 1
 535 354 l 1
 535 293 l 1
 305 293 l 1
 305 -199 l 5
 244 -199 l 5
 244 801 l 1
EndSplineSet
Validated: 1
EndChar

StartChar: apl_bottomjoin
Encoding: 1114194 -1 274
Width: 536
VWidth: 0
Flags: W
HStem: 293 61<-1 244 305 534>
VStem: 244 61<354 801>
LayerCount: 2
Back
Fore
SplineSet
244 801 m 5
 305 801 l 5
 305 354 l 1
 534 354 l 1
 534 293 l 1
 -1 293 l 1
 -1 354 l 1
 244 354 l 1
 244 801 l 5
EndSplineSet
Validated: 1
EndChar

StartChar: apl_intersect
Encoding: 1114195 -1 275
Width: 536
VWidth: 0
Flags: W
HStem: 293 61<0 244 305 535>
VStem: 244 61<-198 293 354 801>
LayerCount: 2
Back
Fore
SplineSet
244 801 m 1
 305 801 l 1
 305 354 l 1
 535 354 l 1
 535 293 l 1
 305 293 l 1
 305 -198 l 5
 244 -198 l 5
 244 293 l 1
 0 293 l 1
 0 354 l 1
 244 354 l 1
 244 801 l 1
EndSplineSet
Validated: 1
EndChar

StartChar: apl_lowerright
Encoding: 1114196 -1 276
Width: 536
VWidth: 0
Flags: W
HStem: 293 61<0 112.581>
VStem: 245 62<486.588 801>
LayerCount: 2
Back
Fore
SplineSet
244 801 m 5
 305 801 l 5
 305 735 307 654 307 600 c 0
 307 405 277 293 0 293 c 1
 0 354 l 1
 225 361 245 493 245 664 c 0
 245 701 244 761 244 801 c 5
EndSplineSet
Validated: 1
EndChar

StartChar: apl_upperright
Encoding: 1114197 -1 277
Width: 536
VWidth: 0
Flags: W
HStem: 293 61<0 111.508>
VStem: 248 63<-199 154.973>
LayerCount: 2
Back
Fore
SplineSet
0 354 m 1
 273 354 311 230 311 43 c 0
 311 -28 310 -113 310 -199 c 5
 249 -199 l 5
 249 -137 248 -70 248 -11 c 0
 248 152 219 286 0 293 c 1
 0 354 l 1
EndSplineSet
Validated: 1
EndChar

StartChar: apl_rightjoin
Encoding: 1114198 -1 278
Width: 536
VWidth: 0
Flags: W
HStem: 293 61<0 244>
VStem: 244 61<-199 293 354 801>
LayerCount: 2
Back
Fore
SplineSet
244 801 m 1
 305 801 l 1
 305 -199 l 5
 244 -199 l 5
 244 293 l 1
 0 293 l 1
 0 354 l 1
 244 354 l 1
 244 801 l 1
EndSplineSet
Validated: 1
EndChar

StartChar: apl_topjoin
Encoding: 1114199 -1 279
Width: 536
VWidth: 0
Flags: W
HStem: 293 61<0 244 305 535>
VStem: 244 61<-198 293>
LayerCount: 2
Back
Fore
SplineSet
0 354 m 1
 535 354 l 1
 535 293 l 1
 305 293 l 1
 305 -198 l 5
 244 -198 l 5
 244 293 l 1
 0 293 l 1
 0 354 l 1
EndSplineSet
Validated: 1
EndChar

StartChar: dec_solid
Encoding: 1114200 -1 280
Width: 536
VWidth: 0
Flags: W
VStem: 152 244<-199 801>
LayerCount: 2
Back
Fore
SplineSet
152 801 m 1
 396 801 l 1
 396 -199 l 5
 152 -199 l 5
 152 801 l 1
EndSplineSet
Validated: 1
EndChar

StartChar: dec_filled_circle
Encoding: 1114201 -1 281
Width: 536
VWidth: 0
Flags: W
HStem: 203 240<212.684 339.756>
VStem: 162 228<253.653 392.782>
LayerCount: 2
Back
Fore
SplineSet
162 323 m 0
 162 390 214 443 276 443 c 0
 339 443 390 390 390 323 c 0
 390 257 339 203 276 203 c 0
 214 203 162 257 162 323 c 0
EndSplineSet
Validated: 1
EndChar

StartChar: dec_ht
Encoding: 1114203 -1 283
Width: 536
VWidth: 0
Flags: W
HStem: 262 61<244 305 366 428> 507 60<152 214>
VStem: 92 60<385 507 567 689> 214 60<385 507 567 689> 305 61<19 262>
LayerCount: 2
Back
Fore
SplineSet
92 689 m 5
 152 689 l 5
 152 567 l 5
 214 567 l 5
 214 689 l 5
 274 689 l 5
 274 385 l 5
 214 385 l 5
 214 507 l 5
 152 507 l 5
 152 385 l 5
 92 385 l 5
 92 689 l 5
244 323 m 1
 428 323 l 1
 428 262 l 1
 366 262 l 1
 366 19 l 1
 305 19 l 1
 305 262 l 1
 244 263 l 1
 244 323 l 1
EndSplineSet
Validated: 1
EndChar

StartChar: dec_ff
Encoding: 1114204 -1 284
Width: 536
VWidth: 0
Flags: W
HStem: 143 61<304 396> 266 60<304 426> 506 61<152 244> 629 60<152 274>
VStem: 92 60<385 506 567 629> 244 60<22 143 204 266>
LayerCount: 2
Back
Fore
SplineSet
244 326 m 1
 426 326 l 1
 426 266 l 1
 304 266 l 1
 304 204 l 1
 396 204 l 1
 396 143 l 1
 304 143 l 1
 304 22 l 1
 244 22 l 1
 244 326 l 1
92 689 m 1
 274 689 l 1
 274 629 l 1
 152 629 l 1
 152 567 l 1
 244 567 l 1
 244 506 l 1
 152 506 l 1
 152 385 l 1
 92 385 l 1
 92 689 l 1
EndSplineSet
Validated: 1
EndChar

StartChar: dec_cr
Encoding: 1114205 -1 285
Width: 536
VWidth: 0
Flags: W
HStem: 262 60<305 355> 386 90<213 249.562> 386 60<162 204> 628 60<160 202>
VStem: 92 60<458 620> 213 60<456 476> 245 60<19 142 201 262> 366 60<18 43 243 251>
LayerCount: 2
Back
Fore
SplineSet
273 597 m 5xbd
 213 599 l 5
 214 617 l 5
 202 628 l 5
 160 628 l 5
 152 620 l 5
 152 458 l 5
 162 446 l 5
 204 446 l 5xbd
 213 456 l 5
 213 476 l 5
 273 476 l 5
 273 445 l 6
 273 440 271 432 265 425 c 6
 239 396 l 6
 235 392 228 386 217 386 c 6xdd
 149 386 l 6
 143 386 134 388 127 396 c 6
 100 426 l 6
 96 430 92 437 92 446 c 6
 92 632 l 6
 92 637 94 646 101 653 c 6
 127 679 l 6
 130 682 138 688 148 688 c 6
 214 688 l 6
 218 688 227 687 234 680 c 6
 264 652 l 6
 268 648 274 640 274 629 c 6
 273 597 l 5xbd
244 19 m 5
 245 322 l 5
 368 322 l 6
 378 322 385 317 389 313 c 6
 418 283 l 6
 425 276 426 266 426 262 c 6
 426 231 l 6
 426 221 421 213 418 210 c 6
 373 164 l 5
 423 63 l 6
 426 58 426 53 426 50 c 6
 426 18 l 5
 366 18 l 5
 366 43 l 5
 318 142 l 5
 305 142 l 5x9b
 304 18 l 5
 244 19 l 5
305 201 m 5
 325 201 l 5
 366 243 l 5
 366 251 l 5
 355 263 l 5
 305 262 l 5
 305 201 l 5
EndSplineSet
Validated: 1
EndChar

StartChar: dec_lf
Encoding: 1114206 -1 286
Width: 536
VWidth: 0
Flags: W
HStem: 143 61<304 396> 266 60<304 426> 385 60<152 274>
VStem: 92 60<445 689> 244 60<22 143 204 266>
LayerCount: 2
Back
Fore
SplineSet
244 326 m 1
 426 326 l 1
 426 266 l 1
 304 266 l 1
 304 204 l 1
 396 204 l 1
 396 143 l 1
 304 143 l 1
 304 22 l 1
 244 22 l 1
 244 326 l 1
92 689 m 1
 152 689 l 1
 152 445 l 1
 274 445 l 1
 274 385 l 1
 92 385 l 1
 92 689 l 1
EndSplineSet
Validated: 1
EndChar

StartChar: dec_degree
Encoding: 1114207 -1 287
Width: 536
VWidth: 0
Flags: W
HStem: 420 50<193.797 291.314> 604 50<193.797 291.314>
VStem: 126 50<488.261 585.954> 310 50<488.809 585.406>
LayerCount: 2
Back
Fore
SplineSet
176 537 m 0
 176 500 206 470 242 470 c 0
 279 470 310 500 310 537 c 0
 310 574 279 604 242 604 c 0
 206 604 176 574 176 537 c 0
126 537 m 0
 126 602 178 654 242 654 c 0
 307 654 360 602 360 537 c 0
 360 473 307 420 242 420 c 0
 178 420 126 473 126 537 c 0
EndSplineSet
Validated: 1
EndChar

StartChar: dec_plusminus
Encoding: 1114208 -1 288
Width: 536
VWidth: 0
Flags: W
HStem: 109 62<61 488> 415 61<61 244 305 488> 639 20G<244 305>
VStem: 244 61<231 415 476 659>
LayerCount: 2
Back
Fore
SplineSet
244 659 m 1
 305 659 l 1
 305 476 l 1
 488 476 l 1
 488 415 l 1
 305 415 l 1
 305 231 l 1
 244 231 l 1
 244 415 l 1
 61 415 l 1
 61 476 l 1
 244 476 l 1
 244 659 l 1
61 171 m 1
 488 171 l 1
 488 109 l 1
 61 109 l 1
 61 171 l 1
EndSplineSet
Validated: 1
EndChar

StartChar: dec_nl
Encoding: 1114209 -1 289
Width: 536
VWidth: 0
Flags: W
HStem: 19 60<305 428>
VStem: 92 60<385 537> 244 61<79 323 537 689>
LayerCount: 2
Back
Fore
SplineSet
92 689 m 1
 152 689 l 1
 244 537 l 1
 244 689 l 1
 305 689 l 1
 305 385 l 1
 246 386 l 1
 152 537 l 1
 152 385 l 1
 92 385 l 1
 92 689 l 1
244 323 m 1
 305 323 l 1
 305 79 l 1
 428 79 l 1
 428 19 l 1
 244 19 l 1
 244 323 l 1
EndSplineSet
Validated: 1
EndChar

StartChar: dec_vt
Encoding: 1114210 -1 290
Width: 536
VWidth: 0
Flags: W
HStem: 262 61<244 305 366 428>
VStem: 91 60<517 690> 244 60<517 690> 305 61<19 262>
LayerCount: 2
Back
Fore
SplineSet
91 690 m 1
 151 690 l 1
 151 517 l 1
 198 462 l 1
 244 517 l 1
 244 690 l 1
 304 690 l 1
 304 506 l 2
 304 501 303 494 297 487 c 2
 220 396 l 1
 220 396 223 398 217 393 c 0
 212 389 205 385 197 385 c 0
 189 385 181 388 175 396 c 2
 98 487 l 2
 95 490 91 497 91 506 c 2
 91 690 l 1
244 323 m 1
 428 323 l 1
 428 262 l 1
 366 262 l 1
 366 19 l 1
 305 19 l 1
 305 262 l 1
 244 263 l 1
 244 323 l 1
EndSplineSet
Validated: 1
EndChar

StartChar: dec_lowerright
Encoding: 1114211 -1 291
Width: 536
VWidth: 0
Flags: W
HStem: 293 61<0 112.581>
VStem: 245 62<486.588 801>
LayerCount: 2
Back
Fore
SplineSet
244 801 m 1
 305 801 l 1
 305 735 307 654 307 600 c 0
 307 405 277 293 0 293 c 1
 0 354 l 1
 225 361 245 493 245 664 c 0
 245 701 244 761 244 801 c 1
EndSplineSet
Validated: 1
EndChar

StartChar: dec_upperright
Encoding: 1114212 -1 292
Width: 536
VWidth: 0
Flags: W
HStem: 293 61<0 111.508>
VStem: 248 63<-198 154.973>
LayerCount: 2
Back
Fore
SplineSet
0 354 m 1
 273 354 311 230 311 43 c 0
 311 -28 309 -112 309 -198 c 5
 248 -198 l 5
 248 -136 248 -70 248 -11 c 0
 248 152 219 286 0 293 c 1
 0 354 l 1
EndSplineSet
Validated: 1
EndChar

StartChar: dec_upperleft
Encoding: 1114213 -1 293
Width: 536
VWidth: 0
Flags: W
HStem: 293 61<424.41 535>
VStem: 238 63<-199 166.727>
LayerCount: 2
Back
Fore
SplineSet
239 -199 m 1
 239 -113 238 -28 238 43 c 0
 238 230 262 354 535 354 c 5
 535 293 l 5
 316 286 301 152 301 -11 c 0
 301 -70 300 -137 300 -199 c 1
 239 -199 l 1
EndSplineSet
Validated: 1
EndChar

StartChar: dec_lowerleft
Encoding: 1114214 -1 294
Width: 536
VWidth: 0
Flags: W
HStem: 293 61<423.338 535>
VStem: 242 62<469.766 799>
LayerCount: 2
Back
Fore
SplineSet
243 799 m 1
 304 799 l 1
 304 758 304 700 304 661 c 0
 304 492 311 361 535 354 c 5
 535 293 l 5
 258 293 242 405 242 600 c 0
 242 654 243 733 243 799 c 1
EndSplineSet
Validated: 1
EndChar

StartChar: dec_intersect
Encoding: 1114215 -1 295
Width: 536
VWidth: 0
Flags: W
HStem: 293 61<0 244 305 536>
VStem: 244 61<-200 293 354 800>
LayerCount: 2
Back
Fore
SplineSet
244 800 m 1
 305 800 l 1
 305 354 l 1
 536 354 l 1
 536 293 l 1
 305 293 l 1
 305 -200 l 1
 244 -200 l 1
 244 293 l 1
 0 293 l 1
 0 354 l 1
 244 354 l 1
 244 800 l 1
EndSplineSet
Validated: 1
EndChar

StartChar: dec_hbar1
Encoding: 1114216 -1 296
Width: 536
VWidth: 0
Flags: W
HStem: 659 61<0 536>
LayerCount: 2
Back
Fore
SplineSet
0 720 m 1
 536 720 l 5
 536 659 l 5
 0 659 l 1
 0 720 l 1
EndSplineSet
Validated: 1
EndChar

StartChar: dec_hbar2
Encoding: 1114217 -1 297
Width: 536
VWidth: 0
Flags: W
HStem: 476 61<0 536>
LayerCount: 2
Back
Fore
SplineSet
0 537 m 1
 536 537 l 5
 536 476 l 5
 0 476 l 1
 0 537 l 1
EndSplineSet
Validated: 1
EndChar

StartChar: dec_hbar3
Encoding: 1114218 -1 298
Width: 536
VWidth: 0
Flags: W
HStem: 293 61<0 536>
LayerCount: 2
Back
Fore
SplineSet
0 354 m 1
 536 354 l 1
 536 293 l 1
 0 293 l 1
 0 354 l 1
EndSplineSet
Validated: 1
EndChar

StartChar: dec_hbar4
Encoding: 1114219 -1 299
Width: 536
VWidth: 0
Flags: W
HStem: 109 62<0 536>
LayerCount: 2
Back
Fore
SplineSet
0 171 m 1
 536 171 l 5
 536 109 l 5
 0 109 l 1
 0 171 l 1
EndSplineSet
Validated: 1
EndChar

StartChar: dec_hbar5
Encoding: 1114220 -1 300
Width: 536
VWidth: 0
Flags: W
HStem: -73 60<0 536>
LayerCount: 2
Back
Fore
SplineSet
0 -13 m 1
 536 -13 l 5
 536 -73 l 5
 0 -73 l 1
 0 -13 l 1
EndSplineSet
Validated: 1
EndChar

StartChar: dec_leftjoin
Encoding: 1114221 -1 301
Width: 536
VWidth: 0
Flags: W
HStem: 293 61<305 536>
VStem: 244 61<-200 293 354 800>
LayerCount: 2
Back
Fore
SplineSet
244 800 m 1
 305 800 l 1
 305 354 l 1
 536 354 l 1
 536 293 l 1
 305 293 l 1
 305 -200 l 5
 244 -200 l 5
 244 800 l 1
EndSplineSet
Validated: 1
EndChar

StartChar: dec_rightjoin
Encoding: 1114222 -1 302
Width: 536
VWidth: 0
Flags: W
HStem: 293 61<0 244>
VStem: 244 61<-200 293 354 800>
LayerCount: 2
Back
Fore
SplineSet
244 800 m 1
 305 800 l 1
 305 -200 l 5
 244 -200 l 5
 244 293 l 1
 0 293 l 1
 0 354 l 1
 244 354 l 1
 244 800 l 1
EndSplineSet
Validated: 1
EndChar

StartChar: dec_bottomjoin
Encoding: 1114223 -1 303
Width: 536
VWidth: 0
Flags: W
HStem: 293 61<0 244 305 536>
VStem: 244 61<354 799>
LayerCount: 2
Back
Fore
SplineSet
244 799 m 5
 305 799 l 5
 305 354 l 1
 536 354 l 1
 536 293 l 1
 0 293 l 1
 0 354 l 1
 244 354 l 1
 244 799 l 5
EndSplineSet
Validated: 1
EndChar

StartChar: dec_topjoin
Encoding: 1114224 -1 304
Width: 536
VWidth: 0
Flags: W
HStem: 293 61<0 244 305 537>
VStem: 244 61<-199 293>
LayerCount: 2
Back
Fore
SplineSet
0 354 m 1
 537 354 l 1
 537 293 l 1
 305 293 l 1
 305 -199 l 5
 244 -199 l 5
 244 293 l 1
 0 293 l 1
 0 354 l 1
EndSplineSet
Validated: 1
EndChar

StartChar: dec_vbar
Encoding: 1114225 -1 305
Width: 536
VWidth: 0
Flags: W
VStem: 244 61<-200 800>
LayerCount: 2
Back
Fore
SplineSet
244 800 m 1
 305 800 l 1
 305 -200 l 5
 244 -200 l 5
 244 800 l 1
EndSplineSet
Validated: 1
EndChar

StartChar: dec_notgreater
Encoding: 1114226 -1 306
Width: 536
VWidth: 0
Flags: W
HStem: -73 60<92 458>
LayerCount: 2
Back
Fore
SplineSet
418 99 m 2
 423 93 426 85 426 77 c 0
 426 69 422 62 417 56 c 0
 412 50 404 47 396 46 c 0
 388 45 382 46 375 50 c 1
 132 295 l 1
 132 351 l 1
 374 600 l 1
 380 603 387 604 394 603 c 0
 401 602 407 599 412 594 c 0
 418 589 421 581 422 573 c 0
 423 565 422 558 418 551 c 1
 190 323 l 1
 418 99 l 2
92 -13 m 1
 458 -13 l 1
 458 -73 l 1
 92 -73 l 1
 92 -13 l 1
EndSplineSet
Validated: 1
EndChar

StartChar: dec_notless
Encoding: 1114227 -1 307
Width: 536
VWidth: 0
Flags: W
HStem: -73 60<92 458>
LayerCount: 2
Back
Fore
SplineSet
138 549 m 2
 133 555 131 563 131 571 c 0
 131 579 135 586 140 592 c 0
 145 598 152 602 160 603 c 0
 168 604 175 602 182 598 c 1
 425 353 l 1
 425 298 l 1
 183 48 l 1
 177 45 170 45 163 46 c 0
 156 47 150 49 145 54 c 0
 139 59 135 67 134 75 c 0
 133 83 135 90 139 97 c 1
 366 325 l 1
 138 549 l 2
92 -13 m 1
 458 -13 l 1
 458 -73 l 1
 92 -73 l 1
 92 -13 l 1
EndSplineSet
Validated: 1
EndChar

StartChar: dec_pi
Encoding: 1114228 -1 308
Width: 536
VWidth: 0
Flags: W
HStem: 49 21G<104.462 154.5 366 428> 477 60<62 123 183 366 427 488>
VStem: 123 60<149 477> 366 62<49 476>
LayerCount: 2
Back
Fore
SplineSet
61 537 m 1
 488 537 l 1
 488 476 l 1
 427 476 l 1
 428 49 l 1
 366 49 l 1
 366 476 l 1
 183 477 l 1
 183 142 l 2
 183 139 182 134 180 129 c 2
 146 49 l 1
 92 75 l 1
 123 149 l 1
 123 477 l 1
 62 477 l 1
 61 537 l 1
EndSplineSet
Validated: 1
EndChar

StartChar: dec_notequal
Encoding: 1114229 -1 309
Width: 536
VWidth: 0
Flags: W
HStem: 231 62<61 141 288 488> 354 61<60 264 410 487>
LayerCount: 2
Back
Fore
SplineSet
107 112 m 1
 65 154 l 1
 141 231 l 1
 61 231 l 1
 61 293 l 1
 203 293 l 1
 264 354 l 1
 60 354 l 1
 60 415 l 1
 325 415 l 1
 442 532 l 1
 484 490 l 1
 410 415 l 1
 487 415 l 1
 487 354 l 1
 349 354 l 1
 288 293 l 1
 488 293 l 1
 488 231 l 1
 226 231 l 1
 107 112 l 1
EndSplineSet
Validated: 1
EndChar

StartChar: dec_periodcentered
Encoding: 1114231 -1 311
Width: 536
VWidth: 0
Flags: W
HStem: 231 123<184 305>
VStem: 184 121<231 354>
LayerCount: 2
Back
Fore
SplineSet
184 354 m 1
 305 354 l 1
 305 231 l 1
 184 231 l 1
 184 354 l 1
EndSplineSet
Validated: 1
EndChar

StartChar: quotesingle
Encoding: 39 39 312
Width: 536
VWidth: 0
Flags: W
HStem: 476 183<244 305>
VStem: 244 61<476 659>
LayerCount: 2
Fore
SplineSet
244 659 m 1
 305 659 l 1
 305 476 l 1
 244 476 l 1
 244 659 l 1
EndSplineSet
Validated: 1
EndChar

StartChar: uni00AD
Encoding: 173 173 313
Width: 536
VWidth: 0
Flags: W
HStem: 293 61<122 428>
VStem: 122 306<293 354>
LayerCount: 2
Fore
SplineSet
122 354 m 1
 428 354 l 1
 428 293 l 1
 122 293 l 1
 122 354 l 1
EndSplineSet
Validated: 1
EndChar

StartChar: uni00B5
Encoding: 181 181 314
Width: 536
VWidth: 0
Flags: W
HStem: -135 21G<55.9672 115> 51 58<156 317 433 482> 456 20G<55 113.123 359.938 419>
VStem: 56 59<-135 68 150 475> 359 59<153 476>
LayerCount: 2
Fore
SplineSet
55 475 m 1
 113 476 l 1
 115 150 l 1
 156 109 l 1
 317 109 l 1
 359 153 l 1
 360 476 l 1
 419 476 l 1
 418 141 l 2
 418 138 417 134 415 129 c 1
 433 109 l 1
 482 109 l 1
 482 50 l 1
 421 50 l 2
 411 50 403 55 400 59 c 2
 374 84 l 1
 350 60 l 2
 347 57 339 51 329 51 c 2
 144 51 l 2
 139 51 131 52 124 59 c 2
 115 68 l 1
 115 -135 l 1
 56 -135 l 1
 55 475 l 1
EndSplineSet
Validated: 1
EndChar

StartChar: divide
Encoding: 247 247 315
Width: 536
VWidth: 0
Flags: W
HStem: 79 122<207 329> 293 61<54 481> 445 122<207 329>
VStem: 207 122<79 201 445 567>
LayerCount: 2
Fore
SplineSet
207 567 m 1
 329 567 l 1
 329 445 l 1
 207 445 l 1
 207 567 l 1
54 354 m 1
 481 354 l 1
 481 293 l 1
 54 293 l 1
 54 354 l 1
207 201 m 1
 329 201 l 1
 329 79 l 1
 207 79 l 1
 207 201 l 1
EndSplineSet
Validated: 1
EndChar

StartChar: ordmasculine
Encoding: 186 186 320
Width: 536
VWidth: 0
Flags: W
HStem: 49 60<54 422> 174 58<157 318> 539 59<157 319>
VStem: 54 58<273 495> 358 59<273 495>
LayerCount: 2
Fore
SplineSet
114 495 m 1
 112 273 l 1
 157 232 l 1
 318 231 l 1
 358 273 l 1
 359 495 l 1
 319 539 l 1
 157 539 l 1
 114 495 l 1
64 528 m 2
 125 589 l 2
 132 596 141 598 145 598 c 2
 332 598 l 2
 342 598 350 592 354 588 c 2
 410 525 l 2
 416 519 418 511 418 506 c 2
 417 261 l 2
 417 251 412 243 409 240 c 2
 351 181 l 2
 344 173 335 172 330 172 c 2
 145 174 l 2
 136 174 129 178 125 181 c 2
 63 239 l 2
 55 246 54 255 54 261 c 2
 56 508 l 2
 56 518 61 525 64 528 c 2
54 109 m 1
 422 109 l 1
 422 49 l 1
 54 49 l 1
 54 109 l 1
EndSplineSet
Validated: 1
EndChar

StartChar: Abreve
Encoding: 258 258 323
Width: 536
VWidth: 0
Flags: W
HStem: 49 21G<53 113.328 420 480> 232 61<117 420> 597 21G<264.5 272.5>
VStem: 57 60<49 232 293 312> 420 60<49 232 293 312>
LayerCount: 2
Fore
SplineSet
186 710 m 0
 192 716 200 719 206 719 c 0
 215 719 223 715 228 710 c 2
 269 669 l 1
 311 710 l 2
 317 716 325 719 331 719 c 0
 348 719 362 704 362 688 c 0
 362 681 360 674 353 667 c 2
 290 605 l 2
 285 600 277 597 268 597 c 0
 261 597 254 599 248 605 c 2
 186 667 l 2
 181 672 177 680 177 689 c 0
 177 696 180 704 186 710 c 0
116 232 m 1
 113 49 l 1
 53 49 l 1
 57 325 l 2
 57 335 63 343 66 346 c 2
 246 527 l 2
 252 533 260 536 266 536 c 0
 275 536 283 532 288 527 c 2
 471 345 l 2
 478 338 480 329 480 324 c 2
 480 49 l 1
 420 49 l 1
 421 232 l 1
 116 232 l 1
117 293 m 1
 420 293 l 1
 420 312 l 1
 267 464 l 1
 117 312 l 1
 117 293 l 1
EndSplineSet
Validated: 1
EndChar

StartChar: abreve
Encoding: 259 259 324
Width: 536
VWidth: 0
Flags: W
HStem: 49 60<158 360 419 480> 234 59<159 360> 415 59<115 319> 639 20G<201 208.5 326 333.5>
VStem: 57 59<153 190> 360 59<109 233 292 373>
LayerCount: 2
Fore
SplineSet
184 650 m 0
 190 656 198 659 204 659 c 0
 213 659 221 655 226 650 c 2
 267 609 l 1
 309 650 l 2
 315 656 323 659 329 659 c 0
 338 659 346 655 351 650 c 0
 356 645 360 637 360 628 c 0
 360 622 357 614 351 608 c 2
 288 546 l 2
 283 541 275 537 266 537 c 0
 259 537 252 540 246 546 c 2
 184 608 l 2
 179 613 175 621 175 630 c 0
 175 636 178 644 184 650 c 0
360 109 m 1
 360 233 l 1
 159 234 l 1
 116 190 l 1
 116 153 l 1
 158 110 l 1
 360 109 l 1
419 108 m 1
 481 107 l 1
 480 49 l 1
 145 52 l 2
 135 52 127 58 124 61 c 2
 66 121 l 2
 59 128 57 138 57 142 c 2
 57 202 l 2
 57 212 63 220 66 223 c 2
 125 284 l 2
 132 291 141 293 146 293 c 2
 361 292 l 1
 361 373 l 1
 319 415 l 1
 115 418 l 1
 115 477 l 1
 331 474 l 2
 341 474 349 468 352 465 c 2
 411 405 l 2
 418 398 420 390 420 385 c 2
 419 108 l 1
EndSplineSet
Validated: 1
EndChar

StartChar: Dcaron
Encoding: 270 270 327
Width: 536
VWidth: 0
Flags: W
HStem: 49 61<47 108 169 310> 538 60<47 108 169 310>
VStem: 108 61<110 538> 413 60<213 433>
LayerCount: 2
Fore
SplineSet
240 667 m 2
 117 789 l 1
 158 829 l 1
 260 728 l 1
 363 830 l 1
 403 789 l 1
 280 667 l 2
 278 665 276 663 274 662 c 0
 272 661 270 660 267 659 c 0
 262 658 258 658 253 659 c 0
 250 660 248 661 246 662 c 0
 244 663 242 665 240 667 c 2
EndSplineSet
Refer: 163 68 N 1 0 0 1 -7 0 3
Validated: 1
EndChar

StartChar: dcroat
Encoding: 273 273 329
Width: 536
VWidth: 0
Flags: W
HStem: 51 58<220 360> 416 59<217 360> 530 61<215 360 420 467> 639 20G<360 420>
VStem: 55 59<213 312> 360 60<109 416 475 530 591 659>
LayerCount: 2
Fore
SplineSet
360 109 m 1
 360 416 l 1
 217 416 l 1
 114 312 l 1
 114 213 l 1
 220 109 l 1
 360 109 l 1
420 52 m 1
 208 51 l 2
 204 51 194 52 187 59 c 2
 64 180 l 2
 61 183 55 191 55 201 c 2
 55 324 l 2
 55 329 57 338 64 345 c 2
 184 466 l 2
 187 469 194 475 204 475 c 2
 360 475 l 1
 360 530 l 1
 215 530 l 1
 215 591 l 1
 360 591 l 1
 360 659 l 1
 420 659 l 1
 420 591 l 1
 467 591 l 1
 467 530 l 1
 420 530 l 1
 420 52 l 1
EndSplineSet
Validated: 1
EndChar

StartChar: Dcroat
Encoding: 272 272 330
Width: 536
VWidth: 0
Flags: W
HStem: 49 61<54 115 176 317> 297 61<55 115 176 237> 538 60<54 115 176 317>
VStem: 115 61<110 297 358 538> 420 60<213 433>
LayerCount: 2
Fore
SplineSet
115 538 m 1
 54 538 l 1
 54 598 l 1
 330 597 l 2
 340 597 348 592 351 588 c 2
 471 466 l 2
 478 459 480 450 480 445 c 2
 480 201 l 2
 480 191 475 183 471 179 c 2
 350 59 l 2
 343 52 334 50 329 50 c 2
 54 49 l 1
 54 109 l 1
 115 109 l 1
 115 297 l 1
 55 297 l 1
 55 358 l 1
 115 358 l 1
 115 538 l 1
176 110 m 1
 317 110 l 1
 420 213 l 1
 420 433 l 1
 317 537 l 1
 176 538 l 1
 176 358 l 1
 237 358 l 1
 237 297 l 1
 176 297 l 1
 176 110 l 1
EndSplineSet
Validated: 1
EndChar

StartChar: Ebreve
Encoding: 276 276 333
Width: 536
VWidth: 0
Flags: W
HStem: 49 60<115 481> 231 62<115 359> 476 61<115 481> 601 60<205.569 319.622>
VStem: 54 61<109 231 293 476> 119 58<689.155 749> 351 60<692.575 749>
LayerCount: 2
Fore
SplineSet
113 749 m 1
 173 749 l 1
 174 741 175 734 177 726 c 0
 179 718 182 711 186 704 c 0
 190 697 195 693 200 688 c 0
 206 682 212 676 219 672 c 0
 226 668 233 666 241 664 c 0
 248 662 256 661 263 661 c 0
 271 661 279 662 286 664 c 0
 293 666 300 669 307 673 c 0
 314 677 320 683 325 688 c 0
 330 693 335 698 339 705 c 0
 343 712 346 721 348 729 c 0
 350 736 351 742 351 749 c 1
 411 749 l 1
 411 736 410 723 406 711 c 0
 402 699 397 687 391 676 c 0
 385 665 377 654 368 645 c 0
 359 636 349 628 338 622 c 0
 327 616 315 611 302 607 c 0
 290 604 278 601 265 601 c 0
 252 601 239 602 226 605 c 0
 213 608 201 614 190 620 c 0
 179 626 168 634 158 643 c 0
 149 652 140 662 134 673 c 0
 127 684 122 696 119 709 c 0
 116 721 113 736 113 749 c 1
  Spiro
    113 747 v
    173 749 v
    177 726 o
    186 704 o
    200 686 o
    219 672 o
    241 664 o
    263 661 o
    286 664 o
    307 673 o
    325 687 o
    339 705 o
    348 727 o
    351 749 v
    411 749 v
    406 711 o
    391 676 o
    368 645 o
    338 622 o
    302 607 o
    265 601 o
    226 605 o
    190 620 o
    158 643 o
    134 673 o
    119 709 o
    0 0 z
  EndSpiro
54 537 m 1
 481 537 l 1
 481 476 l 1
 115 476 l 1
 115 293 l 1
 359 293 l 1
 359 231 l 1
 115 231 l 1
 115 109 l 1
 481 109 l 1
 481 49 l 1
 54 49 l 1
 54 537 l 1
EndSplineSet
Validated: 1
EndChar

StartChar: Eogonek
Encoding: 280 280 337
Width: 536
VWidth: 0
Flags: W
HStem: 49 60<115 481> 231 62<115 359> 476 61<115 481>
VStem: 54 61<109 231 293 476>
LayerCount: 2
Fore
SplineSet
54 537 m 1
 481 537 l 1
 481 476 l 1
 115 476 l 1
 115 293 l 1
 359 293 l 1
 359 231 l 1
 115 231 l 1
 115 109 l 1
 481 109 l 1
 481 49 l 1
 54 49 l 1
 54 537 l 1
EndSplineSet
Validated: 1
EndChar

StartChar: eogonek
Encoding: 281 281 338
Width: 536
VWidth: 0
Flags: W
HStem: 51 58<156 421> 231 62<113 361> 415 59<158 318>
VStem: 54 59<152 231 293 372> 361 59<293 373>
LayerCount: 2
Fore
SplineSet
113 231 m 1
 112 152 l 1
 156 109 l 1
 421 107 l 1
 421 49 l 1
 144 51 l 2
 135 51 127 56 124 59 c 2
 62 119 l 2
 55 126 54 135 54 140 c 2
 56 384 l 2
 56 394 61 401 64 404 c 2
 125 467 l 2
 132 474 142 476 147 476 c 2
 330 474 l 2
 340 474 348 468 351 465 c 2
 410 405 l 2
 417 398 419 390 419 385 c 2
 420 233 l 1
 113 231 l 1
113 293 m 1
 361 293 l 1
 360 373 l 1
 318 415 l 1
 158 417 l 1
 114 372 l 1
 113 293 l 1
EndSplineSet
Validated: 1
EndChar

StartChar: Ecaron
Encoding: 282 282 339
Width: 536
VWidth: 0
Flags: W
HStem: 49 60<108 474> 293 61<108 352> 537 61<108 474>
VStem: 47 61<109 293 354 537>
LayerCount: 2
Fore
SplineSet
240 639 m 2
 117 761 l 1
 158 801 l 1
 260 700 l 1
 363 802 l 1
 403 761 l 1
 280 639 l 2
 278 637 276 635 274 634 c 0
 272 633 270 632 267 631 c 0
 262 630 258 630 253 631 c 0
 250 632 248 633 246 634 c 0
 244 635 242 637 240 639 c 2
EndSplineSet
Refer: 164 69 N 1 0 0 1 -7 0 3
Validated: 1
EndChar

StartChar: ecaron
Encoding: 283 283 340
Width: 536
VWidth: 0
Flags: W
HStem: 51 56<149 414> 231 62<107 354> 409 61<151 311>
VStem: 47 59<152 231 293 364> 354 58<293 365>
LayerCount: 2
Fore
SplineSet
221 546 m 2
 98 668 l 1
 139 708 l 1
 241 607 l 1
 344 709 l 1
 384 668 l 1
 261 546 l 2
 259 544 257 542 255 541 c 0
 253 540 251 539 248 538 c 0
 243 537 239 537 234 538 c 0
 231 539 229 540 227 541 c 0
 225 542 223 544 221 546 c 2
EndSplineSet
Refer: 132 101 N 1 0 0 1 -7 0 3
Validated: 1
EndChar

StartChar: Gbreve
Encoding: 286 286 343
Width: 536
VWidth: 0
Flags: W
HStem: 51 60<218 359> 232 61<237 359 419 482> 498 60<218 318> 597 21G<264.5 272.5>
VStem: 56 60<212 395> 359 59<111 232>
LayerCount: 2
Fore
SplineSet
186 710 m 0
 192 716 200 719 206 719 c 0
 215 719 223 715 228 710 c 2
 269 669 l 1
 311 710 l 2
 317 716 324 719 331 719 c 0
 340 719 348 715 353 709 c 0
 358 704 362 696 362 687 c 0
 362 681 359 673 353 667 c 2
 290 605 l 2
 285 600 277 597 268 597 c 0
 261 597 254 599 248 605 c 2
 186 667 l 2
 181 672 177 680 177 689 c 0
 177 696 180 704 186 710 c 0
237 293 m 1
 482 293 l 1
 482 233 l 1
 419 232 l 1
 418 80 l 2
 418 69 409 51 388 51 c 2
 206 51 l 2
 201 51 192 52 185 59 c 2
 65 178 l 2
 62 181 56 189 56 199 c 2
 56 407 l 2
 56 412 57 421 64 428 c 2
 184 549 l 2
 187 553 195 558 205 558 c 2
 330 558 l 2
 335 558 345 556 352 549 c 2
 412 488 l 1
 369 446 l 1
 318 498 l 1
 218 498 l 1
 116 395 l 1
 116 212 l 1
 218 111 l 1
 359 111 l 1
 359 232 l 1
 237 231 l 1
 237 293 l 1
EndSplineSet
Validated: 1
EndChar

StartChar: gbreve
Encoding: 287 287 344
Width: 536
VWidth: 0
Flags: W
HStem: -72 60<219 380> 109 60<219 315> 171 60<400 422> 417 60<219 377> 597 21G<264.5 272.5>
VStem: 55 60<272 313> 422 60<30 171 231 375>
LayerCount: 2
Fore
SplineSet
186 710 m 0
 192 716 200 719 206 719 c 0
 215 719 223 715 228 710 c 2
 269 669 l 1
 311 710 l 2
 317 716 324 719 331 719 c 0
 340 719 348 715 353 709 c 0
 358 704 362 696 362 687 c 0
 362 681 359 673 353 667 c 2
 290 605 l 2
 285 600 277 597 268 597 c 0
 261 597 254 599 248 605 c 2
 186 667 l 2
 181 672 177 680 177 689 c 0
 177 696 180 704 186 710 c 0
422 231 m 1
 422 375 l 1
 377 417 l 1
 219 415 l 1
 115 313 l 1
 115 272 l 1
 219 169 l 1
 315 171 l 1
 366 222 l 2
 372 228 379 231 387 231 c 2
 422 231 l 1
422 171 m 1
 400 171 l 1
 349 120 l 2
 344 114 337 111 328 111 c 2
 207 109 l 2
 199 109 192 112 186 118 c 2
 64 238 l 2
 58 244 55 251 55 259 c 2
 55 326 l 2
 55 335 58 342 64 347 c 2
 186 466 l 2
 192 472 199 475 207 475 c 2
 389 477 l 2
 397 477 404 474 410 469 c 2
 473 410 l 2
 479 404 482 397 482 388 c 2
 481 18 l 2
 481 10 478 3 473 -3 c 2
 415 -63 l 2
 409 -69 402 -72 393 -72 c 2
 207 -72 l 2
 199 -72 192 -69 186 -63 c 2
 125 -3 l 1
 167 39 l 1
 219 -12 l 1
 380 -12 l 1
 421 30 l 1
 422 171 l 1
EndSplineSet
Validated: 1
EndChar

StartChar: gcommaaccent
Encoding: 291 291 348
Width: 536
VWidth: 0
Flags: W
HStem: -181 57<113 194> -72 60<219 235 293 380> 109 60<219 315> 171 60<400 422> 417 60<219 377>
VStem: 55 60<272 313> 235 58<-81 -72 -12 60> 422 60<30 171 231 375>
LayerCount: 2
Fore
SplineSet
422 171 m 1
 400 171 l 1
 349 120 l 2
 344 114 337 111 328 111 c 2
 207 109 l 2
 199 109 192 112 186 118 c 2
 64 238 l 2
 58 244 55 251 55 259 c 2
 55 326 l 2
 55 335 58 342 64 347 c 2
 186 466 l 2
 192 472 199 475 207 475 c 2
 389 477 l 2
 397 477 404 474 410 469 c 2
 473 410 l 2
 479 404 482 397 482 388 c 2
 481 18 l 2
 481 10 478 3 473 -3 c 2
 415 -63 l 2
 409 -69 402 -72 393 -72 c 2
 293 -72 l 1
 293 -92 l 2
 293 -100 290 -106 285 -112 c 2
 226 -172 l 2
 220 -178 214 -181 206 -181 c 2
 113 -181 l 1
 113 -124 l 1
 194 -124 l 1
 235 -81 l 1
 235 -72 l 1
 207 -72 l 2
 199 -72 192 -69 186 -63 c 2
 125 -3 l 1
 167 39 l 1
 219 -12 l 1
 235 -12 l 1
 235 60 l 1
 293 60 l 1
 293 -12 l 1
 380 -12 l 1
 421 30 l 1
 422 171 l 1
422 231 m 1
 422 375 l 1
 377 417 l 1
 219 415 l 1
 115 313 l 1
 115 272 l 1
 219 169 l 1
 315 171 l 1
 366 222 l 2
 372 228 379 231 387 231 c 2
 422 231 l 1
EndSplineSet
Validated: 1
EndChar

StartChar: Ccaron
Encoding: 268 268 422
Width: 536
VWidth: 0
Flags: W
HStem: 49.0625 60.9375<273 370> 536 60<272 371>
VStem: 48 60<273 372>
LayerCount: 2
Fore
SplineSet
363 667 m 2
 240 789 l 1
 281 829 l 1
 383 728 l 1
 486 830 l 1
 526 789 l 1
 403 667 l 2
 401 665 399 663 397 662 c 0
 395 661 393 660 390 659 c 0
 385 658 381 658 376 659 c 0
 373 660 371 661 369 662 c 0
 367 663 365 665 363 667 c 2
EndSplineSet
Refer: 162 67 N 1 0 0 1 -7 0 3
Validated: 1
EndChar

StartChar: ccaron
Encoding: 269 269 423
Width: 536
VWidth: 0
Flags: W
HStem: 51 58<213 413> 416 59<210 413>
VStem: 48 59<213 312>
LayerCount: 2
Fore
SplineSet
285 546 m 2
 162 668 l 1
 203 708 l 1
 305 607 l 1
 408 709 l 1
 448 668 l 1
 325 546 l 2
 323 544 321 542 319 541 c 0
 317 540 315 539 312 538 c 0
 307 537 303 537 298 538 c 0
 295 539 293 540 291 541 c 0
 289 542 287 544 285 546 c 2
EndSplineSet
Refer: 130 99 N 1 0 0 1 -7 0 3
Validated: 1
EndChar

StartChar: uniFF5D
Encoding: 65373 65373 517
Width: 536
VWidth: 0
Flags: W
HStem: -12 60<119 197> 294 60<344 380> 601 60<119 197>
VStem: 242 60<92 251 398 557>
LayerCount: 2
Fore
SplineSet
209 661 m 2
 211 661 213 660 214 660 c 0
 215 660 217 659 218 659 c 0
 219 659 221 658 222 658 c 0
 223 658 225 657 226 656 c 0
 227 655 227 655 228 654 c 0
 229 653 229 653 230 652 c 2
 293 591 l 2
 294 590 295 588 296 587 c 0
 297 586 298 585 299 583 c 0
 300 581 300 578 301 576 c 0
 301 575 302 574 302 573 c 0
 302 572 302 570 302 569 c 2
 302 398 l 1
 344 354 l 1
 380 354 l 1
 380 294 l 1
 344 294 l 1
 302 251 l 1
 302 79 l 2
 302 78 302 77 302 76 c 0
 302 75 301 74 301 73 c 0
 301 72 300 70 300 69 c 0
 300 68 300 66 299 65 c 0
 298 64 297 62 296 61 c 0
 295 60 294 59 293 58 c 2
 230 -3 l 2
 229 -4 229 -4 228 -5 c 0
 227 -6 227 -6 226 -7 c 0
 225 -8 223 -9 222 -9 c 0
 221 -9 219 -10 218 -10 c 0
 217 -10 215 -11 214 -11 c 0
 213 -11 211 -12 209 -12 c 2
 119 -12 l 1
 119 48 l 1
 197 48 l 1
 242 92 l 1
 242 263 l 2
 242 265 242 266 242 268 c 0
 242 270 242 271 243 272 c 0
 244 273 244 274 245 275 c 0
 246 276 246 278 247 279 c 0
 247 280 248 281 248 282 c 0
 248 283 249 283 250 284 c 2
 289 324 l 1
 250 365 l 2
 249 366 248 366 248 367 c 0
 248 368 247 369 247 370 c 0
 246 371 246 373 245 374 c 0
 244 375 244 376 243 377 c 0
 242 378 242 379 242 381 c 0
 242 383 242 384 242 386 c 2
 242 557 l 1
 197 601 l 1
 119 601 l 1
 119 661 l 1
 209 661 l 2
  Spiro
    209 661 ]
    210.961 660.741 o
    212.705 660.259 o
    214 660 o
    215.258 659.741 o
    216.742 659.259 o
    218 659 o
    219.258 658.741 o
    220.742 658.259 o
    222 658 o
    223.258 657.704 o
    224.742 656.962 o
    226 656 o
    228 654 o
    230 652 v
    293 591 ]
    293.999 589.742 o
    295.001 588.258 o
    296 587 o
    296.999 585.964 o
    298.001 584.702 o
    299 583 o
    299.74 580.743 o
    300.26 578.257 o
    301 576 o
    301.259 575.001 o
    301.741 573.999 o
    302 573 o
    302 569 v
    302 398 v
    344 354 v
    380 354 v
    380 294 v
    344 294 v
    302 251 v
    302 79 v
    302 76 o
    301.741 75.001 o
    301.259 73.999 o
    301 73 o
    300.741 71.7422 o
    300.259 70.2578 o
    300 69 o
    299.963 67.7422 o
    299.703 66.2578 o
    299 65 o
    298.001 63.7422 o
    296.999 62.2578 o
    296 61 o
    293 58 v
    230 -3 v
    228 -5 o
    226 -7 o
    224.742 -7.96207 o
    223.258 -8.70426 o
    222 -9 o
    220.742 -9.25881 o
    219.258 -9.74119 o
    218 -10 o
    216.742 -10.2588 o
    215.258 -10.7412 o
    214 -11 o
    212.705 -11.2588 o
    210.961 -11.7412 o
    209 -12 [
    119 -12 v
    119 48 v
    197 48 v
    242 92 v
    242 263 v
    242 268 o
    242.037 269.702 o
    242.297 270.964 o
    243 272 o
    243.74 272.999 o
    244.26 274.001 o
    245 275 o
    245.74 276.258 o
    246.26 277.742 o
    247 279 o
    247.259 279.999 o
    247.741 281.001 o
    248 282 o
    248.296 282.74 o
    249.038 283.26 o
    250 284 [
    289 324 v
    250 365 ]
    249.038 365.74 o
    248.296 366.26 o
    248 367 o
    247.741 367.999 o
    247.259 369.001 o
    247 370 o
    246.26 371.258 o
    245.74 372.742 o
    245 374 o
    244.26 374.999 o
    243.74 376.001 o
    243 377 o
    242.297 378.036 o
    242.037 379.298 o
    242 381 o
    242 386 v
    242 557 v
    197 601 v
    119 601 v
    119 661 v
    0 0 z
  EndSpiro
EndSplineSet
Validated: 1
EndChar

StartChar: uniFFE9
Encoding: 65513 65513 657
Width: 536
VWidth: 0
Flags: W
HStem: 293 61<230 435> 456 20G<206.34 230>
LayerCount: 2
Fore
SplineSet
230 476 m 1
 230 354 l 1
 435 354 l 5
 435 293 l 5
 230 293 l 1
 230 171 l 1
 49 323 l 1
 230 476 l 1
EndSplineSet
Validated: 1
EndChar

StartChar: uniFFEA
Encoding: 65514 65514 658
Width: 536
VWidth: 0
Flags: W
VStem: 211.5 61<130.5 335.5>
LayerCount: 2
Fore
SplineSet
394.5 335.5 m 1
 272.5 335.5 l 1
 272.5 130.5 l 1
 211.5 130.5 l 1
 211.5 335.5 l 1
 89.5 335.5 l 1
 241.5 516.5 l 1
 394.5 335.5 l 1
EndSplineSet
Validated: 1
EndChar

StartChar: uniFFEB
Encoding: 65515 65515 659
Width: 536
VWidth: 0
Flags: W
HStem: 293 61<149 354> 456 20G<354 377.66>
LayerCount: 2
Fore
SplineSet
354 476 m 1
 535 323 l 1
 354 171 l 1
 354 293 l 1
 149 293 l 5
 149 354 l 5
 354 354 l 1
 354 476 l 1
EndSplineSet
Validated: 1
EndChar

StartChar: uniFFEC
Encoding: 65516 65516 660
Width: 536
VWidth: 0
Flags: W
VStem: 211.5 61<311.5 516.5>
LayerCount: 2
Fore
SplineSet
89.5 311.5 m 5
 211.5 311.5 l 5
 211.5 516.5 l 5
 272.5 516.5 l 5
 272.5 311.5 l 5
 394.5 311.5 l 5
 242.5 130.5 l 5
 89.5 311.5 l 5
EndSplineSet
Validated: 1
EndChar

StartChar: uniFFED
Encoding: 65517 65517 661
Width: 536
VWidth: 0
Flags: W
HStem: 294 216<162 372>
VStem: 162 210<294 510>
LayerCount: 2
Fore
SplineSet
162 510 m 1
 372 510 l 1
 372 294 l 1
 162 294 l 1
 162 510 l 1
EndSplineSet
Validated: 1
EndChar

StartChar: uniFFEE
Encoding: 65518 65518 662
Width: 536
VWidth: 0
Flags: W
HStem: 239 50<210.834 336.738> 515 50<210.834 336.738>
VStem: 114 50<334.533 469.467> 384 50<335.629 468.371>
LayerCount: 2
Fore
SplineSet
164 402 m 0
 164 339 213 289 274 289 c 0
 334 289 384 339 384 402 c 0
 384 465 334 515 274 515 c 0
 213 515 164 465 164 402 c 0
114 402 m 0
 114 492 185 565 274 565 c 0
 362 565 434 492 434 402 c 0
 434 312 362 239 274 239 c 0
 185 239 114 312 114 402 c 0
EndSplineSet
Validated: 1
EndChar

StartChar: uni2B60
Encoding: 11104 11104 680
Width: 536
VWidth: 2048
Flags: W
VStem: 114 94<58 253.75 383.469 750> 304 54<384.282 494>
LayerCount: 2
Fore
SplineSet
114 315 m 1
 124 316 135 318 150 322 c 0
 165 326 182 331 200 338 c 0
 218 345 235 353 250 361 c 0
 265 369 278 379 288 390 c 0
 298 401 304 412 304 424 c 2
 304 494 l 1
 240 492 l 1
 332 663 l 1
 422 492 l 1
 358 494 l 1
 358 424 l 2
 358 409 356 395 350 381 c 0
 344 367 337 354 328 344 c 0
 319 334 310 324 300 314 c 0
 290 304 279 296 268 287 c 0
 257 278 247 270 238 262 c 0
 229 254 223 246 218 238 c 0
 213 230 208 220 208 212 c 2
 208 58 l 1
 114 58 l 1
 114 315 l 1
114 368 m 1
 114 750 l 1
 208 750 l 1
 208 395 l 1
 204 389 188 383 162 377 c 0
 136 371 120 368 114 368 c 1
EndSplineSet
Validated: 1
EndChar

StartChar: uni2B61
Encoding: 11105 11105 681
Width: 536
VWidth: 0
Flags: W
HStem: 387 60<153 276>
VStem: 92 61<447 691> 244 60<19 171> 396 61<171 323>
LayerCount: 2
Fore
SplineSet
244 323 m 1
 304 323 l 1
 396 171 l 1
 396 323 l 1
 457 323 l 1
 457 19 l 1
 398 20 l 1
 304 171 l 1
 304 19 l 1
 244 19 l 1
 244 323 l 1
92 691 m 1
 153 691 l 1
 153 447 l 1
 276 447 l 1
 276 387 l 1
 92 387 l 1
 92 691 l 1
EndSplineSet
Validated: 1
EndChar

StartChar: uni2B62
Encoding: 11106 11106 682
Width: 536
VWidth: 2048
Flags: W
HStem: 250 45<204 260> 342 45<304 350> 430 40<260 350> 513 45<204 378>
VStem: 158 46<295 513> 260 44<295 342> 350 28<387 430>
LayerCount: 2
Fore
SplineSet
204 558 m 2
 378 558 l 1
 378 513 l 1
 204 513 l 1
 204 295 l 1
 260 295 l 1
 260 387 l 1
 350 387 l 1
 350 430 l 1
 260 430 l 1
 260 470 l 1
 378 470 l 1
 378 352 l 1
 375 349 370 347 364 345 c 0
 358 343 354 342 350 342 c 2
 304 342 l 1
 304 295 l 2
 304 283 301 272 292 263 c 0
 283 254 272 250 260 250 c 2
 204 250 l 2
 192 250 181 254 172 263 c 0
 163 272 158 283 158 295 c 2
 158 513 l 2
 158 525 163 536 172 545 c 0
 181 554 192 558 204 558 c 2
EndSplineSet
Validated: 1
EndChar

StartChar: uni2B63
Encoding: 11107 11107 683
Width: 536
VWidth: 2048
Flags: W
HStem: 250 45<204 260> 426 44<306 332> 513 45<158 332>
VStem: 158 46<295 470> 260 46<295 426> 332 46<470 513>
LayerCount: 2
Fore
SplineSet
158 558 m 1
 332 558 l 2
 344 558 355 554 364 545 c 0
 373 536 378 525 378 513 c 2
 378 470 l 2
 378 458 373 448 364 439 c 0
 355 430 344 426 332 426 c 2
 306 426 l 1
 306 295 l 2
 306 283 301 272 292 263 c 0
 283 254 272 250 260 250 c 2
 204 250 l 2
 192 250 181 254 172 263 c 0
 163 272 158 283 158 295 c 2
 158 352 l 1
 158 470 l 1
 204 470 l 1
 204 295 l 1
 260 295 l 1
 260 470 l 1
 332 470 l 1
 332 513 l 1
 158 513 l 1
 158 558 l 1
EndSplineSet
Validated: 1
EndChar

StartChar: uni2B64
Encoding: 11108 11108 684
Width: 536
VWidth: 2048
Flags: W
HStem: 214 79<242.723 293.284> 393 40<243.284 292.716> 553 40<237.162 299.073>
VStem: 128 110<295.188 391.479> 188 40<433 548.188> 298 110<295.278 391.479> 308 40<433 548.094>
LayerCount: 2
Fore
SplineSet
268 593 m 0xf0
 279 593 288 592 297 588 c 0
 306 584 313 580 319 574 c 0
 325 568 329 561 333 554 c 0
 337 547 340 540 342 533 c 0
 344 526 345 519 346 513 c 0
 347 507 348 503 348 499 c 1
 348 494 l 1
 348 433 l 1xf2
 408 433 l 1
 408 373 l 2
 408 371 408 368 408 364 c 0
 408 360 407 353 405 342 c 0
 403 331 400 320 397 310 c 0
 394 300 389 289 382 277 c 0
 375 265 367 254 357 245 c 0
 347 236 335 229 320 223 c 0
 305 217 287 214 268 214 c 0
 253 214 239 215 226 219 c 0
 213 223 203 228 194 234 c 0
 185 240 177 247 170 255 c 0
 163 263 156 271 152 280 c 0
 148 289 143 298 140 307 c 0
 137 316 135 324 133 332 c 0
 131 340 131 347 130 353 c 0
 129 359 128 364 128 368 c 2
 128 373 l 1
 128 433 l 1xf4
 188 433 l 1
 188 494 l 2
 188 495 188 497 188 499 c 0xe8
 188 501 189 506 190 513 c 0
 191 520 192 527 194 533 c 0
 196 539 199 546 203 554 c 0
 207 562 212 568 217 574 c 0
 222 580 229 584 238 588 c 0
 247 592 257 593 268 593 c 0xf0
268 553 m 0
 261 553 256 552 251 550 c 0
 246 548 243 545 240 539 c 0
 237 533 235 529 233 524 c 0
 231 519 231 511 230 499 c 0
 229 487 228 478 228 470 c 0
 228 462 228 450 228 433 c 1xea
 308 433 l 1
 308 449 308 462 308 470 c 0
 308 478 308 488 307 499 c 0
 306 510 305 519 303 524 c 0
 301 529 299 535 296 540 c 0
 293 545 289 548 285 550 c 0
 281 552 275 553 268 553 c 0
268 393 m 0
 262 393 257 391 252 386 c 0
 247 381 243 374 241 367 c 0
 239 360 238 352 238 343 c 0
 238 334 239 326 241 319 c 0
 243 312 247 306 252 301 c 0
 257 296 262 293 268 293 c 0
 274 293 279 296 284 301 c 0
 289 306 293 312 295 319 c 0
 297 326 298 334 298 343 c 0xf4
 298 352 297 360 295 367 c 0
 293 374 289 381 284 386 c 0
 279 391 274 393 268 393 c 0
EndSplineSet
Validated: 1
EndChar

StartChar: uni2B80
Encoding: 11136 11136 685
Width: 536
VWidth: 2048
Flags: W
LayerCount: 2
Fore
SplineSet
-1 796 m 1
 457 299 l 1
 -1 -198 l 1
 -10 -198 l 1
 -10 796 l 1
 -1 796 l 1
EndSplineSet
Validated: 1
EndChar

StartChar: uni2B81
Encoding: 11137 11137 686
Width: 536
VWidth: 2048
Flags: W
LayerCount: 2
Fore
SplineSet
8 789 m 0
 12 793 16 796 24 796 c 0
 30 796 36 794 40 788 c 2
 452 316 l 2
 456 312 458 307 458 299 c 0
 458 291 456 286 452 282 c 1
 40 -191 l 2
 36 -197 30 -198 24 -198 c 0
 16 -198 12 -196 8 -192 c 0
 4 -186 0 -180 0 -174 c 0
 0 -166 2 -161 6 -157 c 1
 403 299 l 1
 6 755 l 1
 2 759 0 766 0 774 c 0
 0 780 4 783 8 789 c 0
EndSplineSet
Validated: 1
EndChar

StartChar: uni2B82
Encoding: 11138 11138 687
Width: 536
VWidth: 2048
Flags: W
LayerCount: 2
Fore
SplineSet
536 796 m 1
 536 -198 l 1
 78 299 l 1
 536 796 l 1
EndSplineSet
Validated: 1
EndChar

StartChar: uni2B83
Encoding: 11139 11139 688
Width: 536
VWidth: 2048
Flags: W
LayerCount: 2
Fore
SplineSet
524 789 m 4
 528 785 532 780 532 774 c 4
 532 766 530 759 526 755 c 5
 129 299 l 5
 526 -157 l 5
 530 -161 532 -166 532 -174 c 4
 532 -182 528 -186 524 -192 c 4
 520 -196 515 -198 507 -198 c 4
 501 -198 497 -197 493 -191 c 6
 80 282 l 6
 76 286 74 291 74 299 c 4
 74 307 76 310 80 316 c 5
 493 788 l 6
 497 794 501 796 507 796 c 4
 515 796 520 793 524 789 c 4
EndSplineSet
Validated: 1
EndChar

StartChar: uni21E0
Encoding: 8672 8672 689
Width: 536
VWidth: 0
Flags: W
HStem: 293 61<230 251 280 342 388 450 494 535> 456 20G<206.34 230>
VStem: 280 62<293 354> 388 62<293 354> 494 41<293 354>
LayerCount: 2
Fore
SplineSet
230 476 m 1
 230 354 l 1
 251 354 l 1
 251 293 l 1
 230 293 l 1
 230 171 l 1
 49 323 l 1
 230 476 l 1
280 354 m 1
 342 354 l 1
 342 293 l 1
 280 293 l 1
 280 354 l 1
494 354 m 1
 535 354 l 1
 535 293 l 1
 494 293 l 1
 494 354 l 1
388 354 m 1
 450 354 l 1
 450 293 l 1
 388 293 l 1
 388 354 l 1
EndSplineSet
Validated: 1
EndChar

StartChar: uni21E1
Encoding: 8673 8673 690
Width: 536
VWidth: 0
Flags: W
HStem: 80 41<213 274> 165 62<213 274> 273 62<213 274>
VStem: 213 61<80 121 165 227 273 335 364 385>
LayerCount: 2
Fore
SplineSet
91 385 m 1
 244 566 l 1
 396 385 l 1
 274 385 l 1
 274 364 l 1
 213 364 l 1
 213 385 l 1
 91 385 l 1
213 335 m 1
 274 335 l 1
 274 273 l 1
 213 273 l 1
 213 335 l 1
213 121 m 1
 274 121 l 1
 274 80 l 1
 213 80 l 1
 213 121 l 1
213 227 m 1
 274 227 l 1
 274 165 l 1
 213 165 l 1
 213 227 l 1
EndSplineSet
Validated: 1
EndChar

StartChar: uni21E2
Encoding: 8674 8674 691
Width: 536
VWidth: 0
Flags: W
HStem: 293 61<0 41 85 147 193 255 284 305> 456 20G<305 328.66>
VStem: 0 41<293 354> 85 62<293 354> 193 62<293 354>
LayerCount: 2
Fore
SplineSet
305 476 m 1
 486 323 l 1
 305 171 l 1
 305 293 l 1
 284 293 l 1
 284 354 l 1
 305 354 l 1
 305 476 l 1
255 354 m 1
 255 293 l 1
 193 293 l 1
 193 354 l 1
 255 354 l 1
41 354 m 1
 41 293 l 1
 0 293 l 1
 0 354 l 1
 41 354 l 1
147 354 m 1
 147 293 l 1
 85 293 l 1
 85 354 l 1
 147 354 l 1
EndSplineSet
Validated: 1
EndChar

StartChar: uni21E3
Encoding: 8675 8675 692
Width: 536
VWidth: 0
Flags: W
HStem: 311 62<213 274> 419 62<213 274> 525 41<213 274>
VStem: 213 61<261 282 311 373 419 481 525 566>
LayerCount: 2
Fore
SplineSet
396 261 m 1
 243 80 l 1
 91 261 l 1
 213 261 l 1
 213 282 l 1
 274 282 l 1
 274 261 l 1
 396 261 l 1
274 311 m 1
 213 311 l 1
 213 373 l 1
 274 373 l 1
 274 311 l 1
274 525 m 1
 213 525 l 1
 213 566 l 1
 274 566 l 1
 274 525 l 1
274 419 m 1
 213 419 l 1
 213 481 l 1
 274 481 l 1
 274 419 l 1
EndSplineSet
Validated: 1
EndChar

StartChar: uni25B4
Encoding: 9652 9652 693
Width: 536
VWidth: 0
Flags: W
HStem: 272 322
LayerCount: 2
Fore
SplineSet
474 272 m 1
 60 272 l 1
 273 594 l 1
 474 272 l 1
EndSplineSet
Validated: 1
EndChar

StartChar: uni25BE
Encoding: 9662 9662 694
Width: 536
VWidth: 0
Flags: W
HStem: 272 322
LayerCount: 2
Fore
SplineSet
474.5 594 m 5
 273 272 l 5
 60.5 594 l 5
 474.5 594 l 5
EndSplineSet
Validated: 1
EndChar

StartChar: SF110000
Encoding: 9474 9474 695
Width: 536
VWidth: 0
Flags: HW
VStem: 244 61<-200 800>
LayerCount: 2
Fore
SplineSet
305 800 m 1
 305 467 305 133 305 -200 c 1
 244 -200 l 1
 244 133 244 467 244 800 c 1
 305 800 l 1
EndSplineSet
Validated: 1
EndChar

StartChar: SF100000
Encoding: 9472 9472 696
Width: 536
VWidth: 0
Flags: HW
HStem: 293 61<0 536>
LayerCount: 2
Fore
SplineSet
536 354 m 1
 536 293 l 1
 0 293 l 1
 0 354 l 1
 536 354 l 1
EndSplineSet
Validated: 1
EndChar

StartChar: SF050000
Encoding: 9532 9532 697
Width: 536
VWidth: 0
Flags: HW
HStem: 293 61<0 244 305 536>
VStem: 244 61<-200 293 354 800>
LayerCount: 2
Fore
SplineSet
244 800 m 1
 305 800 l 1
 305 354 l 1
 536 354 l 1
 536 293 l 1
 305 293 l 1
 305 -200 l 1
 244 -200 l 1
 244 293 l 1
 0 293 l 1
 0 354 l 1
 244 354 l 1
 244 800 l 1
EndSplineSet
Validated: 1
EndChar

StartChar: uniE0B0
Encoding: 57520 57520 698
Width: 536
VWidth: 2048
Flags: W
LayerCount: 2
Fore
SplineSet
-1 796 m 1
 457 299 l 1
 -1 -198 l 1
 -10 -198 l 1
 -10 796 l 1
 -1 796 l 1
EndSplineSet
Validated: 1
EndChar

StartChar: uniE0B1
Encoding: 57521 57521 699
Width: 536
VWidth: 2048
Flags: W
LayerCount: 2
Fore
SplineSet
8 789 m 0
 12 793 16 796 24 796 c 0
 30 796 36 794 40 788 c 2
 452 316 l 2
 456 312 458 307 458 299 c 0
 458 291 456 286 452 282 c 1
 40 -191 l 2
 36 -197 30 -198 24 -198 c 0
 16 -198 12 -196 8 -192 c 0
 4 -186 0 -180 0 -174 c 0
 0 -166 2 -161 6 -157 c 1
 403 299 l 1
 6 755 l 1
 2 759 0 766 0 774 c 0
 0 780 4 783 8 789 c 0
EndSplineSet
Validated: 1
EndChar

StartChar: uniE0A2
Encoding: 57506 57506 700
Width: 536
VWidth: 2048
Flags: W
HStem: 119 119<235.234 300.681> 388 60<235.093 300.907> 628 60<225.863 310.812>
VStem: 58 165<249.295 377.735> 148 60<448 613.798> 313 165<249.35 377.735> 328 60<448 613.868>
LayerCount: 2
Fore
SplineSet
268 688 m 0xf0
 284 688 298 686 312 680 c 0
 325 674 336 668 344 659 c 0
 354 650 360 640 366 629 c 0
 372 619 376 608 379 598 c 0
 382 587 384 577 385 568 c 0
 386 559 388 553 388 547 c 1
 388 539 l 1
 388 448 l 1xf2
 478 448 l 1
 478 358 l 2
 478 355 478 350 478 344 c 0
 478 338 476 328 474 311 c 0
 470 295 466 278 462 263 c 0
 457 248 450 232 439 214 c 0
 428 196 416 179 402 166 c 0
 386 152 368 142 346 133 c 0
 324 124 296 119 268 119 c 0
 246 119 224 121 205 127 c 0
 186 133 170 140 157 149 c 0
 144 158 132 169 121 181 c 0
 110 193 100 205 94 218 c 0
 88 232 80 245 76 259 c 0
 72 272 68 284 66 296 c 0
 62 308 62 319 61 328 c 0
 60 337 58 344 58 350 c 2
 58 358 l 1
 58 448 l 1xf4
 148 448 l 1
 148 539 l 2
 148 541 148 544 148 547 c 0xe8
 148 550 150 557 151 568 c 0
 152 578 154 589 157 598 c 0
 160 607 164 617 170 629 c 0
 176 641 184 650 192 659 c 0
 199 668 210 674 223 680 c 0
 236 686 252 688 268 688 c 0xf0
268 628 m 0
 258 628 250 626 242 623 c 0
 235 620 230 616 226 607 c 0
 222 598 218 592 216 584 c 0
 212 577 212 565 211 547 c 0
 210 529 208 515 208 503 c 0
 208 491 208 473 208 448 c 1xea
 328 448 l 1
 328 472 328 491 328 503 c 0
 328 515 328 530 326 547 c 0
 325 563 324 577 320 584 c 0
 318 592 314 601 310 608 c 0
 306 616 300 620 294 623 c 0
 288 626 278 628 268 628 c 0
268 388 m 0
 259 388 252 385 244 377 c 0
 236 370 230 359 228 349 c 0
 224 338 223 326 223 313 c 0
 223 299 224 287 228 277 c 0
 230 266 236 257 244 250 c 0
 252 242 259 238 268 238 c 0
 277 238 284 242 292 250 c 0
 300 257 306 266 308 277 c 0
 312 287 313 299 313 313 c 0xf4
 313 326 312 338 308 349 c 0
 306 359 300 370 292 377 c 0
 284 385 277 388 268 388 c 0
EndSplineSet
Validated: 1
EndChar

StartChar: uniE0A0
Encoding: 57504 57504 701
Width: 536
VWidth: 2048
Flags: W
VStem: 114 94<58 253.75 383.469 750> 304 54<384.282 494>
LayerCount: 2
Fore
SplineSet
114 315 m 1
 124 316 135 318 150 322 c 0
 165 326 182 331 200 338 c 0
 218 345 235 353 250 361 c 0
 265 369 278 379 288 390 c 0
 298 401 304 412 304 424 c 2
 304 494 l 1
 240 492 l 1
 332 663 l 1
 422 492 l 1
 358 494 l 1
 358 424 l 2
 358 409 356 395 350 381 c 0
 344 367 337 354 328 344 c 0
 319 334 310 324 300 314 c 0
 290 304 279 296 268 287 c 0
 257 278 247 270 238 262 c 0
 229 254 223 246 218 238 c 0
 213 230 208 220 208 212 c 2
 208 58 l 1
 114 58 l 1
 114 315 l 1
114 368 m 1
 114 750 l 1
 208 750 l 1
 208 395 l 1
 204 389 188 383 162 377 c 0
 136 371 120 368 114 368 c 1
EndSplineSet
Validated: 1
EndChar

StartChar: uniE0A1
Encoding: 57505 57505 702
Width: 536
VWidth: 0
Flags: W
HStem: 387 60<153 276>
VStem: 92 61<447 691> 244 60<19 171> 396 61<171 323>
LayerCount: 2
Fore
SplineSet
244 323 m 1
 304 323 l 1
 396 171 l 1
 396 323 l 1
 457 323 l 1
 457 19 l 1
 398 20 l 1
 304 171 l 1
 304 19 l 1
 244 19 l 1
 244 323 l 1
92 691 m 1
 153 691 l 1
 153 447 l 1
 276 447 l 1
 276 387 l 1
 92 387 l 1
 92 691 l 1
EndSplineSet
Validated: 1
EndChar

StartChar: block
Encoding: 9608 9608 703
Width: 536
VWidth: 0
Flags: W
VStem: 0 536<-200 800>
LayerCount: 2
Fore
SplineSet
0 800 m 1
 536 800 l 1
 536 -200 l 1
 0 -200 l 1
 0 800 l 1
EndSplineSet
Validated: 1
EndChar

StartChar: NameMe.702
Encoding: 1114232 -1 704
Width: 536
VWidth: 0
Flags: W
HStem: 58 60<121 415> 668 61<121 415>
VStem: 60 61<118 668> 415 61<118 668>
LayerCount: 2
Fore
SplineSet
121 668 m 1
 121 118 l 1
 415 118 l 1
 415 668 l 1
 121 668 l 1
60 729 m 1
 476 729 l 1
 476 58 l 1
 60 58 l 1
 60 729 l 1
EndSplineSet
Validated: 1
EndChar

StartChar: SF090000
Encoding: 9508 9508 707
Width: 536
VWidth: 0
Flags: HW
HStem: 293 61<0 244>
VStem: 244 61<-200 293 354 800>
LayerCount: 2
Fore
SplineSet
244 800 m 1
 305 800 l 1
 305 -200 l 5
 244 -200 l 5
 244 293 l 1
 0 293 l 1
 0 354 l 1
 244 354 l 1
 244 800 l 1
EndSplineSet
Validated: 1
EndChar

StartChar: SF010000
Encoding: 9484 9484 708
Width: 536
VWidth: 0
Flags: HW
HStem: 294 60<306 536>
VStem: 244 62<-199 294>
LayerCount: 2
Fore
SplineSet
244 -199 m 29
 244 354 l 29
 536 354 l 29
 536 294 l 29
 306 294 l 29
 306 -199 l 29
 244 -199 l 29
EndSplineSet
Validated: 1
EndChar

StartChar: SF030000
Encoding: 9488 9488 709
Width: 536
VWidth: 0
Flags: HW
HStem: 294 60<0 244>
VStem: 244 62<-199 294>
LayerCount: 2
Fore
SplineSet
306 -199 m 25
 244 -199 l 25
 244 294 l 25
 0 294 l 25
 0 354 l 25
 306 354 l 25
 306 -199 l 25
EndSplineSet
Validated: 1
EndChar

StartChar: SF020000
Encoding: 9492 9492 710
Width: 536
VWidth: 0
Flags: HW
HStem: 292 62<306 536>
VStem: 244 62<354 800>
LayerCount: 2
Fore
SplineSet
244 800 m 25
 306 800 l 25
 306 354 l 25
 536 354 l 25
 536 292 l 25
 244 292 l 25
 244 800 l 25
EndSplineSet
Validated: 1
EndChar

StartChar: SF040000
Encoding: 9496 9496 711
Width: 536
VWidth: 0
Flags: HW
HStem: 292 62<0 244>
VStem: 244 62<354 800>
LayerCount: 2
Fore
SplineSet
306 800 m 25
 306 292 l 25
 0 292 l 25
 0 354 l 25
 244 354 l 25
 244 800 l 25
 306 800 l 25
EndSplineSet
Validated: 1
EndChar

StartChar: uniF0FF
Encoding: 61695 61695 712
Width: 536
Flags: HMW
LayerCount: 2
Fore
SplineSet
69 501 m 4
 77 501 84 498 91 491 c 4
 96 486 99 479 99 470 c 4
 99 463 96 454 91 449 c 5
 85 444 77 441 69 441 c 4
 62 441 54 445 48 450 c 5
 41 457 38 463 38 470 c 4
 38 478 42 486 48 491 c 4
 48 491 l 4
 55 498 62 501 69 501 c 4
346 291 m 4
 346 299 348 306 354 312 c 4
 355 313 356 313 356 314 c 4
 360 320 366 323 377 323 c 4
 385 323 390 322 396 316 c 4
 402 311 406 304 406 294 c 4
 406 287 403 279 397 273 c 4
 397 272 l 4
 392 265 386 262 375 262 c 4
 367 262 362 264 356 270 c 4
 355 271 l 4
 349 275 346 281 346 291 c 4
146 470 m 4
 146 449 150 430 161 411 c 4
 170 396 181 384 194 373 c 5
 174 340 l 5
 160 351 148 363 140 376 c 4
 140 377 l 4
 129 391 121 408 116 424 c 5
 131 437 136 452 136 470 c 4
 136 490 129 507 116 518 c 5
 122 536 129 551 140 565 c 4
 141 566 l 4
 149 580 161 592 174 603 c 5
 194 570 l 5
 181 559 170 544 161 529 c 4
 150 511 146 492 146 470 c 4
273 599 m 4
 257 599 240 596 228 591 c 5
 210 623 l 5
 231 632 250 635 273 635 c 4
 288 635 301 634 312 632 c 5
 315 616 324 607 334 598 c 4
 335 597 l 4
 347 588 361 582 377 582 c 4
 382 582 388 584 392 585 c 5
 419 557 435 527 438 492 c 5
 400 492 l 5
 396 522 380 546 360 565 c 5
 336 590 307 599 273 599 c 4
273 343 m 4
 307 343 337 355 360 377 c 5
 381 398 397 423 400 451 c 5
 438 451 l 5
 435 415 418 383 392 356 c 5
 387 358 384 360 377 360 c 4
 362 360 347 355 335 344 c 5
 324 335 315 324 312 310 c 5
 299 307 288 307 273 307 c 4
 250 307 230 311 210 320 c 5
 228 352 l 5
 242 347 257 343 273 343 c 4
377 619 m 4
 369 619 362 622 354 628 c 5
 348 634 345 642 345 650 c 4
 345 661 348 666 353 670 c 4
 354 671 l 4
 360 677 367 679 375 679 c 4
 385 679 392 675 398 670 c 5
 403 663 406 655 406 648 c 4
 406 638 402 631 397 627 c 4
 396 626 l 4
 390 620 386 619 377 619 c 4
EndSplineSet
Validated: 1
EndChar

StartChar: u1F55C
Encoding: 128348 128348 719
Width: 536
VWidth: 0
InSpiro: 1
Flags: HMW
LayerCount: 2
Fore
SplineSet
263 332 m 1
 233 332 l 1
 233 470 l 0
 233 474 235 479 238 481 c 0
 313 556 l 1
 334 535 l 1
 263 464 l 1
 263 332 l 1
  Spiro
    263.141 332.436 v
    233.141 332.436 v
    233.141 470.436 [
    233.76 474.464 o
    235.359 478.158 o
    237.534 481.042 ]
    312.534 556.042 v
    333.748 534.829 v
    263.141 464.223 v
    0 0 z
  EndSpiro
171 299 m 1
 138 299 l 1
 138 332 l 1
 171 332 l 1
 171 299 l 1
  Spiro
    171 299 v
    138 299 v
    138 332 v
    171 332 v
    0 0 z
  EndSpiro
111 360 m 1
 78 360 l 1
 78 393 l 1
 111 393 l 1
 111 360 l 1
  Spiro
    111 360 v
    78 360 v
    78 393 v
    111 393 v
    0 0 z
  EndSpiro
81 451 m 1
 48 451 l 1
 48 485 l 1
 81 485 l 1
 81 451 l 1
  Spiro
    81 451 v
    48 451 v
    48 485 v
    81 485 v
    0 0 z
  EndSpiro
112 544 m 1
 79 544 l 1
 79 577 l 1
 112 577 l 1
 112 544 l 1
  Spiro
    112 544 v
    79 544 v
    79 577 v
    112 577 v
    0 0 z
  EndSpiro
172 603 m 1
 139 603 l 1
 139 636 l 1
 172 636 l 1
 172 603 l 1
  Spiro
    172 603 v
    139 603 v
    139 636 v
    172 636 v
    0 0 z
  EndSpiro
231 301 m 1
 264 301 l 1
 264 268 l 1
 231 268 l 1
 231 301 l 1
  Spiro
    231 301 v
    264 301 v
    264 268 v
    231 268 v
    0 0 z
  EndSpiro
325 332 m 1
 358 332 l 1
 358 299 l 1
 325 299 l 1
 325 332 l 1
  Spiro
    325 332 v
    358 332 v
    358 299 v
    325 299 v
    0 0 z
  EndSpiro
385 393 m 1
 418 393 l 1
 418 360 l 1
 385 360 l 1
 385 393 l 1
  Spiro
    385 393 v
    418 393 v
    418 360 v
    385 360 v
    0 0 z
  EndSpiro
415 485 m 1
 448 485 l 1
 448 451 l 1
 415 451 l 1
 415 485 l 1
  Spiro
    415 485 v
    448 485 v
    448 451 v
    415 451 v
    0 0 z
  EndSpiro
384 577 m 1
 418 577 l 1
 418 544 l 1
 384 544 l 1
 384 577 l 1
  Spiro
    384 577 v
    418 577 v
    418 544 v
    384 544 v
    0 0 z
  EndSpiro
324 636 m 1
 358 636 l 1
 358 603 l 1
 324 603 l 1
 324 636 l 1
  Spiro
    324 636 v
    358 636 v
    358 603 v
    324 603 v
    0 0 z
  EndSpiro
231 666 m 1
 264 666 l 1
 264 633 l 1
 231 633 l 1
 231 666 l 1
  Spiro
    231 666 v
    264 666 v
    264 633 v
    231 633 v
    0 0 z
  EndSpiro
EndSplineSet
Validated: 1
EndChar

StartChar: NameMe.721
Encoding: 1114233 -1 724
Width: 536
VWidth: 0
Flags: W
HStem: 220 60<97 189> 345 60<97 189>
VStem: 37 60<280 345> 189 60<187 220 405 439>
LayerCount: 2
Fore
SplineSet
37 405 m 5
 189 405 l 5
 189 561 l 5
 511 313 l 5
 189 66 l 5
 189 220 l 5
 37 220 l 5
 37 405 l 5
97 345 m 5
 97 280 l 5
 249 280 l 5
 249 187 l 5
 413 313 l 5
 249 439 l 5
 249 345 l 5
 97 345 l 5
EndSplineSet
Validated: 1
EndChar

StartChar: Hbar
Encoding: 294 294 730
Width: 536
VWidth: 0
Flags: W
HStem: 49 21G<54 115 421 481> 293 61<115 421> 411 59<28 54 115 421 481 505> 578 20G<54 115 421 481>
VStem: 54 61<49 293 354 411 470 598> 421 60<49 293 354 411 470 598>
LayerCount: 2
Fore
SplineSet
54 598 m 1
 115 598 l 1
 115 470 l 1
 421 470 l 1
 421 598 l 1
 481 598 l 1
 481 470 l 1
 505 470 l 1
 505 411 l 1
 481 411 l 1
 481 49 l 1
 421 49 l 1
 421 293 l 1
 115 293 l 1
 115 49 l 1
 54 49 l 1
 54 411 l 1
 28 411 l 1
 28 470 l 1
 54 470 l 1
 54 598 l 1
421 411 m 1
 115 411 l 1
 115 354 l 1
 421 354 l 1
 421 411 l 1
EndSplineSet
Validated: 1
EndChar

StartChar: hbar
Encoding: 295 295 731
Width: 536
VWidth: 0
Flags: W
HStem: 48 21G<52 112 359 419> 416 59<217 314> 538 60<28 52 112 251>
VStem: 52 60<48 315 398 538 598 666> 359 60<48 372>
LayerCount: 2
Fore
SplineSet
52 538 m 1
 28 538 l 1
 28 598 l 1
 52 598 l 1
 52 666 l 1
 112 666 l 1
 112 598 l 1
 251 598 l 1
 251 538 l 1
 112 538 l 1
 112 398 l 1
 184 470 l 2
 190 475 197 475 205 475 c 2
 326 475 l 2
 334 475 341 472 347 467 c 2
 410 407 l 2
 416 401 419 394 419 385 c 2
 419 48 l 1
 359 48 l 1
 359 372 l 1
 314 416 l 1
 217 416 l 1
 112 315 l 1
 112 48 l 1
 52 48 l 1
 52 538 l 1
EndSplineSet
Validated: 1
EndChar

StartChar: dotlessi
Encoding: 305 305 737
Width: 536
VWidth: 0
Flags: W
HStem: 49 21G<237 298> 456 20G<237 298>
VStem: 237 61<49 476>
LayerCount: 2
Fore
SplineSet
237 476 m 1
 298 476 l 1
 298 49 l 1
 237 49 l 1
 237 476 l 1
EndSplineSet
Validated: 1
EndChar

StartChar: Idotaccent
Encoding: 304 304 738
Width: 536
VWidth: 0
Flags: W
HStem: 48 61<176 237 298 359> 537 61<177 237 298 359> 659 61<237 298>
VStem: 176 183<48 109 537 598> 237 61<109 537 659 720>
LayerCount: 2
Fore
SplineSet
177 598 m 1xf0
 359 598 l 1
 359 537 l 1xf0
 298 537 l 1
 298 109 l 1xe8
 359 109 l 1
 359 48 l 1
 176 48 l 1
 176 109 l 1xf0
 237 109 l 1
 237 537 l 1xe8
 176 537 l 1
 177 598 l 1xf0
237 720 m 1xe8
 298 720 l 1
 298 659 l 1
 237 659 l 1
 237 720 l 1xe8
EndSplineSet
Validated: 1
EndChar

StartChar: ogonek
Encoding: 731 731 742
Width: 536
VWidth: 0
Flags: HMW
LayerCount: 2
Fore
SplineSet
118 6 m 1
 117 7 116 11 116 15 c 1
 116 172 l 1
 173 172 l 1
 173 31 l 1
 195 8 l 1
 217 8 l 1
 217 -50 l 1
 182 -50 l 2
 172 -50 168 -47 162 -41 c 2
 124 0 l 2
 118 6 l 1
EndSplineSet
Validated: 1
EndChar

StartChar: breve
Encoding: 728 728 743
Width: 536
VWidth: 0
InSpiro: 1
Flags: W
HStem: 511 60<205.569 319.622> 639 20G<113 173.5 351 411>
VStem: 119 58<599.155 659> 351 60<602.575 659>
LayerCount: 2
Fore
SplineSet
113 659 m 1
 173 659 l 1
 174 651 175 644 177 636 c 0
 179 628 182 621 186 614 c 0
 190 607 195 603 200 598 c 0
 206 592 212 586 219 582 c 0
 226 578 233 576 241 574 c 0
 248 572 256 571 263 571 c 0
 271 571 279 572 286 574 c 0
 293 576 300 579 307 583 c 0
 314 587 320 593 325 598 c 0
 330 603 335 608 339 615 c 0
 343 622 346 631 348 639 c 0
 350 646 351 652 351 659 c 1
 411 659 l 1
 411 646 410 633 406 621 c 0
 402 609 397 597 391 586 c 0
 385 575 377 564 368 555 c 0
 359 546 349 538 338 532 c 0
 327 526 315 521 302 517 c 0
 290 514 278 511 265 511 c 0
 252 511 239 512 226 515 c 0
 213 518 201 524 190 530 c 0
 179 536 168 544 158 553 c 0
 149 562 140 572 134 583 c 0
 127 594 122 606 119 619 c 0
 116 631 113 646 113 659 c 1
  Spiro
    113 657 v
    173 659 v
    177 636 o
    186 614 o
    200 596 o
    219 582 o
    241 574 o
    263 571 o
    286 574 o
    307 583 o
    325 597 o
    339 615 o
    348 637 o
    351 659 v
    411 659 v
    406 621 o
    391 586 o
    368 555 o
    338 532 o
    302 517 o
    265 511 o
    226 515 o
    190 530 o
    158 553 o
    134 583 o
    119 619 o
    0 0 z
  EndSpiro
EndSplineSet
Validated: 1
EndChar

StartChar: jcircumflex
Encoding: 309 309 745
Width: 536
VWidth: 0
Flags: W
HStem: -73 59<218 317> 456 20G<359 420>
VStem: 359 61<29 476>
LayerCount: 2
Fore
SplineSet
247 692 m 2
 249 694 251 696 253 697 c 0
 255 698 257 700 260 701 c 0
 265 702 269 702 274 701 c 0
 277 700 279 698 281 697 c 0
 283 696 285 694 287 692 c 2
 410 570 l 1
 370 529 l 1
 267 631 l 1
 165 529 l 1
 124 570 l 1
 247 692 l 2
  Spiro
    247 692 ]
    248.998 693.961 o
    251.002 695.705 o
    253 697 o
    255.035 698.258 o
    257.299 699.742 o
    260 701 o
    264.736 701.666 o
    269.264 701.666 o
    274 701 o
    276.701 699.742 o
    278.965 698.258 o
    281 697 o
    282.998 695.705 o
    285.002 693.961 o
    287 692 [
    410 570 v
    370 529 v
    267 631 v
    165 529 v
    124 570 v
    0 0 z
  EndSpiro
420 17 m 2
 420 9 416 2 410 -4 c 2
 350 -65 l 2
 344 -71 338 -73 329 -73 c 2
 205 -73 l 2
 197 -73 190 -70 184 -64 c 2
 124 -3 l 1
 166 39 l 1
 218 -14 l 1
 317 -14 l 1
 359 29 l 1
 359 476 l 1
 420 476 l 1
 420 17 l 2
EndSplineSet
Validated: 1
EndChar

StartChar: IJ
Encoding: 306 306 746
Width: 536
VWidth: 0
Flags: W
HStem: 48 61<58 97 158 196 300 346> 537 61<59 97 158 196 353 388 448 479>
VStem: 58 138<48 109 537 598> 198 58<151 232> 353 126<537 598> 388 60<153 537>
LayerCount: 2
Fore
SplineSet
196 232 m 1xf4
 256 232 l 1
 256 151 l 1
 300 110 l 1
 346 110 l 1
 388 153 l 1
 388 537 l 1xf4
 353 537 l 1
 353 598 l 1
 479 598 l 1
 479 537 l 1xf8
 448 537 l 1
 448 141 l 2
 448 137 447 127 440 120 c 2
 381 59 l 2
 377 55 369 50 359 50 c 2
 288 50 l 2
 284 50 274 51 267 58 c 2
 207 116 l 2
 204 119 198 127 198 137 c 2
 196 232 l 1xf4
59 598 m 1
 196 598 l 1
 196 537 l 1
 158 537 l 1
 158 109 l 1
 196 109 l 1
 196 48 l 1
 58 48 l 1
 58 109 l 1
 97 109 l 1
 97 537 l 1
 58 537 l 1
 59 598 l 1
EndSplineSet
Validated: 1
EndChar

StartChar: ellipsis
Encoding: 8230 8230 748
Width: 536
VWidth: 0
Flags: HW
LayerCount: 2
Fore
SplineSet
177 171 m 1
 248 171 l 1
 248 49 l 1
 177 49 l 1
 177 171 l 1
30 171 m 1
 101 171 l 1
 101 49 l 1
 30 49 l 1
 30 171 l 1
323 171 m 1
 394 171 l 1
 394 49 l 1
 323 49 l 1
 323 171 l 1
EndSplineSet
Validated: 1
EndChar

StartChar: uni27F3
Encoding: 10227 10227 749
Width: 536
VWidth: 0
Flags: HW
LayerCount: 2
Fore
SplineSet
440 474 m 1
 440 594 l 2
 440 610 454 624 470 624 c 0
 486 624 500 610 500 594 c 2
 500 382 l 2
 500 366 486 352 470 352 c 2
 260 352 l 2
 244 352 230 366 230 382 c 0
 230 398 244 412 260 412 c 2
 364 412 l 2
 364 412 369 412 375 412 c 0
 407 412 l 1
 383 467 329 505 266 505 c 0
 181 505 112 436 112 351 c 0
 112 266 181 197 266 197 c 0
 331 197 387 238 409 295 c 1
 472 295 l 1
 447 204 365 137 266 137 c 0
 148 137 52 233 52 351 c 0
 52 469 148 565 266 565 c 0
 338 565 401 529 440 474 c 1
EndSplineSet
Validated: 1
EndChar

StartChar: NameMe.755
Encoding: 1114235 -1 755
Width: 536
VWidth: 0
Flags: W
HStem: 49 60<115 481> 244 61<115 359> 409 61<115 481>
VStem: 54 61<109 244 305 409>
LayerCount: 2
Fore
SplineSet
54 470 m 1
 481 470 l 1
 481 409 l 1
 115 409 l 1
 115 305 l 1
 359 305 l 1
 359 244 l 1
 115 244 l 1
 115 109 l 1
 481 109 l 1
 481 49 l 1
 54 49 l 1
 54 470 l 1
EndSplineSet
Validated: 1
EndChar

StartChar: NameMe.756
Encoding: 1114236 -1 756
Width: 536
VWidth: 0
Flags: HW
HStem: 50 60<157 379>
VStem: 56 60<152 470> 420 60<153 470>
LayerCount: 2
Fore
SplineSet
56 470 m 1
 115 470 l 1
 115 152 l 1
 157 110 l 1
 379 110 l 1
 420 153 l 1
 420 470 l 1
 480 470 l 1
 480 141 l 2
 480 137 479 128 472 121 c 2
 414 60 l 2
 410 56 402 50 392 50 c 2
 144 50 l 2
 139 50 130 52 123 59 c 2
 64 118 l 2
 61 121 56 129 56 139 c 2
 56 470 l 1
EndSplineSet
Validated: 1
EndChar

StartChar: smalll
Encoding: 1114237 -1 761
Width: 536
VWidth: 0
Flags: HW
HStem: 49 60<310 359> 639 20G<237 297>
VStem: 237 60<123 659>
LayerCount: 2
Fore
SplineSet
297 123 m 1
 310 109 l 1
 359 109 l 1
 359 49 l 1
 298 49 l 2
 290 49 283 52 277 58 c 2
 246 89 l 2
 240 95 237 102 237 110 c 2
 237 471 l 5
 297 471 l 5
 297 123 l 1
EndSplineSet
Validated: 1
EndChar

StartChar: SF060000
Encoding: 9516 9516 767
Width: 536
VWidth: 0
Flags: HW
HStem: 293 61<0 244 305 536>
VStem: 244 61<-200 293>
LayerCount: 2
Fore
SplineSet
536 354 m 1
 536 293 l 1
 305 293 l 1
 305 -200 l 1
 244 -200 l 1
 244 293 l 1
 0 293 l 1
 0 354 l 1
 536 354 l 1
EndSplineSet
Validated: 1
EndChar

StartChar: SF070000
Encoding: 9524 9524 768
Width: 536
VWidth: 0
Flags: HW
HStem: 293 61<0 244 305 536>
VStem: 244 61<-200 293 354 800>
LayerCount: 2
Fore
SplineSet
0 293 m 1
 0 354 l 1
 244 354 l 1
 244 800 l 1
 305 800 l 1
 305 354 l 1
 536 354 l 1
 536 293 l 1
 0 293 l 1
EndSplineSet
Validated: 1
EndChar

StartChar: SF390000
Encoding: 9556 9556 769
Width: 536
VWidth: 0
Flags: HW
HStem: 231 61<367 536> 354 61<246 536>
VStem: 185 61<-200 354> 306 61<-200 231>
LayerCount: 2
Fore
SplineSet
536 415 m 1
 536 354 l 1
 246 354 l 1
 246 -200 l 1
 185 -200 l 1
 185 415 l 1
 536 415 l 1
536 292 m 5
 536 231 l 5
 367 231 l 5
 367 -200 l 5
 306 -200 l 5
 306 292 l 5
 536 292 l 5
EndSplineSet
Validated: 1
EndChar

StartChar: SF250000
Encoding: 9559 9559 770
Width: 536
VWidth: 0
Flags: HW
LayerCount: 2
Fore
SplineSet
367 415 m 1
 367 -200 l 1
 306 -200 l 1
 306 354 l 1
 0 354 l 1
 0 415 l 1
 367 415 l 1
246 292 m 5
 246 -200 l 5
 185 -200 l 5
 185 231 l 5
 0 231 l 5
 0 292 l 5
 246 292 l 5
EndSplineSet
Validated: 1
EndChar

StartChar: SF260000
Encoding: 9565 9565 771
Width: 536
VWidth: 0
Flags: HW
LayerCount: 2
Fore
SplineSet
367 800 m 1
 367 231 l 1
 0 231 l 1
 0 292 l 1
 306 292 l 1
 306 800 l 1
 367 800 l 1
246 800 m 5
 246 354 l 5
 0 354 l 5
 0 415 l 5
 185 415 l 5
 185 800 l 5
 246 800 l 5
EndSplineSet
Validated: 1
EndChar

StartChar: SF380000
Encoding: 9562 9562 772
Width: 536
VWidth: 0
Flags: HW
HStem: 231 61<246 536> 354 61<367 536>
VStem: 185 61<292 800> 306 61<415 800>
LayerCount: 2
Fore
SplineSet
536 415 m 5
 536 354 l 5
 306 354 l 5
 306 800 l 5
 367 800 l 5
 367 415 l 5
 536 415 l 5
536 292 m 1
 536 231 l 1
 185 231 l 1
 185 800 l 1
 246 800 l 1
 246 292 l 1
 536 292 l 1
EndSplineSet
Validated: 1
EndChar

StartChar: SF430000
Encoding: 9552 9552 773
Width: 536
VWidth: 0
Flags: HW
HStem: 231 61<0 536> 354 61<0 536>
LayerCount: 2
Fore
SplineSet
536 292 m 1
 536 231 l 1
 0 231 l 1
 0 292 l 1
 536 292 l 1
536 415 m 1
 536 354 l 1
 0 354 l 1
 0 415 l 1
 536 415 l 1
EndSplineSet
Validated: 1
EndChar

StartChar: SF240000
Encoding: 9553 9553 774
Width: 536
VWidth: 0
Flags: HW
VStem: 185 61<-200 800> 306 61<-200 800>
LayerCount: 2
Fore
SplineSet
246 800 m 1
 246 467 246 133 246 -200 c 1
 185 -200 l 1
 185 133 185 467 185 800 c 1
 246 800 l 1
367 800 m 1
 367 467 367 133 367 -200 c 1
 306 -200 l 1
 306 133 306 467 306 800 c 1
 367 800 l 1
EndSplineSet
Validated: 1
EndChar

StartChar: SF370000
Encoding: 9567 9567 775
Width: 536
VWidth: 0
Flags: HW
HStem: 293 61<367 536>
VStem: 185 61<-200 800> 306 61<-200 293 354 800>
LayerCount: 2
Fore
SplineSet
246 800 m 1
 246 467 246 133 246 -200 c 1
 185 -200 l 1
 185 133 185 467 185 800 c 1
 246 800 l 1
536 354 m 1
 536 293 l 1
 367 293 l 1
 367 -200 l 1
 306 -200 l 1
 306 133 306 467 306 800 c 1
 367 800 l 1
 367 354 l 1
 536 354 l 1
EndSplineSet
Validated: 1
EndChar

StartChar: SF200000
Encoding: 9570 9570 776
Width: 536
VWidth: 0
Flags: HW
HStem: 293 61<0 185>
VStem: 185 61<-200 293 354 800> 306 61<-200 800>
LayerCount: 2
Fore
SplineSet
246 800 m 1
 246 467 246 133 246 -200 c 1
 185 -200 l 1
 185 293 l 1
 0 293 l 1
 0 354 l 1
 185 354 l 1
 185 800 l 1
 246 800 l 1
367 800 m 1
 367 467 367 133 367 -200 c 1
 306 -200 l 1
 306 133 306 467 306 800 c 1
 367 800 l 1
EndSplineSet
Validated: 1
EndChar

StartChar: SF440000
Encoding: 9580 9580 777
Width: 536
VWidth: 0
Flags: HW
HStem: 231 61<0 185 367 536> 354 61<0 185 367 536>
VStem: 185 61<-200 231 415 800> 306 61<-200 231 415 800>
LayerCount: 2
Fore
SplineSet
246 800 m 1
 246 354 l 1
 0 354 l 1
 0 415 l 1
 185 415 l 1
 185 800 l 1
 246 800 l 1
536 415 m 1
 536 354 l 1
 306 354 l 1
 306 800 l 1
 367 800 l 1
 367 415 l 1
 536 415 l 1
536 292 m 1
 536 231 l 1
 367 231 l 1
 367 -200 l 1
 306 -200 l 1
 306 292 l 1
 536 292 l 1
246 292 m 1
 246 -200 l 1
 185 -200 l 1
 185 231 l 1
 0 231 l 1
 0 292 l 1
 246 292 l 1
EndSplineSet
Validated: 1
EndChar

StartChar: SF530000
Encoding: 9579 9579 778
Width: 536
VWidth: 0
Flags: HW
HStem: 293 61<0 536>
LayerCount: 2
Fore
SplineSet
536 354 m 1
 536 293 l 1
 367 293 l 1
 367 -200 l 1
 306 -200 l 1
 306 293 l 1
 246 293 l 1
 246 -200 l 1
 185 -200 l 1
 185 293 l 1
 0 293 l 1
 0 354 l 1
 185 354 l 1
 185 800 l 1
 246 800 l 1
 246 354 l 1
 306 354 l 1
 306 800 l 1
 367 800 l 1
 367 354 l 1
 536 354 l 1
EndSplineSet
Validated: 1
EndChar

StartChar: SF540000
Encoding: 9578 9578 779
Width: 536
VWidth: 0
Flags: HW
VStem: 244 61<-200 800>
LayerCount: 2
Fore
SplineSet
536 415 m 1
 536 354 l 1
 305 354 l 1
 305 292 l 1
 536 292 l 1
 536 231 l 1
 305 231 l 1
 305 -200 l 1
 244 -200 l 1
 244 231 l 1
 0 231 l 1
 0 292 l 1
 244 292 l 1
 244 354 l 1
 0 354 l 1
 0 415 l 1
 244 415 l 1
 244 800 l 1
 305 800 l 1
 305 415 l 1
 536 415 l 1
EndSplineSet
Validated: 1
EndChar

StartChar: SF230000
Encoding: 9571 9571 780
Width: 536
VWidth: 0
Flags: HW
HStem: 231 61<0 185> 354 61<0 185>
VStem: 185 61<-200 231 415 800> 306 61<-200 800>
LayerCount: 2
Fore
SplineSet
246 292 m 5
 246 -200 l 5
 185 -200 l 5
 185 231 l 5
 0 231 l 5
 0 292 l 5
 246 292 l 5
246 800 m 1
 246 354 l 1
 0 354 l 1
 0 415 l 1
 185 415 l 1
 185 800 l 1
 246 800 l 1
367 800 m 1
 367 467 367 133 367 -200 c 1
 306 -200 l 1
 306 133 306 467 306 800 c 1
 367 800 l 1
EndSplineSet
Validated: 1
EndChar

StartChar: SF420000
Encoding: 9568 9568 781
Width: 536
VWidth: 0
Flags: HW
HStem: 231 61<367 536> 354 61<367 536>
VStem: 185 61<-200 800> 306 61<-200 231 415 800>
LayerCount: 2
Fore
SplineSet
536 292 m 5
 536 231 l 5
 367 231 l 5
 367 -200 l 5
 306 -200 l 5
 306 292 l 5
 536 292 l 5
536 415 m 1
 536 354 l 1
 306 354 l 1
 306 800 l 1
 367 800 l 1
 367 415 l 1
 536 415 l 1
246 800 m 1
 246 467 246 133 246 -200 c 1
 185 -200 l 1
 185 133 185 467 185 800 c 1
 246 800 l 1
EndSplineSet
Validated: 1
EndChar

StartChar: SF410000
Encoding: 9574 9574 782
Width: 536
VWidth: 0
Flags: HW
HStem: 231 61<0 185 367 536> 354 61<0 536>
VStem: 185 61<-200 231> 306 61<-200 231>
LayerCount: 2
Fore
SplineSet
536 292 m 5
 536 231 l 5
 367 231 l 5
 367 -200 l 5
 306 -200 l 5
 306 292 l 5
 536 292 l 5
246 292 m 5
 246 -200 l 5
 185 -200 l 5
 185 231 l 5
 0 231 l 5
 0 292 l 5
 246 292 l 5
536 415 m 1
 536 354 l 1
 0 354 l 1
 0 415 l 1
 536 415 l 1
EndSplineSet
Validated: 1
EndChar

